<svg width="300" height="200" viewBox="0 0 300 200" fill="none" xmlns="http://www.w3.org/2000/svg">
<g clip-path="url(#clip0_14123_103289)">
<rect width="300" height="200" fill="url(#paint0_linear_14123_103289)"/>
<path d="M69.3252 188.595H39.3291V199.94H69.3252V188.595Z" fill="#7196FF"/>
<g style="mix-blend-mode:multiply" opacity="0.2">
<path d="M79.9503 191.218C79.9503 189.59 78.6302 188.27 77.0018 188.27C75.3733 188.27 74.0532 189.59 74.0532 191.218V193.787C74.0532 195.416 75.3733 196.736 77.0018 196.736C78.6302 196.736 79.9503 195.416 79.9503 193.787V191.218Z" fill="#3E70DD"/>
</g>
<g style="mix-blend-mode:multiply" opacity="0.2">
<path d="M77.3737 190.971H76.623V199.94H77.3737V190.971Z" fill="#3E70DD"/>
</g>
<g style="mix-blend-mode:multiply" opacity="0.2">
<path d="M14.8971 191.218C14.8971 189.59 13.577 188.27 11.9485 188.27C10.3201 188.27 9 189.59 9 191.218V193.787C9 195.416 10.3201 196.736 11.9485 196.736C13.577 196.736 14.8971 195.416 14.8971 193.787V191.218Z" fill="#3E70DD"/>
</g>
<g style="mix-blend-mode:multiply" opacity="0.2">
<path d="M12.32 190.971H11.5693V199.94H12.32V190.971Z" fill="#3E70DD"/>
</g>
<g style="mix-blend-mode:multiply" opacity="0.2">
<path d="M85.9481 194.422C86.7301 194.422 87.48 194.733 88.033 195.285C88.5859 195.838 88.8966 196.588 88.8966 197.37V199.94H82.9995V197.378C82.9985 196.99 83.074 196.606 83.2217 196.247C83.3695 195.889 83.5865 195.563 83.8604 195.288C84.1343 195.014 84.4597 194.796 84.8179 194.647C85.1761 194.498 85.5602 194.422 85.9481 194.422Z" fill="#3E70DD"/>
</g>
<path d="M62.8087 182.07L56.2925 188.586H69.3248L62.8087 182.07Z" fill="#7196FF"/>
<g style="mix-blend-mode:multiply" opacity="0.2">
<path d="M45.8453 182.07L39.3291 188.586H56.2928L62.809 182.07H45.8453Z" fill="#3E70DD"/>
</g>
<path d="M62.8088 191.644C63.402 191.644 63.9709 191.879 64.3903 192.299C64.8097 192.718 65.0454 193.287 65.0454 193.88V199.94H60.5723V193.88C60.5723 193.287 60.8079 192.718 61.2273 192.299C61.6468 191.879 62.2156 191.644 62.8088 191.644Z" fill="#85A5FF"/>
<path d="M34.2678 172.769H30.9711L29.1602 199.94H36.0788L34.2678 172.769Z" fill="#7196FF"/>
<path d="M33.1067 176.646L31.9304 175.462L23.1699 182.884L25.6232 185.352L33.1067 176.646Z" fill="#85A5FF"/>
<path d="M33.6949 177.234L32.5186 176.05L39.9944 167.344L42.4476 169.812L33.6949 177.234Z" fill="#85A5FF"/>
<path d="M32.511 176.638L33.695 175.469L26.2734 166.709L23.8047 169.162L32.511 176.638Z" fill="#85A5FF"/>
<path d="M31.9229 177.226L33.1069 176.05L41.8209 183.526L39.3522 185.979L31.9229 177.226Z" fill="#85A5FF"/>
<path d="M51.9512 193.037C52.2508 193.037 52.5382 193.156 52.7501 193.368C52.962 193.58 53.0811 193.867 53.0811 194.167V195.97H50.8213V194.167C50.8213 194.019 50.8505 193.872 50.9073 193.735C50.9641 193.598 51.0473 193.473 51.1522 193.368C51.2571 193.263 51.3817 193.18 51.5188 193.123C51.6559 193.066 51.8028 193.037 51.9512 193.037Z" fill="#3E70DD"/>
<path d="M45.0093 193.037C45.3089 193.037 45.5963 193.156 45.8082 193.368C46.0201 193.58 46.1392 193.867 46.1392 194.167V195.97H43.8794V194.167C43.8794 193.867 43.9984 193.58 44.2103 193.368C44.4222 193.156 44.7096 193.037 45.0093 193.037Z" fill="#3E70DD"/>
<g style="mix-blend-mode:multiply" opacity="0.2">
<g style="mix-blend-mode:multiply">
<path d="M89.8875 180.995C89.3062 180.995 88.835 181.466 88.835 182.047C88.835 182.628 89.3062 183.1 89.8875 183.1H90.9477C91.529 183.1 92.0002 182.628 92.0002 182.047C92.0002 181.466 91.529 180.995 90.9477 180.995H89.8875Z" fill="#3E70DD"/>
</g>
<g style="mix-blend-mode:multiply">
<path d="M81.4519 180.995C80.8706 180.995 80.3994 181.466 80.3994 182.047C80.3994 182.628 80.8706 183.1 81.4519 183.1H82.5121C83.0934 183.1 83.5646 182.628 83.5646 182.047C83.5646 181.466 83.0934 180.995 82.5121 180.995H81.4519Z" fill="#3E70DD"/>
</g>
<g style="mix-blend-mode:multiply">
<path d="M85.1435 178.356C85.1435 178.937 85.6148 179.408 86.196 179.408C86.7773 179.408 87.2485 178.937 87.2485 178.356V177.295C87.2485 176.714 86.7773 176.243 86.196 176.243C85.6148 176.243 85.1435 176.714 85.1435 177.295V178.356Z" fill="#3E70DD"/>
</g>
<g style="mix-blend-mode:multiply">
<path d="M85.1435 186.791C85.1435 187.373 85.6148 187.844 86.196 187.844C86.7773 187.844 87.2485 187.373 87.2485 186.791V185.731C87.2485 185.15 86.7773 184.679 86.196 184.679C85.6148 184.679 85.1435 185.15 85.1435 185.731V186.791Z" fill="#3E70DD"/>
</g>
</g>
<path opacity="0.8" d="M259.019 175.69H230.189V200.2H259.019V175.69Z" fill="#3E70DD"/>
<path d="M265.784 163.849H246.693L243.598 200.2H268.879L265.784 163.849Z" fill="#85A5FF"/>
<path d="M266.768 184.968H224.196V200.2H266.768V184.968Z" fill="#7196FF"/>
<path d="M266.51 184.976L265.216 200.2H264.104L265.413 184.976H266.51Z" fill="#3E70DD"/>
<path d="M213.943 179.996H224.022L225.747 200.2H212.218L213.943 179.996Z" fill="#7196FF"/>
<path d="M212.218 180.783H225.748V178.241H212.218V180.783Z" fill="#7196FF"/>
<path d="M212.218 178.241H225.748V175.699H212.218V178.241Z" fill="#3E70DD"/>
<path d="M222.706 178.726H225.748V175.691H222.706V178.726Z" fill="#7196FF"/>
<path d="M216.796 178.726H221.306V175.691H216.796V178.726Z" fill="#7196FF"/>
<path d="M212.218 178.726H215.721V175.691H212.218V178.726Z" fill="#7196FF"/>
<path d="M271.981 185.914C272.13 185.909 272.279 185.934 272.418 185.987C272.557 186.041 272.683 186.122 272.79 186.226C272.897 186.33 272.981 186.455 273.039 186.592C273.096 186.729 273.125 186.877 273.124 187.026V188.789H270.854V187.026C270.853 186.878 270.882 186.732 270.938 186.596C270.995 186.459 271.078 186.336 271.183 186.232C271.288 186.128 271.413 186.047 271.55 185.992C271.687 185.937 271.834 185.911 271.981 185.914Z" fill="#3E70DD"/>
<path d="M218.982 185.914C219.275 185.914 219.556 186.03 219.764 186.238C219.971 186.445 220.087 186.726 220.087 187.019V188.782H217.885V187.026C217.885 186.733 218.002 186.452 218.209 186.245C218.416 186.038 218.697 185.922 218.99 185.922L218.982 185.914Z" fill="#3E70DD"/>
<path d="M277.021 179.996H266.942L265.216 200.2H278.746L277.021 179.996Z" fill="#7196FF"/>
<path d="M278.746 178.233H265.216V180.776H278.746V178.233Z" fill="#7196FF"/>
<path d="M278.746 175.69H265.216V178.233H278.746V175.69Z" fill="#3E70DD"/>
<path d="M269.726 175.69H265.216V178.725H269.726V175.69Z" fill="#7196FF"/>
<path d="M275.636 175.69H271.126V178.725H275.636V175.69Z" fill="#7196FF"/>
<path d="M278.754 175.69H276.71V178.725H278.754V175.69Z" fill="#7196FF"/>
<path d="M248.706 163.841H263.779V150.954H248.706V163.841Z" fill="#7196FF"/>
<path d="M224.454 184.976L225.748 200.2H226.86L225.551 184.976H224.454Z" fill="#3E70DD"/>
<path d="M268.402 159.573H244.074V163.841H268.402V159.573Z" fill="#85A5FF"/>
<path d="M268.402 157.031H244.074V159.574H268.402V157.031Z" fill="#7196FF"/>
<path d="M257.46 157.031H248.698V160.066H257.46V157.031Z" fill="#85A5FF"/>
<path d="M265.201 157.031H259.761V160.066H265.201V157.031Z" fill="#85A5FF"/>
<path d="M268.41 157.031H266.367V160.066H268.41V157.031Z" fill="#85A5FF"/>
<path d="M244.082 160.065H246.829V157.031H244.082V160.065Z" fill="#85A5FF"/>
<path d="M256.242 144.932L250.96 150.962H261.516L256.242 144.932Z" fill="#3E70DD"/>
<path d="M271.981 185.914C272.13 185.909 272.279 185.934 272.418 185.987C272.557 186.041 272.683 186.122 272.79 186.226C272.897 186.33 272.981 186.455 273.039 186.592C273.096 186.729 273.125 186.877 273.124 187.026V188.789H270.854V187.026C270.853 186.878 270.882 186.732 270.938 186.596C270.995 186.459 271.078 186.336 271.183 186.232C271.288 186.128 271.413 186.047 271.55 185.992C271.687 185.937 271.834 185.911 271.981 185.914Z" fill="#3E70DD"/>
<path d="M245.482 190.105C246.514 190.105 247.503 190.515 248.232 191.245C248.962 191.974 249.372 192.963 249.372 193.995V200.2H241.593V194.002C241.592 193.491 241.692 192.984 241.887 192.512C242.082 192.039 242.368 191.609 242.729 191.247C243.091 190.885 243.52 190.598 243.992 190.402C244.464 190.206 244.971 190.105 245.482 190.105Z" fill="#85A5FF"/>
<path d="M256.651 139.06H255.818V145.408H256.651V139.06Z" fill="#85A5FF"/>
<path d="M256.242 139.332C256.61 139.332 256.908 139.034 256.908 138.666C256.908 138.298 256.61 138 256.242 138C255.874 138 255.576 138.298 255.576 138.666C255.576 139.034 255.874 139.332 256.242 139.332Z" fill="#85A5FF"/>
<path d="M263.499 139.672H256.658V144.817H263.499V139.672Z" fill="#7196FF"/>
<path d="M267.661 141.042H260.82V146.187H267.661V141.042Z" fill="#7196FF"/>
<path d="M260.82 144.811H263.491L260.82 146.188V144.811Z" fill="#3E70DD"/>
<g style="mix-blend-mode:multiply" opacity="0.2">
<path d="M288.076 191.672C288.076 190.08 286.785 188.789 285.193 188.789C283.601 188.789 282.31 190.08 282.31 191.672V194.184C282.31 195.777 283.601 197.067 285.193 197.067C286.785 197.067 288.076 195.777 288.076 194.184V191.672Z" fill="#3E70DD"/>
</g>
<g style="mix-blend-mode:multiply" opacity="0.2">
<path d="M285.564 191.43H284.83V200.2H285.564V191.43Z" fill="#3E70DD"/>
</g>
<g style="mix-blend-mode:multiply" opacity="0.2">
<path d="M290.966 194.805C291.731 194.805 292.464 195.108 293.005 195.649C293.546 196.19 293.85 196.923 293.85 197.688V200.2H288.084V197.695C288.083 197.316 288.156 196.94 288.301 196.59C288.445 196.239 288.657 195.92 288.925 195.652C289.193 195.383 289.511 195.17 289.861 195.025C290.212 194.88 290.587 194.805 290.966 194.805Z" fill="#3E70DD"/>
</g>
<g style="mix-blend-mode:multiply" opacity="0.4">
<path d="M227.889 154.707C227.304 154.707 226.83 155.182 226.83 155.767C226.83 156.352 227.304 156.826 227.889 156.826H228.948C229.533 156.826 230.008 156.352 230.008 155.767C230.008 155.182 229.533 154.707 228.948 154.707H227.889Z" fill="#3E70DD"/>
</g>
<g style="mix-blend-mode:multiply" opacity="0.4">
<path d="M219.414 154.707C218.829 154.707 218.354 155.182 218.354 155.767C218.354 156.352 218.829 156.826 219.414 156.826H220.473C221.058 156.826 221.533 156.352 221.533 155.767C221.533 155.182 221.058 154.707 220.473 154.707H219.414Z" fill="#3E70DD"/>
</g>
<g style="mix-blend-mode:multiply" opacity="0.4">
<path d="M223.114 152.06C223.114 152.645 223.588 153.119 224.174 153.119C224.759 153.119 225.233 152.645 225.233 152.06V151C225.233 150.415 224.759 149.941 224.174 149.941C223.588 149.941 223.114 150.415 223.114 151V152.06Z" fill="#3E70DD"/>
</g>
<g style="mix-blend-mode:multiply" opacity="0.4">
<path d="M223.114 160.534C223.114 161.119 223.588 161.594 224.174 161.594C224.759 161.594 225.233 161.119 225.233 160.534V159.475C225.233 158.89 224.759 158.416 224.174 158.416C223.588 158.416 223.114 158.89 223.114 159.475V160.534Z" fill="#3E70DD"/>
</g>
<path d="M150.5 158C180.611 158 205 133.387 205 103C205 72.6125 180.611 48 150.5 48C120.389 48 96 72.6125 96 103C96 133.387 120.389 158 150.5 158Z" fill="#3E70DD" fill-opacity="0.6"/>
<path d="M196.987 78.9593L241.625 71.125L227.827 89.2675C225.136 92.8411 221.204 95.1776 216.788 96.0023L185.397 101.5L184.5 96.6208L196.987 78.9593Z" fill="#DAE2ED"/>
<path d="M183.376 74.6078L249.255 63.0053C249.805 62.9366 250.218 63.5545 249.874 63.9664L245.675 69.6647C245.193 70.2826 244.505 70.7632 243.679 70.9005L241.545 71.2438L197.006 79.0703L184.684 96.6458L185.579 101.52L186.199 105.159L172.293 125L164.514 109.004L163 100.49L179.452 77.0794C180.278 75.8436 181.724 74.9511 183.376 74.6078Z" fill="#ECEFF6"/>
<path d="M184.5 96.552L196.933 78.9593L241.625 71.125L238.862 74.7673L198.66 81.8456L187.194 98.1326L187.677 101.088L185.398 101.5L184.5 96.552Z" fill="#C5CEDD"/>
<path d="M241 70C242.133 70 243 69.1333 243 68C243 66.8667 242.133 66 241 66C239.867 66 239 66.8667 239 68C239 69.1333 239.867 70 241 70Z" fill="#DAE2ED"/>
<path d="M189 85C190.133 85 191 84.1333 191 83C191 81.8667 190.133 81 189 81C187.867 81 187 81.8667 187 83C187 84.1333 187.867 85 189 85Z" fill="#DAE2ED"/>
<path d="M185 90C186.133 90 187 89.1333 187 88C187 86.8667 186.133 86 185 86C183.867 86 183 86.8667 183 88C183 89.1333 183.867 90 185 90Z" fill="#DAE2ED"/>
<path d="M103.929 79.0288L59.4375 71.2188L73.1905 89.3053C75.8724 92.8678 79.792 95.1971 84.1929 96.0192L115.481 101.5L116.375 96.6358L103.929 79.0288Z" fill="#DAE2ED"/>
<path d="M117.624 74.5392L51.7454 63.0053C51.1947 62.9366 50.7817 63.5545 51.1259 63.9664L55.325 69.6647C55.8069 70.2826 56.4953 70.7632 57.3213 70.9005L59.4553 71.2438L103.994 79.0703L116.316 96.6458L115.421 101.52L114.801 105.159L128.707 125L136.486 109.004L138 100.49L121.548 77.0794C120.722 75.7749 119.276 74.8824 117.624 74.5392Z" fill="#ECEFF6"/>
<path d="M116.375 96.5673L104.036 79.0288L59.4375 71.2188L62.1948 74.8498L102.244 81.9062L113.756 98.143L113.204 101.089L115.548 101.5L116.375 96.5673Z" fill="#C5CEDD"/>
<path d="M60 70C61.1333 70 62 69.1333 62 68C62 66.8667 61.1333 66 60 66C58.8667 66 58 66.8667 58 68C58 69.1333 58.8667 70 60 70Z" fill="#DAE2ED"/>
<path d="M112 85C113.133 85 114 84.1333 114 83C114 81.8667 113.133 81 112 81C110.867 81 110 81.8667 110 83C110 84.1333 110.867 85 112 85Z" fill="#DAE2ED"/>
<path d="M116 90C117.133 90 118 89.1333 118 88C118 86.8667 117.133 86 116 86C114.867 86 114 86.8667 114 88C114 89.1333 114.867 90 116 90Z" fill="#DAE2ED"/>
<path d="M210.822 47.9468L209.104 51.59C208.691 52.4149 209.585 53.3085 210.41 52.8961L214.053 51.1776C214.328 51.0401 214.672 51.0401 214.947 51.1776L218.59 52.8961C219.415 53.3085 220.309 52.4149 219.896 51.59L218.178 47.9468C218.04 47.6719 218.04 47.3281 218.178 47.0532L219.896 43.41C220.309 42.5851 219.415 41.6915 218.59 42.1039L214.947 43.8224C214.672 43.9599 214.328 43.9599 214.053 43.8224L210.41 42.1039C209.585 41.6915 208.691 42.5851 209.104 43.41L210.822 47.0532C210.96 47.3281 210.96 47.6719 210.822 47.9468Z" fill="#AEC7FF"/>
<path d="M65.5 120C64.675 120 64 119.4 64 118.667V117.333C64 116.6 64.675 116 65.5 116C66.325 116 67 116.6 67 117.333V118.667C67 119.4 66.325 120 65.5 120Z" fill="#AEC7FF"/>
<path d="M65.5 131C64.675 131 64 130.4 64 129.667V128.333C64 127.6 64.675 127 65.5 127C66.325 127 67 127.6 67 128.333V129.667C67 130.4 66.325 131 65.5 131Z" fill="#AEC7FF"/>
<path d="M69 123.5C69 122.675 69.6 122 70.3333 122H71.6667C72.4 122 73 122.675 73 123.5C73 124.325 72.4 125 71.6667 125H70.3333C69.6 125 69 124.325 69 123.5Z" fill="#AEC7FF"/>
<path d="M58 123.5C58 122.675 58.6 122 59.3333 122H60.6667C61.4 122 62 122.675 62 123.5C62 124.325 61.4 125 60.6667 125H59.3333C58.6 125 58 124.325 58 123.5Z" fill="#AEC7FF"/>
<path d="M150.5 55L122 83.1709V122.829L150.5 151L179 122.829V83.1709L150.5 55ZM164.819 116.88L150.5 131.034L136.25 116.949V88.9145L150.5 74.8974L164.75 88.9829L164.819 116.88Z" fill="#FA6EF6"/>
<path d="M150 55V74.9074L164.5 89L179 83.1167L150 55Z" fill="#FFADFB"/>
<path d="M136 117L122 122.815L150 151V131.093L136 117Z" fill="#E655D4"/>
<path d="M136 88.3021V116.698L150.5 131L165 116.698V88.3021L150.5 74L136 88.3021Z" fill="#FFCFF9"/>
<path d="M165 87.9657V88.0365L136.07 117H136V109.139L161.058 84L165 87.9657Z" fill="white"/>
<path d="M165 99V106.843L145.937 126L142 122.044L165 99Z" fill="white"/>
</g>
<defs>
<linearGradient id="paint0_linear_14123_103289" x1="2.00383e-05" y1="200" x2="192.891" y2="-84.108" gradientUnits="userSpaceOnUse">
<stop stop-color="#3E70DD"/>
<stop offset="1" stop-color="#B377F3"/>
</linearGradient>
<clipPath id="clip0_14123_103289">
<rect width="300" height="200" rx="8" fill="white"/>
</clipPath>
</defs>
</svg>
