<svg width="400" height="201" viewBox="0 0 400 201" fill="none" xmlns="http://www.w3.org/2000/svg">
<path d="M390.975 3.93945H9.02551C6.24028 3.93945 3.98242 6.17304 3.98242 8.92832V192.046C3.98242 194.801 6.24028 197.035 9.02551 197.035H390.975C393.76 197.035 396.018 194.801 396.018 192.046V8.92832C396.018 6.17304 393.76 3.93945 390.975 3.93945Z" fill="#2F3136"/>
<path d="M103.098 71.7636C103.228 71.6335 103.439 71.6335 103.569 71.7636L106 74.1946L108.431 71.7636C108.561 71.6335 108.772 71.6335 108.902 71.7636C109.033 71.8938 109.033 72.1049 108.902 72.2351L106.236 74.9017C106.106 75.0319 105.894 75.0319 105.764 74.9017L103.098 72.2351C102.967 72.1049 102.967 71.8938 103.098 71.7636Z" fill="#B9BBBE"/>
<path d="M103.098 188.764C103.228 188.633 103.439 188.633 103.569 188.764L106 191.195L108.431 188.764C108.561 188.633 108.772 188.633 108.902 188.764C109.033 188.894 109.033 189.105 108.902 189.235L106.236 191.902C106.106 192.032 105.894 192.032 105.764 191.902L103.098 189.235C102.967 189.105 102.967 188.894 103.098 188.764Z" fill="#B9BBBE"/>
<path d="M390.974 3.93858C392.312 3.93858 393.595 4.46419 394.54 5.39979C395.486 6.33538 396.018 7.60432 396.018 8.92745V192.072C396.018 193.395 395.486 194.664 394.54 195.599C393.595 196.535 392.312 197.06 390.974 197.06H8.89278C7.5784 197.026 6.32951 196.486 5.41225 195.554C4.495 194.622 3.98194 193.372 3.98239 192.072V8.92745C3.98194 7.62675 4.495 6.37731 5.41225 5.4454C6.32951 4.51349 7.5784 3.97281 8.89278 3.93858H390.974ZM390.974 0H8.89278C6.52241 0.0344873 4.26092 0.99026 2.5971 2.66076C0.933272 4.33126 0.00073425 6.58231 0.000990604 8.92745V192.072C-0.0166055 193.238 0.200376 194.396 0.639346 195.478C1.07832 196.56 1.7305 197.546 2.55793 198.376C3.38537 199.207 4.37155 199.867 5.45909 200.317C6.54664 200.767 7.71384 200.999 8.89278 200.999H390.974C392.165 201.017 393.346 200.798 394.449 200.356C395.552 199.913 396.554 199.256 397.396 198.424C398.237 197.591 398.901 196.6 399.348 195.509C399.796 194.418 400.017 193.249 399.999 192.072V8.92745C399.999 6.55974 399.048 4.28901 397.356 2.61478C395.663 0.940562 393.368 0 390.974 0Z" fill="black"/>
<path d="M3.98242 8.92832C3.98197 7.62762 4.49503 6.37818 5.41229 5.44627C6.32954 4.51436 7.57843 3.97368 8.89281 3.93945H390.975C392.312 3.93945 393.595 4.46506 394.541 5.40066C395.486 6.33625 396.018 7.60519 396.018 8.92832V63.1495H3.98242V8.92832Z" fill="#2F3136"/>
<path d="M373.324 46.0821C373.058 45.6882 373.191 45.0318 373.058 44.3753C373.03 43.8014 372.886 43.2389 372.635 42.7204C372.384 42.202 372.032 41.7381 371.598 41.3558L368.546 38.5987C368.546 38.5987 367.882 37.9423 367.352 38.5987C367.211 38.7643 367.134 38.9734 367.134 39.1895C367.134 39.4056 367.211 39.6148 367.352 39.7803L368.679 40.9619L369.873 42.0122C369.873 42.0122 369.608 42.2748 368.281 41.2245L364.034 37.2859C364.034 37.2859 363.37 36.6295 362.839 37.2859C362.699 37.4514 362.622 37.6606 362.622 37.8767C362.622 38.0928 362.699 38.3019 362.839 38.4675L366.954 42.1435L366.555 42.406L362.309 38.4675C362.141 38.3285 361.93 38.2524 361.711 38.2524C361.493 38.2524 361.281 38.3285 361.114 38.4675C360.974 38.633 360.897 38.8422 360.897 39.0582C360.897 39.2743 360.974 39.4835 361.114 39.649L365.494 43.7189L365.228 43.9815L361.512 40.568C361.345 40.4291 361.133 40.353 360.915 40.353C360.697 40.353 360.485 40.4291 360.318 40.568C360.177 40.7336 360.1 40.9427 360.1 41.1588C360.1 41.3749 360.177 41.5841 360.318 41.7496L364.299 45.4256C364.299 45.4256 364.034 45.8195 364.167 45.8195L361.247 43.1938C361.08 43.0548 360.868 42.9787 360.65 42.9787C360.431 42.9787 360.22 43.0548 360.052 43.1938C359.975 43.2766 359.917 43.3749 359.881 43.482C359.846 43.5891 359.834 43.7025 359.847 43.8145C359.859 43.9265 359.896 44.0345 359.954 44.1312C360.013 44.228 360.091 44.3112 360.185 44.3753L364.83 48.7078C365.537 49.3345 366.413 49.745 367.352 49.8894H367.882L368.811 50.2832C368.923 50.3984 369.057 50.49 369.205 50.5526C369.353 50.6153 369.513 50.6475 369.674 50.6475C369.835 50.6475 369.995 50.6153 370.143 50.5526C370.291 50.49 370.425 50.3984 370.537 50.2832L371.997 48.8391L373.324 47.3949C373.475 47.2086 373.557 46.9771 373.557 46.7385C373.557 46.4999 373.475 46.2683 373.324 46.0821Z" fill="#4F545C"/>
<path d="M360.583 50.4144H360.318C360.242 50.3213 360.201 50.2055 360.201 50.0862C360.201 49.9669 360.242 49.8511 360.318 49.758L361.777 48.3138C361.872 48.2393 361.989 48.1986 362.109 48.1986C362.23 48.1986 362.347 48.2393 362.441 48.3138C362.506 48.3861 362.542 48.4795 362.542 48.5764C362.542 48.6733 362.506 48.7668 362.441 48.839L360.981 50.4144H360.583ZM363.503 50.8083H363.37C363.105 50.8083 362.972 50.5457 363.105 50.2831L363.503 49.1016C363.503 48.9703 363.768 48.839 364.034 48.9703C364.299 49.1016 364.299 49.2328 364.299 49.4954L363.901 50.5457C363.768 50.8083 363.635 50.8083 363.503 50.8083ZM360.318 47.6574C360.052 47.6574 359.919 47.5261 359.919 47.3948C359.919 47.2636 359.919 47.001 360.185 46.8697L361.114 46.4758L361.645 46.7384C361.777 47.001 361.645 47.2636 361.379 47.2636L360.45 47.6574H360.318ZM372.527 38.73C372.394 38.73 372.262 38.73 372.262 38.5987C372.197 38.5265 372.16 38.433 372.16 38.3361C372.16 38.2392 372.197 38.1457 372.262 38.0735L373.722 36.4981C373.795 36.4335 373.889 36.3978 373.987 36.3978C374.085 36.3978 374.18 36.4335 374.252 36.4981C374.518 36.7607 374.518 37.0232 374.252 37.1545L372.793 38.5987C372.793 38.73 372.66 38.73 372.527 38.73ZM370.802 38.0735C370.767 38.0735 370.733 38.0597 370.708 38.0351C370.683 38.0105 370.669 37.9771 370.669 37.9422C370.404 37.9422 370.271 37.6797 370.404 37.4171L370.802 36.3668C370.935 36.1042 371.067 35.973 371.333 36.1042C371.598 36.2355 371.731 36.3668 371.598 36.6294L371.2 37.6797C371.112 37.9422 370.979 38.0735 370.802 38.0735ZM373.323 40.4367L372.925 40.1741C372.925 39.9115 373.058 39.649 373.191 39.649L374.252 39.2551C374.518 39.1238 374.651 39.2551 374.783 39.5177C374.916 39.7802 374.783 39.9115 374.518 40.0428L373.456 40.4367H373.323Z" fill="#A3A6AA"/>
<path d="M374.518 45.8192C374.253 45.4254 374.518 44.7689 374.385 44.1125C374.381 43.5467 374.261 42.9876 374.033 42.4687C373.805 41.9499 373.474 41.4819 373.058 41.0929L370.006 38.2046C369.931 38.1208 369.839 38.0537 369.736 38.0077C369.633 37.9617 369.522 37.9379 369.409 37.9379C369.296 37.9379 369.184 37.9617 369.081 38.0077C368.978 38.0537 368.886 38.1208 368.811 38.2046C368.281 38.7298 368.944 39.3862 368.944 39.3862L370.139 40.5678L371.2 41.7494C371.2 41.7494 370.935 42.0119 369.74 40.8304L365.626 36.7605C365.626 36.7605 364.963 36.1041 364.432 36.7605C364.292 36.926 364.215 37.1352 364.215 37.3513C364.215 37.5674 364.292 37.7766 364.432 37.9421L368.281 41.7494L368.015 42.0119L363.901 37.9421C363.901 37.9421 363.238 37.2856 362.707 37.9421C362.176 38.5985 362.707 39.1236 362.707 39.1236L366.821 43.1935L366.555 43.4561L362.972 39.9114C362.805 39.7725 362.593 39.6963 362.375 39.6963C362.156 39.6963 361.945 39.7725 361.778 39.9114C361.637 40.0769 361.56 40.2861 361.56 40.5021C361.56 40.7182 361.637 40.9274 361.778 41.0929L365.626 44.9002C365.626 44.9002 365.361 45.2941 365.494 45.2941L362.707 42.5371C362.539 42.3982 362.328 42.322 362.109 42.322C361.891 42.322 361.68 42.3982 361.512 42.5371C361.428 42.611 361.36 42.7019 361.313 42.8038C361.267 42.9056 361.243 43.0161 361.243 43.1279C361.243 43.2396 361.267 43.3501 361.313 43.452C361.36 43.5538 361.428 43.6447 361.512 43.7187L366.024 48.1824C366.614 48.915 367.473 49.387 368.413 49.4952H369.077L370.006 50.0204C370.243 50.1729 370.519 50.2541 370.802 50.2541C371.085 50.2541 371.362 50.1729 371.598 50.0204L373.191 48.5762L374.518 47.1321C374.916 46.7382 374.916 46.3444 374.518 45.8192Z" fill="#86888C"/>
<path d="M25.2166 24.4198L24.0221 24.9449H22.695L21.2352 24.6823L20.1735 24.0259C19.903 23.6612 19.68 23.2642 19.5099 22.8443C19.1529 21.914 19.1529 20.8864 19.5099 19.956C19.6517 19.5626 19.8781 19.2043 20.1735 18.9058C20.4581 18.5624 20.8223 18.2922 21.2352 18.118L22.695 17.8555H23.8894L24.8184 18.2493L24.553 19.6935L23.7567 19.2996H22.0314L21.5006 19.6935C21.3194 19.8796 21.1832 20.1041 21.1025 20.3499C21.1025 20.6125 20.9697 21.0063 20.9697 21.2689C20.9697 21.5315 21.1025 21.9253 21.1025 22.1879C21.1025 22.4505 21.2352 22.7131 21.5006 22.8443C21.766 22.9756 21.766 23.2382 22.0314 23.2382L22.8277 23.5008H23.7567V22.3192H22.5623L22.2969 21.0063H25.2166V24.4198ZM26.411 24.9449V18.118H28.1363V24.9449H26.411ZM31.056 19.5622V20.8751H32.9139L33.1794 22.3192H31.056V24.9449H29.3307V18.118H33.4448V19.5622H31.056ZM37.6916 23.5008C37.7099 23.7142 37.6841 23.929 37.6156 24.1321C37.5472 24.3353 37.4375 24.5225 37.2935 24.6823C36.8146 24.9688 36.2597 25.1061 35.7009 25.0762H34.6392L33.7102 24.6823L33.9756 23.5008L34.9046 24.0259H36.2318V23.7633H35.4355L34.6392 23.5008L34.1084 23.2382L33.7102 22.8443V22.1879C33.7024 21.9954 33.7336 21.8033 33.802 21.623C33.8704 21.4426 33.9745 21.2776 34.1084 21.1376C34.5223 20.8066 35.036 20.6218 35.5682 20.6125H36.4972L37.2935 20.8751V22.0566L36.4972 21.6628H35.3028C35.1701 21.7941 35.1701 21.794 35.1701 21.9253H35.9664L36.7626 22.1879L37.4262 22.4505L37.6916 22.8443V23.5008Z" fill="#B9BBBE"/>
<path d="M58.3949 22.8443C58.4271 23.1998 58.3818 23.558 58.2622 23.8946L57.7313 24.5511L56.935 24.9449H54.6789L53.6172 24.5511V23.1069L54.8116 23.5008L55.8733 23.7633L56.4042 23.5008C56.6696 23.5008 56.6696 23.2382 56.6696 23.1069V22.8443C56.6696 22.7131 56.5369 22.7131 56.5369 22.5818H56.2715L55.6079 22.3192L54.8116 21.9253L54.148 21.5315L53.7499 20.8751V20.2186C53.7195 19.9062 53.765 19.5911 53.8826 19.2996L54.4135 18.6432L55.077 18.3806H57.2004L58.1294 18.7745L57.864 20.2186C57.6116 19.9821 57.2822 19.8424 56.935 19.8248H55.4752C55.3425 19.8248 55.3425 19.9561 55.3425 20.2186C55.3425 20.3499 55.4752 20.3499 55.4752 20.4812H55.8733L56.4042 20.7438L57.3332 21.1376L57.9967 21.6628C58.0791 21.7239 58.146 21.8032 58.1921 21.8943C58.2382 21.9855 58.2622 22.086 58.2622 22.1879C58.3694 22.3895 58.4155 22.6175 58.3949 22.8443ZM62.1108 24.9449H60.5183L59.9874 24.6823L59.5893 24.1572C59.522 23.8989 59.4776 23.6354 59.4566 23.3695V21.2689H58.9257V20.0873H59.4566V18.6432L61.0491 18.3806V20.0873H61.9781V21.2689H60.9164V23.1069C60.9164 23.5008 61.0491 23.7633 61.4473 23.7633H61.8454L62.1108 24.9449ZM64.4997 18.6432C64.4997 18.9058 64.4997 19.1683 64.2343 19.2996H63.0398C62.8773 19.1177 62.7835 18.8858 62.7744 18.6432C62.7744 18.5413 62.7984 18.4408 62.8445 18.3496C62.8905 18.2585 62.9574 18.1792 63.0398 18.118L63.7034 17.8555L64.2343 18.118C64.4997 18.2493 64.4997 18.3806 64.4997 18.6432ZM62.9071 24.9449V20.0873H64.367V24.9449H62.9071ZM69.1447 24.5511L68.4811 24.9449H67.5521L66.6231 24.6823C66.3638 24.6275 66.1304 24.489 65.9595 24.2885L65.4287 23.5008C65.309 23.1641 65.2637 22.8059 65.2959 22.4505C65.2751 22.0521 65.3199 21.653 65.4287 21.2689L65.9595 20.4812L66.7558 20.0873H68.4811L69.1447 20.3499L68.8792 21.6628C68.8174 21.5812 68.7373 21.5151 68.6451 21.4695C68.553 21.4239 68.4514 21.4002 68.3484 21.4002H67.8175C67.5107 21.4251 67.2254 21.5662 67.0212 21.7941C66.8192 22.0565 66.7244 22.3846 66.7558 22.7131C66.7502 22.8857 66.783 23.0575 66.8518 23.2163C66.9206 23.3751 67.0237 23.517 67.154 23.6321L67.8175 23.8946H68.3484L69.0119 23.6321L69.1447 24.5511ZM72.8606 25.0762L71.5335 22.7131V24.9449H69.9409V18.118L71.5335 17.8555V22.0566L72.7279 20.0873H74.4532L72.8606 22.3192L74.4532 24.8136L72.8606 25.0762ZM79.2308 24.5511L78.3019 24.9449H76.1785L75.3822 24.4198C75.1431 24.2038 74.9609 23.9334 74.8513 23.6321C74.6715 22.9432 74.6715 22.2204 74.8513 21.5315C74.8801 21.3711 74.9421 21.2183 75.0335 21.0827C75.1248 20.9472 75.2436 20.8318 75.3822 20.7438C75.5392 20.5015 75.7723 20.317 76.0457 20.2186L76.9747 19.956L78.0364 20.2186L78.7 20.7438L79.0982 21.5315C79.0982 21.7941 79.2308 22.1879 79.2308 22.5818H76.1785L76.5766 23.5008H78.1692L78.9654 23.2382L79.2308 24.5511ZM76.9747 21.0063C76.7093 21.0063 76.5766 21.0063 76.4439 21.2689C76.3479 21.3755 76.2748 21.5003 76.2291 21.6357C76.1835 21.7712 76.1663 21.9144 76.1785 22.0566H77.771C77.6383 21.4002 77.5056 21.0063 76.9747 21.0063ZM83.2122 21.5315L82.1506 21.7941L81.487 22.3192V24.9449H80.0271V20.0873H81.3543V21.0063L81.8851 20.3499C82.1505 20.0873 82.416 20.0873 82.8141 19.956L83.2122 21.5315ZM87.4591 23.5008C87.4774 23.7142 87.4515 23.929 87.3831 24.1321C87.3146 24.3353 87.205 24.5225 87.061 24.6823C86.5821 24.9688 86.0272 25.1061 85.4684 25.0762H84.4067L83.4777 24.6823V23.5008L84.4067 24.0259H85.8665V23.7633H85.0703L84.274 23.5008L83.7431 23.2382L83.345 22.8443V22.1879C83.3372 21.9954 83.3684 21.8033 83.4367 21.623C83.5051 21.4426 83.6093 21.2776 83.7431 21.1376C84.157 20.8066 84.6708 20.6218 85.2029 20.6125H86.132L86.9282 20.8751V22.0566L86.132 21.6628H84.9375C84.8048 21.7941 84.8048 21.794 84.8048 21.9253H85.6011L86.3974 22.1879L87.061 22.4505L87.3264 22.8443L87.4591 23.5008Z" fill="#B9BBBE"/>
<path d="M129.264 13.7852H100.598C99.2051 13.7852 98.0762 14.902 98.0762 16.2796V26.0998C98.0762 27.4774 99.2051 28.5942 100.598 28.5942H129.264C130.656 28.5942 131.785 27.4774 131.785 26.0998V16.2796C131.785 14.902 130.656 13.7852 129.264 13.7852Z" fill="#4F545C"/>
<path d="M103.65 24.9449V18.118H107.897V19.5622H105.242V20.7438H107.233L107.499 22.1879H105.242V23.6321H108.029V24.9449H103.65ZM114.4 24.9449V21.9253C114.406 21.8542 114.397 21.7826 114.374 21.7149C114.352 21.6472 114.315 21.5848 114.267 21.5315C114.267 21.4618 114.239 21.3951 114.189 21.3458C114.139 21.2966 114.072 21.2689 114.002 21.2689H113.603L113.205 21.6628V24.8136H111.613V21.9253C111.619 21.8542 111.61 21.7826 111.587 21.7149C111.565 21.6472 111.528 21.5848 111.48 21.5315L111.215 21.2689H110.816L110.418 21.6628V24.8136H108.826V20.0873H110.153V20.7438L110.816 20.2186L111.613 19.956C111.757 19.944 111.901 19.961 112.038 20.0062C112.175 20.0513 112.301 20.1236 112.409 20.2186C112.674 20.3499 112.807 20.6125 112.94 20.7438L113.603 20.2186L114.4 19.956C114.595 19.94 114.792 19.9671 114.975 20.0352C115.159 20.1033 115.325 20.2108 115.461 20.3499C115.605 20.5097 115.715 20.697 115.783 20.9001C115.852 21.1033 115.878 21.3181 115.86 21.5315V24.9449H114.4ZM121.433 22.5818C121.407 22.9444 121.317 23.2997 121.168 23.6321C121.168 23.8946 120.903 24.1572 120.77 24.4198L119.974 24.8136L119.045 25.0762L118.116 24.8136C117.85 24.8136 117.585 24.5511 117.319 24.4198L116.921 23.6321C116.772 23.2997 116.682 22.9444 116.656 22.5818C116.665 22.2167 116.756 21.8581 116.921 21.5315C116.996 21.244 117.132 20.9756 117.319 20.7438L118.116 20.2186L119.045 19.956L119.974 20.2186L120.77 20.7438C121 20.9458 121.143 21.228 121.168 21.5315C121.333 21.8581 121.424 22.2167 121.433 22.5818ZM119.974 22.5818C119.964 22.2167 119.873 21.8581 119.708 21.5315L119.045 21.2689L118.381 21.5315C118.216 21.8581 118.125 22.2167 118.116 22.5818C118.121 22.9059 118.212 23.223 118.381 23.5008C118.454 23.6091 118.552 23.698 118.668 23.7594C118.784 23.8209 118.913 23.8531 119.045 23.8531C119.176 23.8531 119.305 23.8209 119.421 23.7594C119.537 23.698 119.636 23.6091 119.708 23.5008C119.877 23.223 119.969 22.9059 119.974 22.5818ZM123.822 18.6432C123.822 18.9058 123.822 19.1683 123.557 19.2996H122.362C122.2 19.1177 122.106 18.8858 122.097 18.6432C122.097 18.5413 122.121 18.4408 122.167 18.3496C122.213 18.2585 122.28 18.1792 122.362 18.118L123.026 17.8555L123.557 18.118C123.822 18.2493 123.822 18.3806 123.822 18.6432ZM123.69 25.0762C123.709 25.3455 123.663 25.6154 123.557 25.8639C123.557 25.9658 123.533 26.0663 123.487 26.1575C123.441 26.2486 123.374 26.3279 123.291 26.3891L122.761 26.6516H121.566L121.301 25.6014H122.097C122.23 25.4701 122.23 25.3388 122.23 25.0762V20.0873H123.69V25.0762ZM126.477 18.6432C126.467 18.8858 126.374 19.1177 126.211 19.2996H125.017C124.854 19.1177 124.76 18.8858 124.751 18.6432C124.751 18.5413 124.775 18.4408 124.821 18.3496C124.867 18.2585 124.934 18.1792 125.017 18.118L125.548 17.8555L126.211 18.118C126.294 18.1792 126.36 18.2585 126.407 18.3496C126.453 18.4408 126.477 18.5413 126.477 18.6432ZM124.884 24.9449V20.0873H126.344V24.9449H124.884Z" fill="white"/>
<path d="M344.923 33.6094H16.4576C15.065 33.6094 13.936 34.7262 13.936 36.1038V50.8604C13.936 52.238 15.065 53.3548 16.4576 53.3548H344.923C346.316 53.3548 347.445 52.238 347.445 50.8604V36.1038C347.445 34.7262 346.316 33.6094 344.923 33.6094Z" fill="#202225"/>
<g clip-path="url(#clip0_26218_65475)">
<path fill-rule="evenodd" clip-rule="evenodd" d="M336.857 45.387C336.279 45.8488 335.547 46.125 334.75 46.125C332.886 46.125 331.375 44.614 331.375 42.75C331.375 40.886 332.886 39.375 334.75 39.375C336.614 39.375 338.125 40.886 338.125 42.75C338.125 43.5469 337.849 44.2793 337.387 44.8566L339.14 46.6098C339.287 46.7563 339.287 46.9937 339.14 47.1402C338.994 47.2866 338.756 47.2866 338.61 47.1402L336.857 45.387ZM337.375 42.75C337.375 44.1997 336.2 45.375 334.75 45.375C333.3 45.375 332.125 44.1997 332.125 42.75C332.125 41.3003 333.3 40.125 334.75 40.125C336.2 40.125 337.375 41.3003 337.375 42.75Z" fill="#A3A6AA"/>
</g>
<path d="M20.9696 41.4871V43.1938H22.9603V44.3754H20.8369V47.1324H19.5098V40.3055H23.3584V41.4871H20.9696ZM25.6146 40.962C25.6146 41.0933 25.6146 41.2245 25.3491 41.3558L24.951 41.6184L24.4202 41.3558C24.2874 41.2245 24.1547 41.0933 24.1547 40.962C24.182 40.7625 24.2746 40.5775 24.4185 40.4351C24.5623 40.2928 24.7494 40.2012 24.951 40.1743L25.3491 40.4368C25.6146 40.5681 25.6146 40.6994 25.6146 40.962ZM24.2874 47.1324V42.4061H25.4819V47.1324H24.2874ZM29.7287 47.1324V43.9816C29.7287 43.8503 29.596 43.719 29.4633 43.5877C29.3306 43.4564 29.3305 43.3251 29.0651 43.3251H28.5343L28.0034 43.8503V47.0011H26.809V42.2748H27.738V42.9313L28.5343 42.4061L29.3305 42.1435C29.5259 42.1275 29.7225 42.1546 29.9061 42.2227C30.0896 42.2908 30.2557 42.3983 30.3923 42.5374C30.5261 42.6774 30.6302 42.8424 30.6986 43.0227C30.767 43.2031 30.7982 43.3952 30.7904 43.5877V47.0011L29.7287 47.1324ZM35.1699 47.1324V46.476L34.5064 47.0011L33.7101 47.2637H32.9138L32.383 46.8698L31.9848 46.0821C31.8651 45.7455 31.8199 45.3873 31.8521 45.0318C31.8312 44.6335 31.8761 44.2344 31.9848 43.8503L32.5157 43.0625C32.6866 42.862 32.92 42.7235 33.1792 42.6687L33.9755 42.4061H35.0372V40.043H36.2316V47.1324H35.1699ZM35.0372 43.4564H34.1082C33.8014 43.4813 33.5161 43.6224 33.3119 43.8503C33.1151 44.2124 33.0233 44.6213 33.0465 45.0318C33.0367 45.358 33.1294 45.6791 33.3119 45.9508C33.367 46.0769 33.4607 46.1827 33.5797 46.2534C33.6987 46.324 33.8372 46.356 33.9755 46.3447H34.5064C34.7718 46.2134 34.9045 45.9508 35.0372 45.8196V43.4564ZM42.2037 47.1324C42.071 47.1324 41.9383 47.1324 41.9383 47.2637H40.7439L40.3458 47.0011L39.9476 46.6073C39.8903 46.3913 39.846 46.1721 39.8149 45.9508V43.4564H39.1513V42.5374H39.8149V40.8307H41.0093V42.5374H42.071V43.4564H40.8766V45.6883C40.8766 45.9508 41.0093 46.0821 41.0093 46.2134H41.9383L42.2037 47.1324ZM46.0524 47.1324V43.9816C46.0524 43.8503 45.9197 43.719 45.9197 43.5877L45.3889 43.3251H44.858C44.6223 43.4304 44.4336 43.6171 44.3272 43.8503V47.0011H43.1327V40.043H44.3272V42.9313L44.9907 42.5374L45.787 42.2748C45.9824 42.2588 46.1789 42.2858 46.3625 42.3539C46.5461 42.422 46.7121 42.5295 46.8487 42.6687C46.9825 42.8086 47.0867 42.9737 47.1551 43.154C47.2234 43.3344 47.2547 43.5265 47.2468 43.719V47.1324H46.0524ZM52.4227 46.6073L51.6264 47.1324H49.6357C49.4735 47.1039 49.3191 47.0426 49.1821 46.9522C49.045 46.8618 48.9284 46.7444 48.8394 46.6073C48.5945 46.4519 48.408 46.2213 48.3086 45.9508C48.1998 45.5667 48.155 45.1676 48.1758 44.7693C48.1436 44.4138 48.1889 44.0556 48.3086 43.719C48.4383 43.4281 48.6179 43.1616 48.8394 42.9313L49.503 42.4061H50.2993L51.2282 42.6687C51.3731 42.6977 51.5089 42.7605 51.6243 42.8518C51.7397 42.9431 51.8314 43.0604 51.8918 43.1938C52.0192 43.2483 52.1262 43.3409 52.1976 43.4587C52.2691 43.5764 52.3013 43.7134 52.29 43.8503C52.3992 44.1893 52.4442 44.5454 52.4227 44.9006H49.3703C49.3625 45.093 49.3937 45.2851 49.462 45.4655C49.5304 45.6459 49.6346 45.8109 49.7684 45.9508L50.6974 46.2134H51.4937L52.29 45.6883L52.4227 46.6073ZM50.2993 43.0625C50.0338 43.0625 49.9011 43.1938 49.6357 43.4564C49.5397 43.563 49.4666 43.6878 49.421 43.8232C49.3753 43.9587 49.3581 44.1019 49.3703 44.2441H51.2282C51.2404 44.1019 51.2232 43.9587 51.1776 43.8232C51.1319 43.6878 51.0589 43.563 50.9628 43.4564C50.9078 43.3303 50.8141 43.2245 50.6951 43.1539C50.5761 43.0832 50.4376 43.0513 50.2993 43.0625ZM59.9873 44.638C59.9873 45.0318 59.8546 45.4257 59.8546 45.8196C59.7249 46.1104 59.5453 46.3769 59.3238 46.6073C59.1529 46.8078 58.9194 46.9463 58.6602 47.0011L57.8639 47.2637H56.8022V49.1017H55.6078V42.5374H56.5368V43.1938C56.6938 42.9516 56.927 42.7671 57.2003 42.6687L57.9966 42.4061H58.7929L59.3238 42.9313L59.7219 43.5877C59.887 43.9143 59.9776 44.2729 59.9873 44.638ZM58.7929 44.7693C58.822 44.4 58.7288 44.0313 58.5275 43.719C58.4724 43.5929 58.3788 43.4871 58.2598 43.4165C58.1407 43.3458 58.0023 43.3139 57.8639 43.3251L57.2003 43.5877C57.0676 43.5877 56.9349 43.8503 56.8022 43.9816V46.0821H57.7312C57.8696 46.0934 58.008 46.0614 58.127 45.9908C58.2461 45.9201 58.3397 45.8143 58.3948 45.6883C58.6602 45.6883 58.7929 45.2944 58.7929 44.7693ZM65.0304 46.6073L64.1014 47.1324H62.1107L61.3144 46.6073L60.9163 45.9508C60.7647 45.5735 60.6751 45.1746 60.6509 44.7693C60.6606 44.4042 60.7512 44.0456 60.9163 43.719C60.9163 43.4564 61.1817 43.1938 61.3144 42.9313L61.978 42.4061H62.907L63.836 42.6687C63.9809 42.6977 64.1166 42.7605 64.2321 42.8518C64.3475 42.9431 64.4392 43.0604 64.4996 43.1938L64.8977 43.8503C64.8977 44.2441 65.0304 44.5067 65.0304 44.9006H61.8453C61.8375 45.093 61.8687 45.2851 61.9371 45.4655C62.0055 45.6459 62.1096 45.8109 62.2435 45.9508L63.1725 46.2134H64.1014L64.8977 45.6883L65.0304 46.6073ZM62.907 43.0625C62.7687 43.0513 62.6302 43.0832 62.5112 43.1539C62.3922 43.2245 62.2985 43.3303 62.2435 43.4564C62.056 43.6882 61.9203 43.9567 61.8453 44.2441H63.836C63.8482 44.1019 63.831 43.9587 63.7853 43.8232C63.7397 43.6878 63.6666 43.563 63.5706 43.4564C63.5155 43.3303 63.4219 43.2245 63.3028 43.1539C63.1838 43.0832 63.0454 43.0513 62.907 43.0625ZM68.8791 43.4564L67.8174 43.719L67.1539 44.3754V47.1324H65.9594V42.4061H67.0211V43.3251C67.1206 43.0547 67.3071 42.824 67.552 42.6687C67.8044 42.4322 68.1338 42.2925 68.481 42.2748L68.8791 43.4564ZM72.3297 41.0933H71.2679C71.1352 41.0933 71.1353 41.3558 71.1353 41.4871V42.2748H72.0642V43.1938H71.0025V47.0011H69.8081V43.1938H69.1446V42.2748H69.8081V41.3558C69.7875 41.1289 69.8335 40.901 69.9408 40.6994L70.339 40.3055C70.4008 40.224 70.4809 40.1578 70.5731 40.1123C70.6652 40.0667 70.7668 40.043 70.8698 40.043H71.9315L72.3297 41.0933ZM76.8419 46.6073L76.0456 47.1324H74.0549L73.2586 46.6073L72.7278 45.9508C72.7278 45.557 72.5951 45.1631 72.5951 44.7693C72.5951 44.3754 72.7278 43.9815 72.7278 43.719L73.2586 42.9313L73.9222 42.4061H74.8512L75.7802 42.6687C76.0457 42.6687 76.1784 42.9313 76.4438 43.1938C76.6063 43.3757 76.7001 43.6077 76.7092 43.8503C76.8185 44.1893 76.8635 44.5454 76.8419 44.9006H73.7895C73.7817 45.093 73.8129 45.2851 73.8813 45.4655C73.9497 45.6459 74.0538 45.8109 74.1877 45.9508L75.1167 46.2134H75.9129L76.7092 45.6883L76.8419 46.6073ZM74.7185 43.0625C74.6029 43.0763 74.4929 43.12 74.3998 43.1891C74.3066 43.2583 74.2334 43.3504 74.1877 43.4564C73.9222 43.5877 73.9222 43.8503 73.7895 44.2441H75.7802C75.6475 43.8503 75.6475 43.5877 75.3821 43.4564C75.327 43.3303 75.2334 43.2245 75.1144 43.1539C74.9953 43.0832 74.8569 43.0513 74.7185 43.0625ZM81.4869 46.7386L80.8233 47.1324H78.9653C78.692 47.034 78.4588 46.8495 78.3018 46.6073C78.0802 46.3769 77.9007 46.1104 77.7709 45.8196C77.5911 45.1307 77.5911 44.4079 77.7709 43.719C77.9007 43.4281 78.0802 43.1616 78.3018 42.9313L79.0981 42.4061H80.8233L81.4869 42.6687L81.2215 43.719C81.1596 43.6374 81.0795 43.5713 80.9874 43.5257C80.8952 43.4801 80.7936 43.4564 80.6906 43.4564H80.027C79.8525 43.4509 79.6789 43.4833 79.5183 43.5513C79.3578 43.6194 79.2144 43.7214 79.0981 43.8503C78.9121 44.169 78.8202 44.5328 78.8326 44.9006C78.8326 45.4257 78.9653 45.8196 79.2308 45.9508C79.3195 46.0772 79.439 46.1795 79.5781 46.2483C79.7173 46.3171 79.8716 46.3502 80.027 46.3447H80.6906L81.3542 46.0821L81.4869 46.7386ZM85.0702 47.1324H83.6103L83.2122 46.8698C82.9467 46.8698 82.9467 46.6073 82.814 46.476C82.6879 46.2815 82.6405 46.0471 82.6813 45.8196V43.3251H82.0177V42.4061H82.6813V40.8307H83.8757V42.5374H84.9374V43.4564H83.743V45.6883C83.743 45.9508 83.743 46.0821 83.8757 46.2134H84.8047L85.0702 47.1324ZM92.104 46.6073L91.3077 47.1324H89.317C89.1548 47.1039 89.0004 47.0426 88.8634 46.9522C88.7263 46.8618 88.6096 46.7444 88.5207 46.6073C88.2758 46.4519 88.0893 46.2213 87.9898 45.9508C87.8811 45.5667 87.8363 45.1676 87.8571 44.7693C87.8249 44.4138 87.8702 44.0556 87.9898 43.719L88.388 42.9313L89.1842 42.4061H89.9805L90.9095 42.6687C91.0544 42.6977 91.1902 42.7605 91.3056 42.8518C91.421 42.9431 91.5127 43.0604 91.5731 43.1938C91.7005 43.2483 91.8075 43.3409 91.8789 43.4587C91.9504 43.5764 91.9826 43.7134 91.9712 43.8503C92.0805 44.1893 92.1255 44.5454 92.104 44.9006H89.0516C89.0438 45.093 89.075 45.2851 89.1433 45.4655C89.2117 45.6459 89.3159 45.8109 89.4497 45.9508L90.3787 46.2134H91.1749L91.9712 45.6883L92.104 46.6073ZM89.9805 43.0625C89.7151 43.0625 89.5824 43.1938 89.317 43.4564C89.2209 43.563 89.1479 43.6878 89.1022 43.8232C89.0566 43.9587 89.0394 44.1019 89.0516 44.2441H90.9095C90.9217 44.1019 90.9045 43.9587 90.8588 43.8232C90.8132 43.6878 90.7401 43.563 90.6441 43.4564C90.589 43.3303 90.4954 43.2245 90.3764 43.1539C90.2574 43.0832 90.1189 43.0513 89.9805 43.0625ZM98.8723 47.1324V43.9816C98.8723 43.8503 98.7396 43.719 98.7396 43.5877L98.2088 43.3251H97.6779C97.5452 43.4564 97.2798 43.5877 97.147 43.8503V47.0011H95.9526V43.8503C95.9587 43.7791 95.9501 43.7075 95.9273 43.6398C95.9045 43.5721 95.8679 43.5097 95.8199 43.4564L95.4218 43.1938H94.7582L94.2274 43.719V46.8698H93.033V42.1435H94.0947V42.8L94.7582 42.2748L95.6872 42.0123L96.4835 42.2748C96.6162 42.4061 96.8816 42.5374 96.8816 42.8L97.6779 42.2748L98.4742 42.0123C98.6696 41.9963 98.8661 42.0233 99.0497 42.0914C99.2333 42.1595 99.3993 42.267 99.5359 42.4061C99.6697 42.5461 99.7739 42.7111 99.8423 42.8915C99.9106 43.0718 99.9418 43.2639 99.934 43.4564V46.8698L98.8723 47.1324ZM105.508 44.7693C105.54 45.1247 105.495 45.4829 105.375 45.8196C105.246 46.1104 105.066 46.3769 104.844 46.6073L104.181 47.1324H102.323C102.05 47.034 101.816 46.8495 101.659 46.6073C101.438 46.3769 101.258 46.1104 101.128 45.8196C100.954 45.13 100.954 44.4086 101.128 43.719C101.258 43.4281 101.438 43.1616 101.659 42.9313L102.323 42.4061H104.181L104.844 42.9313C105.066 43.1616 105.246 43.4281 105.375 43.719C105.495 44.0556 105.54 44.4138 105.508 44.7693ZM104.314 44.7693C104.304 44.4042 104.213 44.0456 104.048 43.719C103.783 43.4564 103.517 43.1938 103.252 43.1938C103.083 43.2017 102.92 43.2547 102.78 43.3472C102.64 43.4397 102.528 43.5682 102.456 43.719C102.281 44.0422 102.19 44.4029 102.19 44.7693C102.19 45.1356 102.281 45.4963 102.456 45.8196C102.528 45.9703 102.64 46.0989 102.78 46.1914C102.92 46.2839 103.083 46.3369 103.252 46.3447C103.339 46.3638 103.429 46.3652 103.517 46.3489C103.605 46.3326 103.689 46.2989 103.763 46.2499C103.837 46.2009 103.901 46.1375 103.95 46.0635C103.999 45.9896 104.032 45.9066 104.048 45.8196C104.213 45.4929 104.304 45.1344 104.314 44.7693ZM107.897 40.962C107.897 41.0933 107.764 41.2245 107.631 41.3558L107.101 41.6184L106.57 41.3558C106.522 41.3025 106.485 41.2401 106.462 41.1724C106.44 41.1047 106.431 41.0331 106.437 40.962C106.437 40.6994 106.437 40.5681 106.57 40.4368L107.101 40.1743L107.631 40.4368C107.714 40.498 107.781 40.5773 107.827 40.6684C107.873 40.7596 107.897 40.8601 107.897 40.962ZM107.764 47.5263C107.764 48.0514 107.631 48.4453 107.366 48.5766C107.204 48.7191 107.015 48.8275 106.81 48.8952C106.604 48.9629 106.387 48.9885 106.172 48.9704H105.773V47.9201H106.57C106.57 47.7888 106.702 47.6576 106.702 47.395V42.4061H107.897L107.764 47.5263ZM110.418 40.962C110.418 41.0933 110.286 41.2245 110.153 41.3558L109.622 41.6184L109.091 41.3558C109.043 41.3025 109.007 41.2401 108.984 41.1724C108.961 41.1047 108.952 41.0331 108.959 40.962C108.959 40.6994 108.959 40.5681 109.091 40.4368L109.622 40.1743L110.153 40.4368C110.235 40.498 110.302 40.5773 110.348 40.6684C110.394 40.7596 110.418 40.8601 110.418 40.962ZM109.091 47.1324V42.4061H110.286V47.1324H109.091Z" fill="#A3A6AA"/>
<path d="M390.975 66.9555C390.975 66.6073 391.114 66.2733 391.363 66.0271C391.612 65.7809 391.95 65.6426 392.302 65.6426C392.47 65.6416 392.637 65.6759 392.792 65.7433C392.946 65.8107 393.084 65.9097 393.197 66.0337C393.31 66.1577 393.395 66.304 393.446 66.4629C393.498 66.6218 393.515 66.7896 393.496 66.9555V131.68C393.496 131.993 393.37 132.293 393.146 132.515C392.922 132.737 392.619 132.861 392.302 132.861C391.972 132.863 391.653 132.743 391.407 132.524C391.162 132.306 391.008 132.004 390.975 131.68V66.9555Z" fill="#2F3136"/>
<path d="M392.302 65.6426C392.47 65.6416 392.637 65.6759 392.792 65.7433C392.946 65.8107 393.084 65.9097 393.197 66.0337C393.31 66.1577 393.395 66.304 393.446 66.4629C393.498 66.6218 393.515 66.7896 393.496 66.9555V126.165C393.496 126.479 393.37 126.779 393.146 127.001C392.922 127.223 392.619 127.347 392.302 127.347C391.972 127.349 391.653 127.229 391.407 127.01C391.162 126.792 391.008 126.49 390.975 126.165V66.9555C390.975 66.6073 391.114 66.2733 391.363 66.0271C391.612 65.7809 391.95 65.6426 392.302 65.6426Z" fill="#202225"/>
<path d="M3.98242 63.1484H38.886V197.06H8.89281C7.57843 197.026 6.32954 196.485 5.41229 195.553C4.49503 194.622 3.98197 193.372 3.98242 192.071V63.1484Z" fill="#202225"/>
<path d="M11 109H31.0397V109.525H11V109Z" fill="#4F545C" fill-opacity="0.48"/>
<path fill-rule="evenodd" clip-rule="evenodd" d="M21.0199 130.943C24.5638 130.943 27.4366 128.07 27.4366 124.526C27.4366 120.982 24.5638 118.109 21.0199 118.109C17.4761 118.109 14.6033 120.982 14.6033 124.526C14.6033 128.07 17.4761 130.943 21.0199 130.943ZM22.4783 125.984C22.8004 125.984 23.07 126.251 22.9793 126.56C22.7308 127.407 21.9476 128.026 21.0199 128.026C20.0922 128.026 19.3091 127.407 19.0605 126.56C18.9699 126.251 19.2394 125.984 19.5616 125.984H22.4783ZM16.9982 123.099C17.1423 122.81 17.4927 122.694 17.7808 122.838L19.5308 123.713C19.7284 123.811 19.8533 124.013 19.8533 124.234C19.8533 124.455 19.7284 124.657 19.5308 124.756L17.7808 125.631C17.4927 125.775 17.1423 125.658 16.9982 125.37C16.8541 125.082 16.9709 124.732 17.2591 124.588L17.9656 124.234L17.2591 123.881C16.9709 123.737 16.8541 123.387 16.9982 123.099ZM24.2591 122.838C24.5472 122.694 24.8976 122.81 25.0417 123.099C25.1858 123.387 25.069 123.737 24.7808 123.881L24.0743 124.234L24.7808 124.588C25.069 124.732 25.1858 125.082 25.0417 125.37C24.8976 125.658 24.5472 125.775 24.2591 125.631L22.5091 124.756C22.3114 124.657 22.1866 124.455 22.1866 124.234C22.1866 124.013 22.3114 123.811 22.5091 123.713L24.2591 122.838Z" fill="#B9BBBE"/>
<path d="M19.7367 148.043C19.4719 148.226 19.2067 148.392 18.9402 148.559L18.9243 148.569C18.7032 148.707 18.483 148.845 18.2554 148.996C17.7613 149.324 17.2734 149.697 16.8574 150.214C16.7082 150.4 16.5707 150.601 16.4459 150.822C16.4459 150.821 16.4459 150.822 16.4459 150.822C16.2198 151.221 16.0354 151.684 15.8982 152.232C15.8201 152.544 16.01 152.861 16.3226 152.939C16.6351 153.018 16.9518 152.828 17.03 152.515C17.1004 152.234 17.1836 151.987 17.2774 151.769C18.4296 151.814 22.5538 151.748 24.7018 148.656C26.738 145.725 26.3863 142.728 25.8752 140.554C25.7636 140.079 25.1389 139.965 24.7968 140.307C23.7473 141.357 22.6417 141.658 21.4861 141.973C20.1225 142.345 18.6894 142.736 17.1966 144.397C15.6183 146.153 15.6018 148.045 15.9592 149.47C16.4814 148.824 17.0776 148.378 17.6105 148.024C17.8519 147.864 18.084 147.719 18.3027 147.582L18.3054 147.58C19.0829 147.093 19.7151 146.695 20.3711 145.93C20.5808 145.685 20.949 145.657 21.1936 145.867C21.4382 146.076 21.4664 146.445 21.2567 146.689C21.2057 146.749 21.1547 146.806 21.1038 146.862C20.6501 147.36 20.1942 147.727 19.7367 148.043Z" fill="#B9BBBE"/>
<path d="M11 161.525H31.0397V162.051H11V161.525Z" fill="#4F545C" fill-opacity="0.48"/>
<path fill-rule="evenodd" clip-rule="evenodd" d="M21.0199 183.468C24.5638 183.468 27.4366 180.595 27.4366 177.051C27.4366 173.508 24.5638 170.635 21.0199 170.635C17.4761 170.635 14.6033 173.508 14.6033 177.051C14.6033 180.595 17.4761 183.468 21.0199 183.468ZM23.1712 178.218C23.6465 178.218 24.0441 178.599 23.9104 179.04C23.5438 180.251 22.3884 181.135 21.0199 181.135C19.6514 181.135 18.4961 180.251 18.1295 179.04C17.9958 178.599 18.3934 178.218 18.8687 178.218H23.1712ZM18.6866 176.176C18.6866 176.982 18.2949 177.635 17.8116 177.635C17.3284 177.635 16.9366 176.982 16.9366 176.176C16.9366 175.371 17.3284 174.718 17.8116 174.718C18.2949 174.718 18.6866 175.371 18.6866 176.176ZM24.2283 177.635C24.7115 177.635 25.1033 176.982 25.1033 176.176C25.1033 175.371 24.7115 174.718 24.2283 174.718C23.745 174.718 23.3533 175.371 23.3533 176.176C23.3533 176.982 23.745 177.635 24.2283 177.635Z" fill="#B9BBBE"/>
<path d="M26.2784 73.127H16.4577C13.6724 73.127 11.4146 75.3605 11.4146 78.1158V87.8835C11.4146 90.6388 13.6724 92.8724 16.4577 92.8724H26.2784C29.0637 92.8724 31.3216 90.6388 31.3216 87.8835V78.1158C31.3216 75.3605 29.0637 73.127 26.2784 73.127Z" fill="#4F545C" fill-opacity="0.6"/>
<path d="M20.3086 77.6683C20.5262 76.9986 21.4737 76.9986 21.6913 77.6683L22.7952 81.0657H26.3674C27.0716 81.0657 27.3644 81.9668 26.7947 82.3807L23.9047 84.4804L25.0086 87.8778C25.2262 88.5476 24.4597 89.1045 23.89 88.6906L21 86.5908L18.1099 88.6906C17.5403 89.1045 16.7737 88.5476 16.9913 87.8778L18.0952 84.4804L15.2052 82.3807C14.6355 81.9668 14.9283 81.0657 15.6325 81.0657H19.2047L20.3086 77.6683Z" fill="white"/>
<path d="M378.098 41.7636C378.228 41.6335 378.439 41.6335 378.569 41.7636L381 44.1946L383.431 41.7636C383.561 41.6335 383.772 41.6335 383.902 41.7636C384.033 41.8938 384.033 42.1049 383.902 42.2351L381.236 44.9017C381.106 45.0319 380.894 45.0319 380.764 44.9017L378.098 42.2351C377.967 42.1049 377.967 41.8938 378.098 41.7636Z" fill="#B9BBBE"/>
<path fill-rule="evenodd" clip-rule="evenodd" d="M339.614 20.218L339.216 22.8437C339.216 23.5001 338.42 23.7627 337.756 23.7627C337.093 23.7627 336.562 23.5001 336.695 22.8437L337.093 20.218C337.205 19.9308 337.408 19.6867 337.67 19.5214C337.933 19.3561 338.242 19.2781 338.553 19.2989C339.216 19.2989 339.747 19.6928 339.614 20.218ZM338.818 17.5922H334.571C334.536 17.5922 334.502 17.6061 334.477 17.6307C334.452 17.6553 334.438 17.6887 334.438 17.7235L334.173 19.1677H335.235C335.27 19.1677 335.304 19.1815 335.329 19.2061C335.354 19.2307 335.367 19.2641 335.367 19.2989C335.367 19.3338 335.354 19.3672 335.329 19.3918C335.304 19.4164 335.27 19.4302 335.235 19.4302C335.177 19.6462 335.133 19.8654 335.102 20.0867L334.704 22.7124C334.438 24.5504 335.898 25.4694 337.624 25.4694C338.463 25.5463 339.301 25.3041 339.966 24.792C340.632 24.2799 341.076 23.5363 341.207 22.7124L341.605 20.0867C341.87 18.5112 340.411 17.5922 338.818 17.5922ZM313.735 21.0057V22.3185L313.204 20.7431L311.877 17.5922C311.877 17.5574 311.863 17.524 311.838 17.4994C311.813 17.4748 311.78 17.4609 311.745 17.4609H310.152C310.019 17.4609 310.019 17.4609 310.019 17.5922L308.958 24.9443V25.2068H310.55C310.683 25.2068 310.683 25.0755 310.815 24.9443L311.214 22.056V20.7431H311.346L311.745 22.1872L313.072 25.2068H314.93V25.0755L315.991 17.7235H314.266C314.133 17.7235 314.001 17.7235 314.001 17.8548L313.602 21.137L313.735 21.0057ZM316.655 25.3381H318.247C318.318 25.3381 318.385 25.3104 318.435 25.2612C318.485 25.212 318.513 25.1452 318.513 25.0755L319.575 17.8548C319.575 17.7852 319.547 17.7184 319.497 17.6691C319.447 17.6199 319.38 17.5922 319.309 17.5922H317.717C317.584 17.5922 317.451 17.5922 317.451 17.7235L316.389 25.0755L316.655 25.3381ZM320.636 17.7235V19.0364C320.636 19.1677 320.636 19.2989 320.769 19.2989H322.494C322.627 19.2989 322.76 19.4302 322.627 19.5615L321.963 25.0755C321.963 25.2068 321.963 25.3381 322.096 25.3381H323.689C323.759 25.3381 323.827 25.3104 323.876 25.2612C323.926 25.212 323.954 25.1452 323.954 25.0755L324.75 19.5615L325.016 19.2989H327.007V17.9861L326.741 17.7235H320.902C320.769 17.5922 320.636 17.5922 320.636 17.7235ZM331.784 20.218C331.784 20.4617 331.686 20.6954 331.512 20.8678C331.338 21.0401 331.102 21.137 330.855 21.137H329.926C329.856 21.137 329.788 21.1093 329.739 21.06C329.689 21.0108 329.661 20.944 329.661 20.8744V19.5615H330.855C331.652 19.4302 331.917 19.8241 331.784 20.218ZM331.253 17.5922H328.334C328.201 17.5922 328.068 17.5922 328.068 17.7235L327.007 25.0755L327.272 25.3381H328.865C328.997 25.3381 328.997 25.2068 328.997 25.0755L329.395 22.975C329.395 22.8437 329.395 22.8437 329.528 22.8437H329.794L331.253 25.2068H333.377C333.642 25.2068 333.642 24.9443 333.642 24.813L332.05 22.5811C331.917 22.5811 332.05 22.4498 332.05 22.4498C332.548 22.2614 332.985 21.9416 333.312 21.525C333.64 21.1083 333.846 20.6109 333.908 20.0867C334.04 18.3799 332.979 17.5922 331.253 17.5922Z" fill="#B9BBBE"/>
<path d="M344.127 13.7852H306.569C304.736 13.7852 303.251 15.2546 303.251 17.0673V25.3121C303.251 27.1248 304.736 28.5942 306.569 28.5942H344.127C345.959 28.5942 347.445 27.1248 347.445 25.3121V17.0673C347.445 15.2546 345.959 13.7852 344.127 13.7852Z" fill="url(#paint0_linear_26218_65475)"/>
<path fill-rule="evenodd" clip-rule="evenodd" d="M339.614 20.218L339.216 22.8437C339.216 23.5001 338.42 23.7627 337.756 23.7627C337.093 23.7627 336.562 23.5001 336.695 22.8437L337.093 20.218C337.205 19.9308 337.408 19.6867 337.67 19.5214C337.933 19.3561 338.242 19.2781 338.553 19.2989C339.216 19.2989 339.747 19.6928 339.614 20.218ZM338.818 17.5922H334.571C334.536 17.5922 334.502 17.6061 334.477 17.6307C334.452 17.6553 334.438 17.6887 334.438 17.7235L334.173 19.1677H335.235C335.27 19.1677 335.304 19.1815 335.329 19.2061C335.354 19.2307 335.367 19.2641 335.367 19.2989C335.367 19.3338 335.354 19.3672 335.329 19.3918C335.304 19.4164 335.27 19.4302 335.235 19.4302C335.177 19.6462 335.133 19.8654 335.102 20.0867L334.704 22.7124C334.438 24.5504 335.898 25.4694 337.624 25.4694C338.463 25.5463 339.301 25.3041 339.966 24.792C340.632 24.2799 341.076 23.5363 341.207 22.7124L341.605 20.0867C341.87 18.5112 340.411 17.5922 338.818 17.5922ZM313.735 21.0057V22.3185L313.204 20.7431L311.877 17.5922C311.877 17.5574 311.863 17.524 311.838 17.4994C311.813 17.4748 311.78 17.4609 311.745 17.4609H310.152C310.019 17.4609 310.019 17.4609 310.019 17.5922L308.958 24.9443V25.2068H310.55C310.683 25.2068 310.683 25.0755 310.815 24.9443L311.214 22.056V20.7431H311.346L311.745 22.1872L313.072 25.2068H314.93V25.0755L315.991 17.7235H314.266C314.133 17.7235 314.001 17.7235 314.001 17.8548L313.602 21.137L313.735 21.0057ZM316.655 25.3381H318.247C318.318 25.3381 318.385 25.3104 318.435 25.2612C318.485 25.212 318.513 25.1452 318.513 25.0755L319.575 17.8548C319.575 17.7852 319.547 17.7184 319.497 17.6691C319.447 17.6199 319.38 17.5922 319.309 17.5922H317.717C317.584 17.5922 317.451 17.5922 317.451 17.7235L316.389 25.0755L316.655 25.3381ZM320.636 17.7235V19.0364C320.636 19.1677 320.636 19.2989 320.769 19.2989H322.494C322.627 19.2989 322.76 19.4302 322.627 19.5615L321.963 25.0755C321.963 25.2068 321.963 25.3381 322.096 25.3381H323.689C323.759 25.3381 323.827 25.3104 323.876 25.2612C323.926 25.212 323.954 25.1452 323.954 25.0755L324.75 19.5615L325.016 19.2989H327.007V17.9861L326.741 17.7235H320.902C320.769 17.5922 320.636 17.5922 320.636 17.7235ZM331.784 20.218C331.784 20.4617 331.686 20.6954 331.512 20.8678C331.338 21.0401 331.102 21.137 330.855 21.137H329.926C329.856 21.137 329.788 21.1093 329.739 21.06C329.689 21.0108 329.661 20.944 329.661 20.8744V19.5615H330.855C331.652 19.4302 331.917 19.8241 331.784 20.218ZM331.253 17.5922H328.334C328.201 17.5922 328.068 17.5922 328.068 17.7235L327.007 25.0755L327.272 25.3381H328.865C328.997 25.3381 328.997 25.2068 328.997 25.0755L329.395 22.975C329.395 22.8437 329.395 22.8437 329.528 22.8437H329.794L331.253 25.2068H333.377C333.642 25.2068 333.642 24.9443 333.642 24.813L332.05 22.5811C331.917 22.5811 332.05 22.4498 332.05 22.4498C332.548 22.2614 332.985 21.9416 333.312 21.525C333.64 21.1083 333.846 20.6109 333.908 20.0867C334.04 18.3799 332.979 17.5922 331.253 17.5922Z" fill="white"/>
<path d="M228.534 101.354H230.259C231.174 101.354 232.052 101.714 232.699 102.354C233.346 102.994 233.71 103.862 233.71 104.767V107.393C233.71 108.298 233.346 109.167 232.699 109.807C232.052 110.447 231.174 110.807 230.259 110.807H228.534V101.223V101.354Z" fill="#AABFF2"/>
<path d="M230.392 103.98H229.463C228.51 103.98 227.737 104.745 227.737 105.687V106.672C227.737 107.614 228.51 108.379 229.463 108.379H230.392C231.344 108.379 232.117 107.614 232.117 106.672V105.687C232.117 104.745 231.344 103.98 230.392 103.98Z" fill="#7D94DF"/>
<path d="M200 110.676H198.275C197.36 110.676 196.482 110.316 195.835 109.676C195.188 109.036 194.824 108.168 194.824 107.262V104.768C194.824 103.863 195.188 102.994 195.835 102.354C196.482 101.714 197.36 101.354 198.275 101.354H200V110.545V110.676Z" fill="#AABFF2"/>
<path d="M199.071 104.111H198.275C197.322 104.111 196.549 104.875 196.549 105.818V106.593C196.549 107.535 197.322 108.299 198.275 108.299H199.071C200.024 108.299 200.796 107.535 200.796 106.593V105.818C200.796 104.875 200.024 104.111 199.071 104.111Z" fill="#7D94DF"/>
<path d="M223.756 97.2832H205.043C201.305 97.2832 198.275 100.281 198.275 103.979V112.368C198.275 116.066 201.305 119.064 205.043 119.064H223.756C227.494 119.064 230.524 116.066 230.524 112.368V103.979C230.524 100.281 227.494 97.2832 223.756 97.2832Z" fill="#AABFF2"/>
<path d="M218.58 109.102H210.219C209.266 109.102 208.494 109.851 208.494 110.775C208.494 111.7 209.266 112.449 210.219 112.449H218.58C219.533 112.449 220.305 111.7 220.305 110.775C220.305 109.851 219.533 109.102 218.58 109.102Z" fill="#697EC4"/>
<path d="M201.858 104.242H201.593C201.478 104.203 201.374 104.137 201.289 104.052C201.204 103.966 201.139 103.862 201.101 103.748C201.063 103.634 201.051 103.513 201.067 103.394C201.083 103.274 201.127 103.161 201.195 103.061C201.463 102.518 201.878 102.06 202.393 101.735C202.908 101.411 203.504 101.234 204.114 101.223C204.513 101.091 204.911 101.485 204.911 102.01C204.911 102.536 204.645 102.798 204.114 102.798C203.805 102.847 203.511 102.968 203.257 103.15C203.004 103.333 202.797 103.572 202.655 103.848C202.577 103.985 202.459 104.096 202.317 104.166C202.175 104.236 202.016 104.263 201.858 104.242Z" fill="#36393E"/>
<path d="M227.074 103.98H227.472C227.565 103.916 227.644 103.833 227.703 103.736C227.761 103.639 227.798 103.531 227.81 103.419C227.823 103.307 227.811 103.194 227.775 103.087C227.74 102.98 227.682 102.881 227.604 102.798C227.201 102.335 226.684 101.983 226.103 101.776C225.521 101.569 224.896 101.514 224.287 101.617C224.181 101.633 224.081 101.669 223.99 101.724C223.899 101.779 223.821 101.852 223.759 101.938C223.697 102.023 223.653 102.12 223.63 102.223C223.606 102.326 223.604 102.432 223.623 102.536C223.756 102.93 224.154 103.324 224.552 103.192C224.873 103.129 225.206 103.156 225.511 103.273C225.817 103.389 226.082 103.589 226.277 103.849C226.377 103.954 226.509 104.024 226.653 104.048C226.797 104.072 226.945 104.048 227.074 103.98Z" fill="#36393E"/>
<path d="M209.29 95.1836H219.509C220.424 95.1836 221.302 95.5432 221.949 96.1834C222.596 96.8235 222.959 97.6917 222.959 98.597V99.3848C222.959 101.161 222.246 102.864 220.977 104.119C219.708 105.375 217.986 106.08 216.191 106.08H212.741C211.852 106.08 210.972 105.907 210.15 105.571C209.329 105.234 208.583 104.741 207.955 104.119C207.326 103.498 206.828 102.759 206.487 101.947C206.147 101.135 205.972 100.264 205.972 99.3848V98.597C205.972 97.6917 206.336 96.8235 206.983 96.1834C207.63 95.5432 208.508 95.1836 209.423 95.1836H209.29Z" fill="#CBDAF7"/>
<path d="M217.916 101.092H216.058C215.619 101.092 215.262 101.444 215.262 101.88V101.985C215.262 102.42 215.619 102.772 216.058 102.772H217.916C218.356 102.772 218.713 102.42 218.713 101.985V101.88C218.713 101.444 218.356 101.092 217.916 101.092Z" fill="#AABFF2"/>
<path d="M212.608 101.092H210.75C210.31 101.092 209.954 101.444 209.954 101.88V101.985C209.954 102.42 210.31 102.772 210.75 102.772H212.608C213.048 102.772 213.404 102.42 213.404 101.985V101.88C213.404 101.444 213.048 101.092 212.608 101.092Z" fill="#AABFF2"/>
<path d="M211.015 109.1H217.783L221.101 119.996H207.564L211.015 109.1Z" fill="#FFCD3E"/>
<path d="M207.963 121.703H220.571C221.304 121.703 221.898 121.142 221.898 120.449C221.898 119.757 221.304 119.196 220.571 119.196H207.963C207.23 119.196 206.636 119.757 206.636 120.449C206.636 121.142 207.23 121.703 207.963 121.703Z" fill="#F69100"/>
<path d="M218.447 116.057C219.84 116.057 220.969 114.94 220.969 113.563C220.969 112.185 219.84 111.068 218.447 111.068C217.055 111.068 215.926 112.185 215.926 113.563C215.926 114.94 217.055 116.057 218.447 116.057Z" fill="#FF6440"/>
<path d="M209.555 117.633C210.948 117.633 212.077 116.517 212.077 115.139C212.077 113.761 210.948 112.645 209.555 112.645C208.163 112.645 207.034 113.761 207.034 115.139C207.034 116.517 208.163 117.633 209.555 117.633Z" fill="#FF6440"/>
<path d="M213.271 111.594C214.664 111.594 215.793 110.478 215.793 109.1C215.793 107.722 214.664 106.605 213.271 106.605C211.879 106.605 210.75 107.722 210.75 109.1C210.75 110.478 211.879 111.594 213.271 111.594Z" fill="#FF6440"/>
<path d="M207.963 115.797H204.91C203.298 115.797 201.991 117.09 201.991 118.685V118.803C201.991 120.398 203.298 121.692 204.91 121.692H207.963C209.575 121.692 210.883 120.398 210.883 118.803V118.685C210.883 117.09 209.575 115.797 207.963 115.797Z" fill="#CBDAF7"/>
<path d="M224.287 115.797H221.234C219.622 115.797 218.314 117.09 218.314 118.685V118.803C218.314 120.398 219.622 121.692 221.234 121.692H224.287C225.899 121.692 227.206 120.398 227.206 118.803V118.685C227.206 117.09 225.899 115.797 224.287 115.797Z" fill="#CBDAF7"/>
<path d="M178.236 100.7H180.624C181.469 100.7 182.279 101.032 182.877 101.623C183.474 102.213 183.81 103.015 183.81 103.851V108.708C183.81 109.544 183.474 110.345 182.877 110.936C182.279 111.527 181.469 111.859 180.624 111.859H178.236V100.568V100.7Z" fill="#AABFF2"/>
<path d="M180.758 103.062H179.032C178.153 103.062 177.44 103.768 177.44 104.638V107.907C177.44 108.777 178.153 109.482 179.032 109.482H180.758C181.637 109.482 182.35 108.777 182.35 107.907V104.638C182.35 103.768 181.637 103.062 180.758 103.062Z" fill="#7D94DF"/>
<path d="M150.632 111.859H148.243C147.398 111.859 146.588 111.527 145.991 110.936C145.393 110.345 145.058 109.544 145.058 108.708V103.851C145.058 103.015 145.393 102.213 145.991 101.623C146.588 101.032 147.398 100.7 148.243 100.7H150.632V111.99V111.859Z" fill="#AABFF2"/>
<path d="M149.968 103.062H148.243C147.363 103.062 146.65 103.768 146.65 104.638V107.907C146.65 108.777 147.363 109.482 148.243 109.482H149.968C150.848 109.482 151.561 108.777 151.561 107.907V104.638C151.561 103.768 150.848 103.062 149.968 103.062Z" fill="#7D94DF"/>
<path d="M173.325 96.498H155.542C151.95 96.498 149.039 99.3782 149.039 102.931V112.541C149.039 116.094 151.95 118.974 155.542 118.974H173.325C176.917 118.974 179.828 116.094 179.828 112.541V102.931C179.828 99.3782 176.917 96.498 173.325 96.498Z" fill="#AABFF2"/>
<path d="M159.656 102.8H169.344C170.189 102.8 170.999 103.132 171.596 103.722C172.194 104.313 172.529 105.115 172.529 105.95V107.526C172.529 109.232 171.844 110.868 170.625 112.075C169.405 113.281 167.751 113.959 166.026 113.959H162.841C161.116 113.959 159.462 113.281 158.243 112.075C157.023 110.868 156.338 109.232 156.338 107.526V105.95C156.338 105.525 156.424 105.105 156.593 104.714C156.761 104.322 157.007 103.969 157.317 103.675C157.627 103.38 157.994 103.151 158.396 103.001C158.798 102.85 159.227 102.782 159.656 102.8Z" fill="#CBDAF7"/>
<path d="M165.23 115.402H163.637C163.198 115.402 162.841 115.755 162.841 116.19V116.216C162.841 116.651 163.198 117.004 163.637 117.004H165.23C165.67 117.004 166.026 116.651 166.026 116.216V116.19C166.026 115.755 165.67 115.402 165.23 115.402Z" fill="#697EC4"/>
<path d="M167.751 110.021H166.159C165.719 110.021 165.363 110.374 165.363 110.809V110.835C165.363 111.271 165.719 111.623 166.159 111.623H167.751C168.191 111.623 168.548 111.271 168.548 110.835V110.809C168.548 110.374 168.191 110.021 167.751 110.021Z" fill="#AABFF2"/>
<path d="M162.576 110.021H160.983C160.543 110.021 160.187 110.374 160.187 110.809V110.835C160.187 111.271 160.543 111.623 160.983 111.623H162.576C163.015 111.623 163.372 111.271 163.372 110.835V110.809C163.372 110.374 163.015 110.021 162.576 110.021Z" fill="#AABFF2"/>
<path d="M152.888 108.837C152.088 108.806 151.33 108.478 150.764 107.918C150.694 107.798 150.657 107.663 150.657 107.524C150.657 107.386 150.694 107.25 150.764 107.131C150.888 107.01 151.055 106.943 151.229 106.943C151.402 106.943 151.569 107.01 151.693 107.131C152.038 107.386 152.457 107.524 152.888 107.524C153.318 107.524 153.737 107.386 154.082 107.131C154.347 106.868 154.746 106.868 154.878 107.131C155.011 107.393 155.144 107.787 154.878 107.918C154.627 108.197 154.321 108.422 153.978 108.58C153.636 108.738 153.265 108.825 152.888 108.837Z" fill="#333132"/>
<path d="M175.98 108.837C175.602 108.825 175.231 108.738 174.889 108.58C174.547 108.422 174.24 108.197 173.989 107.918C173.723 107.787 173.723 107.393 173.989 107.131C174.254 106.868 174.52 106.868 174.785 107.131C175.13 107.386 175.549 107.524 175.98 107.524C176.41 107.524 176.829 107.386 177.174 107.131C177.298 107.01 177.465 106.943 177.638 106.943C177.812 106.943 177.979 107.01 178.103 107.131C178.189 107.244 178.236 107.382 178.236 107.524C178.236 107.666 178.189 107.805 178.103 107.918C177.537 108.478 176.779 108.806 175.98 108.837Z" fill="#333132"/>
<path d="M172.795 98.0731V97.8105L174.653 95.3161C174.703 95.2614 174.736 95.194 174.749 95.1216C174.762 95.0491 174.754 94.9745 174.727 94.9061C174.699 94.8378 174.653 94.7784 174.593 94.7349C174.533 94.6913 174.461 94.6653 174.387 94.6597H173.326C173.185 94.6597 173.05 94.6043 172.95 94.5059C172.851 94.4074 172.795 94.2738 172.795 94.1345C172.795 93.9953 172.851 93.8617 172.95 93.7632C173.05 93.6647 173.185 93.6094 173.326 93.6094H175.98C176.191 93.6094 176.394 93.6924 176.543 93.8401C176.692 93.9878 176.776 94.1882 176.776 94.3971V94.791L174.918 97.1541C174.868 97.2088 174.835 97.2762 174.822 97.3486C174.809 97.4211 174.817 97.4957 174.844 97.5641C174.872 97.6324 174.918 97.6918 174.978 97.7353C175.038 97.7789 175.109 97.8049 175.184 97.8105H176.378C176.519 97.8105 176.654 97.8659 176.753 97.9643C176.853 98.0628 176.909 98.1964 176.909 98.3357C176.909 98.475 176.853 98.6085 176.753 98.707C176.654 98.8055 176.519 98.8608 176.378 98.8608H173.591C173.486 98.8608 173.383 98.8404 173.286 98.8009C173.19 98.7613 173.102 98.7032 173.028 98.6301C172.954 98.557 172.895 98.4701 172.855 98.3745C172.815 98.279 172.795 98.1766 172.795 98.0731Z" fill="#88A1F2"/>
<path d="M177.572 96.2349C177.566 96.1638 177.575 96.0922 177.597 96.0245C177.62 95.9567 177.657 95.8943 177.705 95.841L180.226 92.4276C180.311 92.3546 180.37 92.2569 180.395 92.1486C180.42 92.0402 180.41 91.9268 180.366 91.8246C180.322 91.7224 180.246 91.6367 180.149 91.58C180.052 91.5232 179.94 91.4982 179.828 91.5086H178.368C178.192 91.5086 178.024 91.4394 177.899 91.3163C177.775 91.1932 177.705 91.0263 177.705 90.8522C177.702 90.6641 177.768 90.4813 177.889 90.3369C178.011 90.1924 178.181 90.0958 178.368 90.0645H182.084C182.356 90.093 182.61 90.2128 182.803 90.4039C182.996 90.5951 183.117 90.846 183.146 91.1147V91.6399L180.492 94.922C180.369 94.9917 180.278 95.1069 180.241 95.2423C180.204 95.3777 180.222 95.5222 180.293 95.6441C180.363 95.766 180.48 95.8552 180.616 95.8921C180.753 95.929 180.899 95.9107 181.023 95.841H182.615C182.803 95.8724 182.973 95.969 183.094 96.1135C183.216 96.2579 183.281 96.4407 183.279 96.6288C183.279 96.8029 183.209 96.9698 183.084 97.0929C182.96 97.216 182.791 97.2852 182.615 97.2852H178.767C178.616 97.3039 178.464 97.2907 178.319 97.2463C178.175 97.202 178.042 97.1276 177.928 97.0281C177.815 96.9287 177.725 96.8065 177.664 96.6696C177.602 96.5328 177.571 96.3846 177.572 96.2349Z" fill="#88A1F2"/>
<path d="M78.3018 100.305H80.8233C81.7032 100.305 82.5471 100.65 83.1694 101.266C83.7916 101.882 84.1411 102.716 84.1411 103.587V108.444C84.1411 109.315 83.7916 110.15 83.1694 110.765C82.5471 111.381 81.7032 111.727 80.8233 111.727H78.3018V100.305Z" fill="#AABFF2"/>
<path d="M80.8232 102.799H79.0979C78.2184 102.799 77.5054 103.504 77.5054 104.374V107.788C77.5054 108.658 78.2184 109.363 79.0979 109.363H80.8232C81.7028 109.363 82.4158 108.658 82.4158 107.788V104.374C82.4158 103.504 81.7028 102.799 80.8232 102.799Z" fill="#7D94DF"/>
<path d="M50.9629 111.727H48.4413C47.5614 111.727 46.7175 111.381 46.0953 110.765C45.4731 110.15 45.1235 109.315 45.1235 108.444V103.587C45.1235 102.716 45.4731 101.882 46.0953 101.266C46.7175 100.65 47.5614 100.305 48.4413 100.305H50.9629V111.727Z" fill="#AABFF2"/>
<path d="M50.1665 102.799H48.4412C47.5617 102.799 46.8486 103.504 46.8486 104.374V107.788C46.8486 108.658 47.5617 109.363 48.4412 109.363H50.1665C51.046 109.363 51.759 108.658 51.759 107.788V104.374C51.759 103.504 51.046 102.799 50.1665 102.799Z" fill="#7D94DF"/>
<path d="M74.0549 96.1035H55.8732C52.2084 96.1035 49.2375 99.0425 49.2375 102.668V112.501C49.2375 116.127 52.2084 119.065 55.8732 119.065H74.0549C77.7197 119.065 80.6906 116.127 80.6906 112.501V102.668C80.6906 99.0425 77.7197 96.1035 74.0549 96.1035Z" fill="#AABFF2"/>
<path d="M76.7091 105.031H76.5764C75.6969 105.031 74.9839 105.737 74.9839 106.607V106.738C74.9839 107.608 75.6969 108.313 76.5764 108.313H76.7091C77.5887 108.313 78.3017 107.608 78.3017 106.738V106.607C78.3017 105.737 77.5887 105.031 76.7091 105.031Z" fill="#333132"/>
<path d="M53.4845 105.031H53.3518C52.4723 105.031 51.7593 105.737 51.7593 106.607V106.738C51.7593 107.608 52.4723 108.313 53.3518 108.313H53.4845C54.3641 108.313 55.0771 107.608 55.0771 106.738V106.607C55.0771 105.737 54.3641 105.031 53.4845 105.031Z" fill="#333132"/>
<path d="M60.1201 101.748H70.0736C70.9535 101.748 71.7974 102.094 72.4196 102.709C73.0419 103.325 73.3914 104.16 73.3914 105.03V106.606C73.3914 108.347 72.6923 110.016 71.4479 111.247C70.2035 112.478 68.5156 113.17 66.7557 113.17H63.4379C61.678 113.17 59.9902 112.478 58.7458 111.247C57.5014 110.016 56.8022 108.347 56.8022 106.606V105.03C56.8022 104.16 57.1518 103.325 57.774 102.709C58.3962 102.094 59.2401 101.748 60.1201 101.748Z" fill="#CBDAF7"/>
<path d="M68.4811 109.102H66.7558C66.316 109.102 65.9595 109.454 65.9595 109.889V109.955C65.9595 110.39 66.316 110.743 66.7558 110.743H68.4811C68.9208 110.743 69.2773 110.39 69.2773 109.955V109.889C69.2773 109.454 68.9208 109.102 68.4811 109.102Z" fill="#AABFF2"/>
<path d="M63.3052 109.102H61.58C61.1402 109.102 60.7837 109.454 60.7837 109.889V109.955C60.7837 110.39 61.1402 110.743 61.58 110.743H63.3052C63.745 110.743 64.1015 110.39 64.1015 109.955V109.889C64.1015 109.454 63.745 109.102 63.3052 109.102Z" fill="#AABFF2"/>
<path d="M65.0305 116.453C64.2467 116.47 63.4864 116.188 62.9071 115.665C62.6417 115.403 62.6417 115.009 62.9071 114.878C63.0279 114.761 63.183 114.686 63.35 114.662C63.5169 114.639 63.6871 114.668 63.8361 114.746C64.1573 115.051 64.5853 115.221 65.0305 115.221C65.4757 115.221 65.9037 115.051 66.2249 114.746C66.3739 114.668 66.5441 114.639 66.711 114.662C66.878 114.686 67.0331 114.761 67.1539 114.878C67.4193 115.009 67.4193 115.403 67.1539 115.665C66.5746 116.188 65.8143 116.47 65.0305 116.453Z" fill="#697EC4"/>
<path d="M128.335 101.354H130.724C131.604 101.354 132.448 101.699 133.07 102.315C133.692 102.93 134.042 103.765 134.042 104.636V109.493C134.042 110.364 133.692 111.199 133.07 111.814C132.448 112.43 131.604 112.775 130.724 112.775H128.335V101.485V101.354Z" fill="#AABFF2"/>
<path d="M130.856 103.717H129.131C128.252 103.717 127.539 104.422 127.539 105.292V108.627C127.539 109.497 128.252 110.202 129.131 110.202H130.856C131.736 110.202 132.449 109.497 132.449 108.627V105.292C132.449 104.422 131.736 103.717 130.856 103.717Z" fill="#7D94DF"/>
<path d="M100.73 112.645H98.3416C97.4617 112.645 96.6178 112.299 95.9956 111.683C95.3734 111.068 95.0238 110.233 95.0238 109.362V104.505C95.0238 103.634 95.3734 102.799 95.9956 102.184C96.6178 101.568 97.4617 101.223 98.3416 101.223H100.73V112.513V112.645Z" fill="#AABFF2"/>
<path d="M99.9345 103.717H98.2093C97.3297 103.717 96.6167 104.422 96.6167 105.292V108.627C96.6167 109.497 97.3297 110.202 98.2093 110.202H99.9345C100.814 110.202 101.527 109.497 101.527 108.627V105.292C101.527 104.422 100.814 103.717 99.9345 103.717Z" fill="#7D94DF"/>
<path d="M105.641 118.946H123.425C125.149 118.946 126.803 118.268 128.023 117.062C129.243 115.855 129.928 114.219 129.928 112.513V103.585C129.928 101.879 129.243 100.243 128.023 99.0365C126.803 97.8301 125.149 97.1523 123.425 97.1523H105.641C103.916 97.1523 102.262 97.8301 101.043 99.0365C99.8233 100.243 99.1382 101.879 99.1382 103.585V112.513C99.1382 114.219 99.8233 115.855 101.043 117.062C102.262 118.268 103.916 118.946 105.641 118.946Z" fill="#AABFF2"/>
<path d="M109.755 101.879H119.443C120.323 101.879 121.167 102.225 121.789 102.84C122.411 103.456 122.761 104.291 122.761 105.161V106.868C122.761 107.713 122.593 108.549 122.266 109.33C121.939 110.11 121.46 110.819 120.856 111.417C120.252 112.014 119.535 112.488 118.746 112.811C117.957 113.134 117.112 113.301 116.258 113.301H113.073C112.219 113.301 111.373 113.134 110.584 112.811C109.795 112.488 109.078 112.014 108.475 111.417C107.871 110.819 107.392 110.11 107.065 109.33C106.738 108.549 106.57 107.713 106.57 106.868V105.161C106.57 104.291 106.919 103.456 107.542 102.84C108.164 102.225 109.008 101.879 109.888 101.879H109.755Z" fill="#CBDAF7"/>
<path d="M117.85 109.23H116.258C115.818 109.23 115.461 109.583 115.461 110.018V110.058C115.461 110.493 115.818 110.845 116.258 110.845H117.85C118.29 110.845 118.647 110.493 118.647 110.058V110.018C118.647 109.583 118.29 109.23 117.85 109.23Z" fill="#AABFF2"/>
<path d="M112.674 109.23H111.082C110.642 109.23 110.286 109.583 110.286 110.018V110.058C110.286 110.493 110.642 110.845 111.082 110.845H112.674C113.114 110.845 113.471 110.493 113.471 110.058V110.018C113.471 109.583 113.114 109.23 112.674 109.23Z" fill="#AABFF2"/>
<path d="M110.419 96.2351C111.454 96.0849 112.447 95.7276 113.338 95.1848L115.727 93.7407C116.749 93.2959 117.907 93.2669 118.95 93.66C119.993 94.0531 120.838 94.8367 121.301 95.8412C122.496 99.2547 118.78 100.961 115.993 100.83C113.211 100.643 110.562 99.5855 108.428 97.8105C108.295 97.6792 108.163 97.6793 108.163 97.4167C108.116 97.2942 108.118 97.1591 108.167 97.0377C108.216 96.9163 108.309 96.8173 108.428 96.7603L109.357 96.4977L110.419 96.2351Z" fill="#95D85D"/>
<path d="M117.187 97.2872C117.082 97.2872 116.98 97.2457 116.906 97.1718C116.831 97.098 116.789 96.9978 116.789 96.8933C116.656 96.6308 116.922 96.4995 117.055 96.4995C118.907 96.1986 120.595 95.2704 121.832 93.8738C122.098 93.6112 122.23 93.6112 122.496 93.7425C122.561 93.8147 122.597 93.9082 122.597 94.0051C122.597 94.1019 122.561 94.1954 122.496 94.2676C121.159 95.8825 119.27 96.9568 117.187 97.2872Z" fill="#86C24E"/>
<path d="M115.329 114.484H113.736C113.296 114.484 112.94 114.837 112.94 115.272V115.311C112.94 115.747 113.296 116.099 113.736 116.099H115.329C115.769 116.099 116.125 115.747 116.125 115.311V115.272C116.125 114.837 115.769 114.484 115.329 114.484Z" fill="#697EC4"/>
<path d="M127.406 105.948C127.406 105.078 126.693 104.373 125.813 104.373C124.934 104.373 124.221 105.078 124.221 105.948V106.04C124.221 106.91 124.934 107.616 125.813 107.616C126.693 107.616 127.406 106.91 127.406 106.04V105.948Z" fill="#333132"/>
<path d="M104.711 105.948C104.711 105.078 103.998 104.373 103.119 104.373C102.239 104.373 101.526 105.078 101.526 105.948V106.014C101.526 106.884 102.239 107.59 103.119 107.59C103.998 107.59 104.711 106.884 104.711 106.014V105.948Z" fill="#333132"/>
<path d="M317.451 166.867C317.485 164.893 318.293 163.009 319.705 161.613C321.116 160.217 323.02 159.418 325.016 159.384C326.592 159.402 328.123 159.907 329.395 160.828C329.82 159.243 330.043 157.611 330.059 155.971C329.693 151.99 327.837 148.288 324.853 145.592C321.869 142.897 317.975 141.402 313.934 141.402C309.894 141.402 305.999 142.897 303.015 145.592C300.032 148.288 298.175 151.99 297.81 155.971C297.81 160.219 299.515 164.293 302.552 167.296C305.588 170.3 309.706 171.988 314.001 171.988C315.67 171.992 317.329 171.726 318.911 171.2C317.963 169.95 317.451 168.43 317.451 166.867Z" fill="#5865F2"/>
<path d="M233.178 151.111C233.178 153.605 224.817 155.706 214.333 155.706C203.849 155.706 195.488 153.605 195.488 151.111C195.455 150.948 195.462 150.779 195.509 150.62C195.555 150.46 195.639 150.313 195.753 150.192L196.549 149.535C199.204 147.697 206.237 146.516 214.333 146.516C222.429 146.516 229.462 147.697 232.117 149.535L232.78 150.192H232.913C233.082 150.469 233.173 150.787 233.178 151.111Z" fill="#7B384D"/>
<path d="M232.116 149.536C229.462 147.698 222.428 146.517 214.333 146.517C206.237 146.517 199.204 147.698 196.549 149.536L208.626 141.79C210.189 140.388 212.223 139.611 214.333 139.611C216.443 139.611 218.477 140.388 220.04 141.79L232.116 149.536Z" fill="#F9B083"/>
<path d="M221.898 144.286C222.428 144.023 222.694 143.76 222.694 143.498L220.969 142.316C220.363 142.156 219.733 142.111 219.111 142.185C218.447 142.579 219.111 145.336 221.898 144.286Z" fill="#EC1E79"/>
<path d="M205.574 143.761C205.706 143.761 205.706 143.892 205.839 144.023C208.759 146.124 213.006 141.398 212.209 140.479H211.015C210.136 140.811 209.326 141.301 208.626 141.923L205.574 143.761Z" fill="#EC1E79"/>
<path d="M220.571 153.212V169.623C220.571 169.859 220.523 170.092 220.428 170.308C220.333 170.524 220.194 170.718 220.019 170.879C219.845 171.039 219.639 171.162 219.414 171.239C219.189 171.317 218.95 171.348 218.713 171.33H209.954C209.716 171.348 209.478 171.317 209.253 171.239C209.028 171.162 208.822 171.039 208.647 170.879C208.472 170.718 208.333 170.524 208.239 170.308C208.144 170.092 208.095 169.859 208.096 169.623V153.212C208.094 152.92 208.201 152.638 208.397 152.42C208.593 152.202 208.864 152.063 209.157 152.031C212.588 151.505 216.079 151.505 219.509 152.031C219.802 152.063 220.073 152.202 220.269 152.42C220.465 152.638 220.573 152.92 220.571 153.212Z" fill="#F9B083"/>
<path d="M227.737 161.221C227.754 161.562 227.688 161.902 227.542 162.211C227.397 162.521 227.178 162.791 226.903 162.998C226.629 163.205 226.307 163.342 225.967 163.399C225.627 163.455 225.278 163.428 224.95 163.321C223.49 163.19 222.694 161.746 220.305 161.352C217.916 160.958 215.926 161.615 214.864 162.927C213.802 164.24 214.2 163.19 214.068 162.927C213.935 162.665 210.352 161.089 208.494 161.352C206.636 161.615 205.308 163.19 203.849 163.321C203.522 163.4 203.183 163.405 202.854 163.337C202.525 163.269 202.216 163.129 201.949 162.928C201.682 162.726 201.464 162.469 201.311 162.173C201.157 161.878 201.072 161.553 201.062 161.221C200.718 161.476 200.451 161.818 200.287 162.21C200.124 162.603 200.07 163.032 200.133 163.453C200.192 163.765 200.318 164.06 200.503 164.32C200.687 164.58 200.925 164.798 201.202 164.96C201.478 165.121 201.786 165.223 202.105 165.257C202.424 165.292 202.747 165.258 203.052 165.159C203.052 165.159 202.787 167.785 205.839 167.654C208.892 167.522 208.228 165.816 208.228 165.816C208.228 165.816 210.219 167.391 211.546 167.129C212.053 167.052 212.54 166.873 212.974 166.602C213.407 166.331 213.78 165.974 214.068 165.553C214.2 165.291 214.598 165.291 214.864 165.553C215.151 165.974 215.524 166.331 215.958 166.602C216.392 166.873 216.878 167.052 217.385 167.129C218.58 167.391 219.774 166.341 220.57 165.816C221.367 165.291 221.632 167.522 222.959 167.654C224.286 167.785 225.746 165.159 225.746 165.159C226.06 165.259 226.391 165.293 226.718 165.259C227.046 165.226 227.363 165.126 227.649 164.966C227.936 164.805 228.186 164.588 228.384 164.328C228.582 164.068 228.723 163.77 228.799 163.453C228.863 163.019 228.797 162.575 228.608 162.178C228.419 161.781 228.116 161.448 227.737 161.221Z" fill="#7B384D"/>
<path d="M217.916 158.726C217.74 158.726 217.572 158.657 217.447 158.534C217.323 158.411 217.253 158.244 217.253 158.07C217.253 157.545 216.987 157.282 216.855 157.282C216.722 157.282 216.457 157.545 216.457 158.07C216.457 158.244 216.387 158.411 216.262 158.534C216.138 158.657 215.969 158.726 215.793 158.726C215.617 158.726 215.448 158.657 215.324 158.534C215.199 158.411 215.129 158.244 215.129 158.07C215.129 157.617 215.311 157.183 215.635 156.863C215.958 156.543 216.397 156.363 216.855 156.363C217.312 156.363 217.751 156.543 218.075 156.863C218.398 157.183 218.58 157.617 218.58 158.07C218.554 158.235 218.476 158.387 218.356 158.505C218.237 158.623 218.083 158.701 217.916 158.726Z" fill="#23272A"/>
<path d="M212.873 158.726C212.697 158.726 212.528 158.657 212.404 158.534C212.279 158.411 212.209 158.244 212.209 158.07C212.209 157.545 211.944 157.282 211.811 157.282C211.679 157.282 211.413 157.545 211.413 158.07C211.413 158.244 211.343 158.411 211.219 158.534C211.094 158.657 210.925 158.726 210.75 158.726C210.583 158.701 210.429 158.623 210.31 158.505C210.19 158.387 210.112 158.235 210.086 158.07C210.086 157.617 210.268 157.183 210.591 156.863C210.915 156.543 211.354 156.363 211.811 156.363C212.269 156.363 212.708 156.543 213.031 156.863C213.355 157.183 213.536 157.617 213.536 158.07C213.51 158.235 213.432 158.387 213.313 158.505C213.194 158.623 213.04 158.701 212.873 158.726Z" fill="#23272A"/>
<path d="M75.9132 161.089C76.7272 160.624 77.4019 159.954 77.8682 159.146C78.3346 158.339 78.5758 157.424 78.5674 156.494C78.5674 155.136 78.0221 153.834 77.0515 152.873C76.0808 151.913 74.7643 151.374 73.3916 151.374H71.9318C73.1262 144.678 72.9935 139.427 71.4009 139.033C69.8083 138.639 66.756 143.759 64.4998 150.98H64.3671C62.3764 143.759 59.7221 138.508 57.9969 138.902C56.2716 139.295 56.0062 144.547 57.0679 151.374H55.7408C54.3786 151.407 53.0816 151.957 52.1181 152.91C51.1547 153.863 50.5986 155.147 50.5649 156.494C50.5565 157.424 50.7978 158.339 51.2641 159.146C51.7305 159.954 52.4051 160.624 53.2192 161.089C52.0336 161.472 51.0221 162.256 50.3621 163.302C49.7022 164.349 49.436 165.593 49.6101 166.814C49.7843 168.036 50.3877 169.158 51.3146 169.984C52.2415 170.809 53.4326 171.286 54.679 171.329H74.4533C75.6998 171.286 76.8909 170.809 77.8178 169.984C78.7446 169.158 79.3481 168.036 79.5222 166.814C79.6964 165.593 79.4301 164.349 78.7702 163.302C78.1103 162.256 77.0988 161.472 75.9132 161.089Z" fill="#E9459D"/>
<path d="M62.7746 155.313C62.2369 154.92 61.5693 154.742 60.905 154.815C60.2408 154.888 59.6288 155.207 59.1914 155.706H59.0587L58.7932 155.969L58.3951 155.575C57.9577 155.075 57.3457 154.757 56.6814 154.684C56.0172 154.611 55.3495 154.789 54.8118 155.181C54.5991 155.438 54.4405 155.735 54.3453 156.054C54.25 156.372 54.22 156.706 54.2571 157.036C54.2942 157.367 54.3976 157.686 54.5612 157.976C54.7248 158.266 54.9454 158.521 55.21 158.726H55.3427L55.6081 158.989L57.4661 160.827C57.8311 161.15 58.3036 161.328 58.7932 161.328C59.2829 161.328 59.7554 161.15 60.1204 160.827L61.8457 158.989L62.2438 158.595C62.7014 158.192 63.0043 157.645 63.101 157.047C63.1978 156.449 63.0825 155.836 62.7746 155.313Z" fill="#F4DC53"/>
<path d="M74.4533 155.313C73.9156 154.92 73.248 154.742 72.5837 154.815C71.9195 154.888 71.3075 155.207 70.8701 155.706H70.7373L70.4719 155.969L70.0738 155.575C69.6363 155.075 69.0244 154.757 68.3601 154.684C67.6959 154.611 67.0282 154.789 66.4905 155.181C66.2778 155.438 66.1192 155.735 66.024 156.054C65.9287 156.372 65.8987 156.706 65.9358 157.036C65.9729 157.367 66.0763 157.686 66.2399 157.976C66.4035 158.266 66.6241 158.521 66.8887 158.726H67.0214L67.2868 158.989L69.1448 160.827C69.5098 161.15 69.9823 161.328 70.4719 161.328C70.9616 161.328 71.4341 161.15 71.7991 160.827L73.5243 158.989L73.9224 158.595C74.3801 158.192 74.683 157.645 74.7797 157.047C74.8765 156.449 74.7612 155.836 74.4533 155.313Z" fill="#F4DC53"/>
<path d="M61.5804 164.633C61.4391 164.6 61.2912 164.605 61.1527 164.648C61.0142 164.692 60.8904 164.772 60.7947 164.88C60.699 164.989 60.635 165.121 60.6098 165.262C60.5845 165.404 60.5989 165.549 60.6514 165.684C60.9501 166.491 61.492 167.188 62.204 167.681C62.916 168.174 63.7637 168.439 64.6328 168.441C65.4886 168.451 66.3252 168.189 67.0185 167.692C67.7117 167.196 68.2248 166.491 68.4815 165.684C68.534 165.549 68.5483 165.404 68.5231 165.262C68.4978 165.121 68.4339 164.989 68.3382 164.88C68.2425 164.772 68.1187 164.692 67.9802 164.648C67.8417 164.605 67.6938 164.6 67.5525 164.633C65.6177 165.293 63.5151 165.293 61.5804 164.633Z" fill="#25272A"/>
<path d="M107.897 151.113C109.091 154.789 108.428 158.465 106.304 159.122L101.925 145.468C104.048 144.812 106.702 147.306 107.897 151.113Z" fill="#5765F0"/>
<path d="M121.168 151.113C119.974 154.789 120.637 158.465 122.761 159.122L127.14 145.468C125.017 144.812 122.362 147.306 121.168 151.113Z" fill="#5765F0"/>
<path d="M114.4 171.461C121.29 171.461 126.875 166.994 126.875 161.484C126.875 155.973 121.29 151.506 114.4 151.506C107.51 151.506 101.925 155.973 101.925 161.484C101.925 166.994 107.51 171.461 114.4 171.461Z" fill="#5765F0"/>
<path d="M121.832 155.182C121.209 156.622 120.173 157.85 118.852 158.713C117.531 159.577 115.983 160.038 114.4 160.04C112.802 160.03 111.24 159.568 109.899 158.707C108.558 157.846 107.495 156.623 106.835 155.182C108.449 153.376 109.303 151.028 109.224 148.618C109.209 147.911 109.12 147.207 108.959 146.518C110.634 147.395 112.504 147.847 114.4 147.83C116.254 147.847 118.081 147.395 119.709 146.518C119.709 147.174 119.576 147.83 119.576 148.618C119.522 151.001 120.321 153.326 121.832 155.182Z" fill="#5765F0"/>
<path d="M122.761 151.506C122.738 152.785 122.42 154.042 121.832 155.182C120.321 153.325 119.522 151 119.576 148.618C119.576 147.83 119.708 147.173 119.708 146.517C118.081 147.395 116.254 147.847 114.4 147.83C112.504 147.846 110.634 147.395 108.959 146.517C109.12 147.206 109.209 147.91 109.224 148.618C109.303 151.027 108.449 153.375 106.835 155.182C106.293 154.032 106.02 152.775 106.039 151.506C106.053 149.435 106.805 147.436 108.162 145.861C108.295 145.729 108.428 145.467 108.693 145.335L110.419 144.023C110.299 143.686 110.254 143.328 110.286 142.972C110.286 141.893 110.719 140.858 111.491 140.094C112.262 139.331 113.309 138.902 114.4 138.902C115.491 138.902 116.538 139.331 117.309 140.094C118.081 140.858 118.514 141.893 118.514 142.972C118.546 143.328 118.501 143.686 118.381 144.023L120.107 145.335L120.637 145.861C121.995 147.436 122.747 149.435 122.761 151.506Z" fill="#23272A"/>
<path d="M114.4 155.969C115.939 155.969 117.187 154.735 117.187 153.212C117.187 151.689 115.939 150.455 114.4 150.455C112.861 150.455 111.613 151.689 111.613 153.212C111.613 154.735 112.861 155.969 114.4 155.969Z" fill="white"/>
<path d="M114.4 169.229C117.478 169.229 119.974 166.761 119.974 163.715C119.974 160.67 117.478 158.201 114.4 158.201C111.321 158.201 108.826 160.67 108.826 163.715C108.826 166.761 111.321 169.229 114.4 169.229Z" fill="#23272A"/>
<path d="M114.4 154.526C115.133 154.526 115.727 153.938 115.727 153.213C115.727 152.488 115.133 151.9 114.4 151.9C113.667 151.9 113.073 152.488 113.073 153.213C113.073 153.938 113.667 154.526 114.4 154.526Z" fill="#25272A"/>
<path d="M117.319 163.321C117.455 163.373 117.602 163.387 117.745 163.362C117.889 163.337 118.022 163.274 118.131 163.179C118.241 163.085 118.322 162.962 118.366 162.825C118.41 162.688 118.415 162.542 118.381 162.402C118.152 161.53 117.636 160.758 116.916 160.207C116.195 159.656 115.31 159.357 114.4 159.357C113.489 159.357 112.604 159.656 111.884 160.207C111.163 160.758 110.648 161.53 110.418 162.402C110.395 162.528 110.402 162.657 110.44 162.78C110.479 162.902 110.547 163.013 110.638 163.104C110.729 163.194 110.842 163.261 110.965 163.299C111.089 163.337 111.22 163.344 111.347 163.321C113.282 162.661 115.385 162.661 117.319 163.321Z" fill="white"/>
<path d="M174.386 145.729H154.479C151.401 145.729 148.905 148.197 148.905 151.243V159.75C148.905 162.795 151.401 165.264 154.479 165.264H174.386C177.465 165.264 179.96 162.795 179.96 159.75V151.243C179.96 148.197 177.465 145.729 174.386 145.729Z" fill="#7196FF"/>
<path d="M169.609 149.141H159.257C157.864 149.141 156.735 150.257 156.735 151.635V155.836C156.735 157.214 157.864 158.331 159.257 158.331H169.609C171.001 158.331 172.13 157.214 172.13 155.836V151.635C172.13 150.257 171.001 149.141 169.609 149.141Z" fill="#BACFFF"/>
<path d="M175.714 155.443C176.96 155.443 177.97 153.856 177.97 151.898C177.97 149.941 176.96 148.354 175.714 148.354C174.468 148.354 173.458 149.941 173.458 151.898C173.458 153.856 174.468 155.443 175.714 155.443Z" fill="white"/>
<path d="M174.784 154.13C175.371 154.13 175.846 153.131 175.846 151.898C175.846 150.665 175.371 149.666 174.784 149.666C174.198 149.666 173.723 150.665 173.723 151.898C173.723 153.131 174.198 154.13 174.784 154.13Z" fill="#23272A"/>
<path d="M153.285 155.443C154.531 155.443 155.541 153.856 155.541 151.898C155.541 149.941 154.531 148.354 153.285 148.354C152.039 148.354 151.029 149.941 151.029 151.898C151.029 153.856 152.039 155.443 153.285 155.443Z" fill="white"/>
<path d="M152.223 154.13C152.81 154.13 153.285 153.131 153.285 151.898C153.285 150.665 152.81 149.666 152.223 149.666C151.637 149.666 151.162 150.665 151.162 151.898C151.162 153.131 151.637 154.13 152.223 154.13Z" fill="#23272A"/>
<path d="M168.414 154.262H166.689C166.102 154.262 165.627 154.723 165.627 155.292C165.627 155.862 166.102 156.323 166.689 156.323H168.414C169 156.323 169.476 155.862 169.476 155.292C169.476 154.723 169 154.262 168.414 154.262Z" fill="#7196FF"/>
<path d="M162.177 154.262H160.451C159.865 154.262 159.39 154.723 159.39 155.292C159.39 155.862 159.865 156.323 160.451 156.323H162.177C162.763 156.323 163.238 155.862 163.238 155.292C163.238 154.723 162.763 154.262 162.177 154.262Z" fill="#7196FF"/>
<path d="M149.171 160.17H147.446C147.132 160.17 146.821 160.109 146.531 159.99C146.242 159.871 145.978 159.697 145.756 159.478C145.535 159.258 145.359 158.998 145.239 158.711C145.119 158.424 145.057 158.117 145.057 157.807V153.08C145.057 152.454 145.308 151.853 145.756 151.409C146.204 150.966 146.812 150.717 147.446 150.717H149.171V160.17Z" fill="#7196FF"/>
<path d="M179.695 150.717H181.42C181.734 150.717 182.044 150.778 182.334 150.897C182.624 151.015 182.887 151.19 183.109 151.409C183.331 151.628 183.507 151.889 183.627 152.176C183.747 152.462 183.809 152.77 183.809 153.08V157.806C183.809 158.433 183.557 159.034 183.109 159.477C182.661 159.92 182.054 160.169 181.42 160.169H179.695V150.717Z" fill="#7196FF"/>
<path d="M149.038 158.332H147.976C147.589 158.332 147.218 158.18 146.944 157.909C146.67 157.638 146.517 157.271 146.517 156.888V154C146.517 153.617 146.67 153.249 146.944 152.978C147.218 152.708 147.589 152.555 147.976 152.555H149.038V158.332Z" fill="#BACFFF"/>
<path d="M179.695 152.555H180.757C181.144 152.555 181.515 152.707 181.789 152.978C182.063 153.248 182.216 153.616 182.216 153.999V156.887C182.216 157.27 182.063 157.637 181.789 157.908C181.515 158.179 181.144 158.331 180.757 158.331H179.695V152.555Z" fill="#BACFFF"/>
<path d="M276.575 165.946C275.424 166.902 273.964 167.415 272.461 167.391H255.872C254.37 167.415 252.909 166.902 251.758 165.946C250.776 165.181 250.023 164.166 249.578 163.01C249.134 161.853 249.016 160.6 249.236 159.382L250.298 153.605C252.167 155.433 254.386 156.873 256.824 157.842C259.262 158.812 261.871 159.29 264.498 159.251C269.539 159.282 274.412 157.457 278.168 154.131L279.097 159.382C279.317 160.6 279.199 161.853 278.755 163.01C278.311 164.166 277.557 165.181 276.575 165.946Z" fill="#AAFAE7"/>
<path d="M278.168 154.131C274.412 157.457 269.54 159.282 264.499 159.251C261.871 159.29 259.262 158.812 256.824 157.842C254.386 156.873 252.167 155.433 250.298 153.606L251.094 149.142C251.317 147.809 252.015 146.599 253.062 145.732C254.109 144.865 255.436 144.398 256.801 144.416C257.416 144.391 258.03 144.496 258.602 144.722C259.173 144.948 259.69 145.291 260.119 145.728C260.974 146.611 261.45 147.788 261.446 149.011H266.887C266.88 148.392 267.006 147.779 267.258 147.213C267.51 146.647 267.881 146.141 268.347 145.728C268.75 145.294 269.244 144.952 269.794 144.726C270.344 144.499 270.937 144.393 271.532 144.416C272.935 144.37 274.305 144.838 275.381 145.728C276.429 146.581 277.096 147.807 277.239 149.142L278.168 154.131Z" fill="#7CE4CC"/>
<path d="M262.906 156.232C262.767 156.243 262.629 156.211 262.51 156.14C262.391 156.07 262.297 155.964 262.242 155.838L261.711 154.263C261.669 154.177 261.645 154.084 261.642 153.989C261.64 153.894 261.658 153.799 261.696 153.712C261.734 153.625 261.79 153.546 261.862 153.483C261.933 153.419 262.018 153.372 262.109 153.344C262.375 153.212 262.773 153.475 262.906 153.737L263.437 155.444C263.481 155.52 263.506 155.605 263.509 155.692C263.512 155.78 263.493 155.867 263.454 155.945C263.414 156.023 263.355 156.09 263.283 156.14C263.21 156.191 263.126 156.222 263.038 156.232H262.906Z" fill="#23272A"/>
<path d="M265.428 156.232H265.295C265.207 156.222 265.123 156.191 265.051 156.14C264.978 156.09 264.919 156.023 264.88 155.945C264.84 155.867 264.821 155.78 264.824 155.692C264.827 155.605 264.852 155.52 264.897 155.444L265.428 153.737C265.56 153.475 265.959 153.212 266.224 153.344C266.316 153.372 266.4 153.419 266.472 153.483C266.543 153.546 266.6 153.625 266.638 153.712C266.676 153.799 266.694 153.894 266.691 153.989C266.688 154.084 266.665 154.177 266.622 154.263L266.091 155.838C266.036 155.964 265.943 156.07 265.823 156.14C265.704 156.211 265.566 156.243 265.428 156.232Z" fill="#23272A"/>
<path d="M257.597 149.929C257.421 149.929 257.253 149.86 257.128 149.737C257.004 149.614 256.934 149.447 256.934 149.273C256.934 148.354 256.536 147.828 256.137 147.828C255.739 147.828 255.208 148.354 255.208 149.273C255.208 149.447 255.139 149.614 255.014 149.737C254.89 149.86 254.721 149.929 254.545 149.929C254.369 149.929 254.2 149.86 254.076 149.737C253.951 149.614 253.881 149.447 253.881 149.273C253.881 147.697 254.81 146.516 256.137 146.516C257.465 146.516 258.261 147.697 258.261 149.273C258.261 149.447 258.191 149.614 258.067 149.737C257.942 149.86 257.773 149.929 257.597 149.929Z" fill="#23272A"/>
<path d="M273.788 149.929C273.612 149.929 273.443 149.86 273.319 149.737C273.195 149.614 273.125 149.447 273.125 149.273C273.125 148.354 272.727 147.828 272.196 147.828C271.665 147.828 271.399 148.354 271.399 149.273C271.399 149.447 271.329 149.614 271.205 149.737C271.081 149.86 270.912 149.929 270.736 149.929C270.56 149.929 270.391 149.86 270.267 149.737C270.142 149.614 270.072 149.447 270.072 149.273C270.072 147.697 271.001 146.516 272.196 146.516C273.39 146.516 274.452 147.697 274.452 149.273C274.452 149.447 274.382 149.614 274.257 149.737C274.133 149.86 273.964 149.929 273.788 149.929Z" fill="#23272A"/>
<path d="M264.498 159.906C258.992 159.94 253.696 157.816 249.767 153.998C249.646 153.876 249.578 153.711 249.578 153.539C249.578 153.367 249.646 153.202 249.767 153.079C249.913 152.95 250.102 152.879 250.298 152.879C250.494 152.879 250.683 152.95 250.829 153.079C252.62 154.855 254.752 156.258 257.1 157.205C259.447 158.152 261.963 158.624 264.498 158.594C269.367 158.685 274.081 156.895 277.637 153.605C277.783 153.475 277.972 153.404 278.168 153.404C278.364 153.404 278.553 153.475 278.699 153.605C278.778 153.752 278.808 153.92 278.784 154.086C278.76 154.251 278.684 154.404 278.566 154.524C274.764 158.062 269.717 159.993 264.498 159.906Z" fill="#23272A"/>
<path d="M277.637 157.544C279.763 157.544 281.486 156.251 281.486 154.656C281.486 153.061 279.763 151.768 277.637 151.768C275.512 151.768 273.789 153.061 273.789 154.656C273.789 156.251 275.512 157.544 277.637 157.544Z" fill="#E9459D"/>
<path d="M250.696 157.544C252.822 157.544 254.545 156.251 254.545 154.656C254.545 153.061 252.822 151.768 250.696 151.768C248.571 151.768 246.848 153.061 246.848 154.656C246.848 156.251 248.571 157.544 250.696 157.544Z" fill="#E9459D"/>
<path d="M321.3 149.405C319.879 148.847 318.415 148.408 316.92 148.092C316.689 148.46 316.511 148.857 316.389 149.273C314.808 149.011 313.193 149.011 311.612 149.273C311.381 148.905 311.202 148.508 311.081 148.092C309.577 148.371 308.109 148.811 306.701 149.405C304.248 152.837 303.161 157.044 303.649 161.22C305.229 162.352 306.974 163.237 308.825 163.846C309.315 163.297 309.718 162.677 310.019 162.008L308.294 161.22L308.692 160.827C310.35 161.608 312.164 162.014 314.001 162.014C315.837 162.014 317.651 161.608 319.309 160.827L319.707 161.22L317.849 162.008C318.04 162.376 318.262 162.727 318.513 163.058C319.148 162.038 320.023 161.183 321.062 160.566C322.101 159.949 323.275 159.588 324.485 159.514C324.473 155.904 323.363 152.382 321.3 149.405ZM310.55 158.857C309.987 158.857 309.447 158.636 309.049 158.242C308.65 157.848 308.427 157.314 308.427 156.757C308.427 156.2 308.65 155.665 309.049 155.271C309.447 154.877 309.987 154.656 310.55 154.656C311.113 154.656 311.653 154.877 312.052 155.271C312.45 155.665 312.673 156.2 312.673 156.757C312.673 157.314 312.45 157.848 312.052 158.242C311.653 158.636 311.113 158.857 310.55 158.857ZM317.451 158.857C317.024 158.91 316.59 158.834 316.208 158.638C315.826 158.442 315.513 158.135 315.311 157.759C315.109 157.383 315.027 156.955 315.076 156.532C315.126 156.109 315.304 155.71 315.588 155.39C315.871 155.069 316.247 154.842 316.664 154.737C317.081 154.632 317.521 154.656 317.925 154.804C318.329 154.952 318.677 155.218 318.924 155.567C319.172 155.916 319.306 156.331 319.309 156.757C319.327 157.015 319.293 157.275 319.21 157.521C319.126 157.767 318.994 157.994 318.821 158.189C318.649 158.384 318.439 158.544 318.204 158.658C317.969 158.773 317.713 158.841 317.451 158.857Z" fill="white"/>
<path d="M325.016 171.855C327.801 171.855 330.059 169.621 330.059 166.866C330.059 164.111 327.801 161.877 325.016 161.877C322.231 161.877 319.973 164.111 319.973 166.866C319.973 169.621 322.231 171.855 325.016 171.855Z" fill="#57F085"/>
<path d="M367.617 166.867C367.617 164.905 368.396 163.021 369.786 161.621C371.176 160.221 373.066 159.418 375.049 159.383C376.633 159.353 378.18 159.863 379.429 160.828C379.961 159.262 380.23 157.621 380.225 155.97C380.225 152.802 379.275 149.705 377.496 147.072C375.717 144.438 373.188 142.385 370.23 141.172C367.271 139.96 364.016 139.643 360.875 140.261C357.734 140.879 354.849 142.404 352.585 144.644C350.321 146.884 348.779 149.738 348.154 152.845C347.529 155.952 347.85 159.173 349.075 162.099C350.301 165.026 352.376 167.528 355.039 169.288C357.701 171.048 360.832 171.987 364.034 171.987C365.703 171.992 367.362 171.726 368.944 171.199C368.035 169.937 367.569 168.416 367.617 166.867Z" fill="#5865F2"/>
<path d="M371.333 149.405C369.925 148.811 368.457 148.371 366.953 148.092C366.832 148.508 366.653 148.905 366.422 149.273C364.841 149.011 363.226 149.011 361.645 149.273C361.523 148.857 361.345 148.46 361.114 148.092C359.62 148.408 358.155 148.847 356.734 149.405C354.347 152.867 353.266 157.049 353.682 161.22C355.309 162.353 357.098 163.238 358.99 163.846L360.185 162.008L358.327 161.22L358.725 160.827C360.383 161.608 362.197 162.014 364.034 162.014C365.87 162.014 367.684 161.608 369.342 160.827L369.74 161.22L368.015 162.008C368.157 162.402 368.383 162.76 368.679 163.058C369.284 162.04 370.134 161.184 371.152 160.566C372.17 159.948 373.326 159.587 374.518 159.514C374.506 155.904 373.396 152.382 371.333 149.405ZM360.583 158.857C360.156 158.91 359.722 158.834 359.34 158.638C358.958 158.442 358.645 158.135 358.443 157.759C358.241 157.383 358.159 156.955 358.208 156.532C358.258 156.109 358.436 155.71 358.72 155.39C359.003 155.069 359.379 154.842 359.796 154.737C360.213 154.632 360.653 154.656 361.057 154.804C361.46 154.952 361.809 155.218 362.056 155.567C362.303 155.916 362.438 156.331 362.441 156.757C362.459 157.015 362.425 157.275 362.341 157.521C362.258 157.767 362.126 157.994 361.953 158.189C361.781 158.384 361.571 158.544 361.336 158.658C361.1 158.773 360.845 158.841 360.583 158.857ZM367.484 158.857C366.968 158.793 366.494 158.544 366.151 158.156C365.809 157.769 365.622 157.271 365.626 156.757C365.608 156.498 365.642 156.238 365.726 155.992C365.809 155.747 365.941 155.52 366.114 155.325C366.287 155.129 366.497 154.97 366.732 154.855C366.967 154.74 367.222 154.673 367.484 154.656C368.047 154.656 368.587 154.877 368.986 155.271C369.384 155.665 369.608 156.2 369.608 156.757C369.608 157.314 369.384 157.848 368.986 158.242C368.587 158.636 368.047 158.857 367.484 158.857Z" fill="white"/>
<path d="M375.049 171.855C377.834 171.855 380.092 169.621 380.092 166.866C380.092 164.111 377.834 161.877 375.049 161.877C372.264 161.877 370.006 164.111 370.006 166.866C370.006 169.621 372.264 171.855 375.049 171.855Z" fill="#E9459D"/>
<path d="M166.158 164.765C165.65 164.731 165.153 164.597 164.698 164.372C164.242 164.146 163.836 163.834 163.504 163.452C163.238 163.321 163.238 162.927 163.504 162.664C163.769 162.402 164.167 162.402 164.3 162.664C164.839 163.185 165.541 163.51 166.291 163.583C166.556 163.583 166.689 163.452 166.954 163.19C167.22 162.927 167.087 162.796 166.954 162.664C166.753 162.191 166.372 161.814 165.893 161.614C165.76 161.614 165.627 161.352 165.627 161.089C165.627 160.987 165.651 160.887 165.697 160.795C165.743 160.704 165.81 160.625 165.893 160.564C166.423 160.301 166.822 160.039 166.954 159.645C167.087 159.251 166.954 159.251 166.954 159.12C166.954 158.988 166.556 158.726 166.291 158.726C166.025 158.726 165.096 158.988 164.3 159.645C164.171 159.713 164.023 159.736 163.879 159.713C163.735 159.689 163.603 159.619 163.504 159.513C163.238 159.382 163.238 158.988 163.504 158.726C163.853 158.305 164.303 157.976 164.813 157.77C165.322 157.563 165.876 157.486 166.423 157.544C166.724 157.569 167.014 157.665 167.268 157.825C167.522 157.985 167.734 158.204 167.883 158.463C168.165 158.938 168.26 159.499 168.149 160.039C167.953 160.473 167.629 160.839 167.22 161.089C167.608 161.416 167.924 161.818 168.149 162.271C168.207 162.516 168.214 162.771 168.168 163.02C168.122 163.268 168.025 163.505 167.883 163.715C167.554 164.24 167.03 164.617 166.423 164.765H166.158Z" fill="#23272A"/>
<path d="M377.438 89.9316H351.293C349.607 89.9316 348.241 91.2836 348.241 92.9512V118.841C348.241 120.509 349.607 121.86 351.293 121.86H377.438C379.123 121.86 380.49 120.509 380.49 118.841V92.9512C380.49 91.2836 379.123 89.9316 377.438 89.9316Z" fill="#AABFF2"/>
<path d="M366.953 111.201H361.645C360.202 111.201 358.818 110.633 357.797 109.624C356.777 108.615 356.204 107.245 356.204 105.818V101.879C356.204 101.531 356.343 101.197 356.592 100.951C356.841 100.705 357.179 100.566 357.531 100.566H371.068C371.42 100.566 371.757 100.705 372.006 100.951C372.255 101.197 372.395 101.531 372.395 101.879V105.818C372.395 107.245 371.821 108.615 370.801 109.624C369.781 110.633 368.397 111.201 366.953 111.201Z" fill="#CBDAF7"/>
<path d="M365.228 113.17H363.37C362.783 113.17 362.308 113.617 362.308 114.168C362.308 114.719 362.783 115.165 363.37 115.165H365.228C365.814 115.165 366.29 114.719 366.29 114.168C366.29 113.617 365.814 113.17 365.228 113.17Z" fill="#697EC4"/>
<path d="M362.574 107.656H360.583C360.217 107.656 359.919 107.95 359.919 108.313V108.326C359.919 108.688 360.217 108.982 360.583 108.982H362.574C362.94 108.982 363.237 108.688 363.237 108.326V108.313C363.237 107.95 362.94 107.656 362.574 107.656Z" fill="#AABFF2"/>
<path d="M368.015 107.656H366.024C365.658 107.656 365.361 107.95 365.361 108.313V108.326C365.361 108.688 365.658 108.982 366.024 108.982H368.015C368.382 108.982 368.679 108.688 368.679 108.326V108.313C368.679 107.95 368.382 107.656 368.015 107.656Z" fill="#AABFF2"/>
<path d="M352.222 106.999C353.322 106.999 354.213 106.117 354.213 105.03C354.213 103.942 353.322 103.061 352.222 103.061C351.123 103.061 350.231 103.942 350.231 105.03C350.231 106.117 351.123 106.999 352.222 106.999Z" fill="#333132"/>
<path d="M376.509 106.999C377.608 106.999 378.499 106.117 378.499 105.03C378.499 103.942 377.608 103.061 376.509 103.061C375.409 103.061 374.518 103.942 374.518 105.03C374.518 106.117 375.409 106.999 376.509 106.999Z" fill="#333132"/>
<path d="M274.452 99.5156H257.996C255.137 99.5156 252.82 101.808 252.82 104.636V113.826C252.82 116.654 255.137 118.946 257.996 118.946H274.452C277.311 118.946 279.628 116.654 279.628 113.826V104.636C279.628 101.808 277.311 99.5156 274.452 99.5156Z" fill="#85A5E5"/>
<path d="M271.002 99.5156H254.545C251.687 99.5156 249.37 101.808 249.37 104.636V113.826C249.37 116.654 251.687 118.946 254.545 118.946H271.002C273.86 118.946 276.178 116.654 276.178 113.826V104.636C276.178 101.808 273.86 99.5156 271.002 99.5156Z" fill="#AABFF2"/>
<path d="M249.237 104.9H258.527C259.09 104.9 259.63 105.122 260.028 105.516C260.426 105.91 260.65 106.444 260.65 107.001V109.102C260.65 110.459 260.105 111.762 259.134 112.722C258.164 113.682 256.847 114.222 255.474 114.222H252.422C251.049 114.222 249.733 113.682 248.762 112.722C247.791 111.762 247.246 110.459 247.246 109.102V106.87C247.278 106.358 247.497 105.875 247.864 105.512C248.231 105.149 248.719 104.932 249.237 104.9Z" fill="#CBDAF7"/>
<path d="M272.727 102.406H278.035C278.951 102.406 279.828 102.766 280.475 103.406C281.122 104.046 281.486 104.914 281.486 105.82V108.183C281.486 109.088 281.122 109.956 280.475 110.597C279.828 111.237 278.951 111.596 278.035 111.596H272.727V102.406Z" fill="#AABFF2"/>
<path d="M279.761 105.82V108.184C279.761 108.636 279.579 109.07 279.255 109.39C278.932 109.71 278.493 109.89 278.035 109.89H272.992C272.94 109.89 272.888 109.88 272.84 109.86C272.791 109.841 272.748 109.812 272.711 109.775C272.674 109.738 272.644 109.695 272.624 109.647C272.604 109.599 272.594 109.548 272.594 109.496V104.376C272.594 104.272 272.636 104.172 272.711 104.098C272.785 104.024 272.887 103.982 272.992 103.982H278.035C278.273 103.982 278.509 104.03 278.728 104.124C278.946 104.218 279.143 104.355 279.305 104.528C279.467 104.7 279.591 104.904 279.669 105.127C279.748 105.349 279.779 105.586 279.761 105.82Z" fill="#85A5E5"/>
<path d="M266.489 108.287C266.489 107.504 265.836 106.869 265.03 106.869C264.223 106.869 263.57 107.504 263.57 108.287C263.57 109.07 264.223 109.705 265.03 109.705C265.836 109.705 266.489 109.07 266.489 108.287Z" fill="#333132"/>
<path d="M253.483 112.121H255.076C255.589 112.121 256.005 111.739 256.005 111.268C256.005 110.796 255.589 110.414 255.076 110.414H253.483C252.97 110.414 252.554 110.796 252.554 111.268C252.554 111.739 252.97 112.121 253.483 112.121Z" fill="#AABFF2"/>
<path d="M249.635 112.121H250.564C251.077 112.121 251.493 111.739 251.493 111.268C251.493 110.796 251.077 110.414 250.564 110.414H249.635C249.122 110.414 248.706 110.796 248.706 111.268C248.706 111.739 249.122 112.121 249.635 112.121Z" fill="#AABFF2"/>
<path d="M266.755 93.4772L263.835 89.6699H263.304L260.384 93.4772C260.384 93.5469 260.356 93.6137 260.307 93.6629C260.257 93.7121 260.189 93.7398 260.119 93.7398C260.049 93.7398 259.981 93.7121 259.931 93.6629C259.882 93.6137 259.854 93.5469 259.854 93.4772L257.332 90.1951C257.067 89.9325 256.668 90.0638 256.668 90.3264V99.5164H270.471V90.3264C270.488 90.2567 270.477 90.183 270.44 90.1215C270.402 90.0599 270.342 90.0155 270.272 89.9981C270.201 89.9807 270.127 89.9917 270.064 90.0286C270.002 90.0656 269.957 90.1254 269.94 90.1951L267.286 93.4772C267.286 93.5469 267.258 93.6137 267.208 93.6629C267.158 93.7121 267.09 93.7398 267.02 93.7398C266.95 93.7398 266.882 93.7121 266.832 93.6629C266.783 93.6137 266.755 93.5469 266.755 93.4772Z" fill="#FFCD3E"/>
<path d="M265.05 96.0097L263.924 94.8957C263.769 94.7419 263.517 94.7419 263.361 94.8957L262.216 96.0283C262.061 96.1821 262.061 96.4315 262.216 96.5853L263.342 97.6992C263.498 97.8531 263.75 97.8531 263.905 97.6993L265.05 96.5667C265.206 96.4129 265.206 96.1635 265.05 96.0097Z" fill="#FF6440"/>
<path d="M271.921 95.9804L270.795 94.8664C270.639 94.7126 270.387 94.7126 270.232 94.8664L269.087 95.999C268.931 96.1528 268.931 96.4021 269.087 96.5559L270.213 97.6699C270.368 97.8238 270.62 97.8238 270.776 97.6699L271.921 96.5374C272.076 96.3836 272.076 96.1342 271.921 95.9804Z" fill="#FF6440"/>
<path d="M258.18 95.9081L257.053 94.7941C256.898 94.6403 256.646 94.6403 256.49 94.7941L255.346 95.9267C255.19 96.0805 255.19 96.3299 255.346 96.4837L256.472 97.5977C256.627 97.7515 256.879 97.7515 257.035 97.5977L258.18 96.4651C258.335 96.3113 258.335 96.0619 258.18 95.9081Z" fill="#FF6440"/>
<path d="M326.741 103.98H328.997C329.772 103.98 330.514 104.285 331.062 104.826C331.609 105.368 331.917 106.103 331.917 106.869V111.201C331.917 111.967 331.609 112.702 331.062 113.244C330.514 113.785 329.772 114.089 328.997 114.089H326.741V103.98Z" fill="#AABFF2"/>
<path d="M328.864 106.08H327.405C326.598 106.08 325.945 106.727 325.945 107.524V110.413C325.945 111.21 326.598 111.857 327.405 111.857H328.864C329.671 111.857 330.324 111.21 330.324 110.413V107.524C330.324 106.727 329.671 106.08 328.864 106.08Z" fill="#7D94DF"/>
<path d="M301.924 114.09H299.668C298.893 114.09 298.151 113.786 297.603 113.244C297.056 112.702 296.748 111.968 296.748 111.202V106.869C296.748 106.103 297.056 105.368 297.603 104.827C298.151 104.285 298.893 103.981 299.668 103.981H301.924V114.09Z" fill="#AABFF2"/>
<path d="M301.128 106.08H299.668C298.862 106.08 298.208 106.727 298.208 107.524V110.413C298.208 111.21 298.862 111.857 299.668 111.857H301.128C301.934 111.857 302.588 111.21 302.588 110.413V107.524C302.588 106.727 301.934 106.08 301.128 106.08Z" fill="#7D94DF"/>
<path d="M322.362 98.7305H306.304C303.079 98.7305 300.464 101.317 300.464 104.507V113.185C300.464 116.375 303.079 118.962 306.304 118.962H322.362C325.587 118.962 328.201 116.375 328.201 113.185V104.507C328.201 101.317 325.587 98.7305 322.362 98.7305Z" fill="#AABFF2"/>
<path d="M310.019 105.951H318.778C319.553 105.951 320.295 106.255 320.843 106.797C321.39 107.339 321.698 108.073 321.698 108.839V110.284C321.698 111.816 321.083 113.285 319.988 114.368C318.893 115.452 317.407 116.06 315.859 116.06H312.939C311.39 116.06 309.905 115.452 308.81 114.368C307.715 113.285 307.1 111.816 307.1 110.284V108.839C307.1 108.073 307.407 107.339 307.955 106.797C308.502 106.255 309.245 105.951 310.019 105.951Z" fill="#CBDAF7"/>
<path d="M317.186 112.383H315.859C315.419 112.383 315.062 112.706 315.062 113.105C315.062 113.504 315.419 113.827 315.859 113.827H317.186C317.626 113.827 317.982 113.504 317.982 113.105C317.982 112.706 317.626 112.383 317.186 112.383Z" fill="#AABFF2"/>
<path d="M312.674 112.383H311.347C310.907 112.383 310.55 112.706 310.55 113.105C310.55 113.504 310.907 113.827 311.347 113.827H312.674C313.113 113.827 313.47 113.504 313.47 113.105C313.47 112.706 313.113 112.383 312.674 112.383Z" fill="#AABFF2"/>
<path d="M304.843 109.758H302.72C302.28 109.758 301.924 110.081 301.924 110.48C301.924 110.879 302.28 111.202 302.72 111.202H304.843C305.283 111.202 305.64 110.879 305.64 110.48C305.64 110.081 305.283 109.758 304.843 109.758Z" fill="#333132"/>
<path d="M325.945 109.758H323.822C323.382 109.758 323.025 110.081 323.025 110.48C323.025 110.879 323.382 111.202 323.822 111.202H325.945C326.385 111.202 326.741 110.879 326.741 110.48C326.741 110.081 326.385 109.758 325.945 109.758Z" fill="#333132"/>
<path d="M330.988 102.012C330.988 103.056 330.569 104.058 329.822 104.797C329.075 105.535 328.063 105.95 327.007 105.95C326.479 105.968 325.953 105.879 325.461 105.688C324.97 105.496 324.524 105.207 324.15 104.837C323.777 104.468 323.484 104.026 323.291 103.54C323.097 103.054 323.007 102.534 323.025 102.012C323.025 99.911 327.007 95.4473 327.007 95.4473C327.007 95.4473 330.988 99.911 330.988 102.012Z" fill="#5AC8FA"/>
<path d="M53.8826 69.8457H53.7499C51.4777 69.8457 49.6357 71.6678 49.6357 73.9156V74.0075C49.6357 76.2552 51.4777 78.0773 53.7499 78.0773H53.8826C56.1547 78.0773 57.9967 76.2552 57.9967 74.0075V73.9156C57.9967 71.6678 56.1547 69.8457 53.8826 69.8457Z" fill="#B9BBBE"/>
<path d="M92.3696 71.4199H66.7559C65.3633 71.4199 64.2344 72.5367 64.2344 73.9143V73.9669C64.2344 75.3445 65.3633 76.4613 66.7559 76.4613H92.3696C93.7622 76.4613 94.8912 75.3445 94.8912 73.9669V73.9143C94.8912 72.5367 93.7622 71.4199 92.3696 71.4199Z" fill="#B9BBBE"/>
<path d="M53.8826 185.771H53.7499C51.4777 185.771 49.6357 187.594 49.6357 189.841V189.933C49.6357 192.181 51.4777 194.003 53.7499 194.003H53.8826C56.1547 194.003 57.9967 192.181 57.9967 189.933V189.841C57.9967 187.594 56.1547 185.771 53.8826 185.771Z" fill="#B9BBBE"/>
<path d="M92.3696 187.346H66.7559C65.3633 187.346 64.2344 188.462 64.2344 189.84V189.893C64.2344 191.27 65.3633 192.387 66.7559 192.387H92.3696C93.7622 192.387 94.8912 191.27 94.8912 189.893V189.84C94.8912 188.462 93.7622 187.346 92.3696 187.346Z" fill="#B9BBBE"/>
<defs>
<linearGradient id="paint0_linear_26218_65475" x1="303.238" y1="21.2422" x2="347.378" y2="21.2422" gradientUnits="userSpaceOnUse">
<stop stop-color="#8547C6"/>
<stop offset="0.53" stop-color="#B845C1"/>
<stop offset="1" stop-color="#AB5D8A"/>
</linearGradient>
<clipPath id="clip0_26218_65475">
<rect width="9" height="9" fill="white" transform="translate(331 39)"/>
</clipPath>
</defs>
</svg>
