<svg width="300" height="200" viewBox="0 0 300 200" fill="none" xmlns="http://www.w3.org/2000/svg">
<path d="M5.27072 143.191L294.732 143.191C297.642 143.191 300 140.832 300 137.922V5.26997C300 2.35966 297.642 0.000411987 294.732 0.000411987L5.27072 0.000411987C2.36151 0.000411987 0.00311279 2.35966 0.00311279 5.26997V137.922C0.00311279 140.832 2.36151 143.191 5.27072 143.191Z" fill="#5865F2"/>
<path d="M15.3728 131.843C15.5025 131.783 15.6667 131.857 15.6667 132C15.6667 133.473 14.4728 134.667 13.0001 134.667C11.5273 134.667 10.3334 133.473 10.3334 132C10.3334 130.527 11.5273 129.333 13.0001 129.333C13.1432 129.333 13.2173 129.498 13.1566 129.627C13.0562 129.842 13.0001 130.081 13.0001 130.333C13.0001 131.254 13.7463 132 14.6667 132C14.9191 132 15.1584 131.944 15.3728 131.843Z" fill="white"/>
<path fill-rule="evenodd" clip-rule="evenodd" d="M20.2578 131.795C20.3101 131.929 20.3101 132.071 20.2578 132.205C19.8488 133.257 17.742 138 13.0001 138C8.25815 138 6.15128 133.257 5.74233 132.205C5.69006 132.071 5.69006 131.929 5.74233 131.795C6.15128 130.743 8.25815 126 13.0001 126C17.742 126 19.8488 130.743 20.2578 131.795ZM17.2571 129.389C18.1151 130.354 18.6471 131.415 18.9005 132C18.6471 132.585 18.1151 133.646 17.2571 134.611C16.2496 135.745 14.8729 136.667 13.0001 136.667C11.1272 136.667 9.75052 135.745 8.743 134.611C7.88501 133.646 7.353 132.585 7.09965 132C7.353 131.415 7.88501 130.354 8.743 129.389C9.75052 128.255 11.1272 127.333 13.0001 127.333C14.8729 127.333 16.2496 128.255 17.2571 129.389Z" fill="white"/>
<path d="M221.114 152.83H154.948C153.458 152.83 152.25 154.038 152.25 155.529V197.236C152.25 198.727 153.458 199.935 154.948 199.935H221.114C222.604 199.935 223.812 198.727 223.812 197.236V155.529C223.812 154.038 222.604 152.83 221.114 152.83Z" fill="#EB459F"/>
<path d="M219.187 189.846C215.847 189.075 209.937 189.717 198.502 190.488C178.973 188.432 178.973 187.918 174.348 199.999H221.243L219.187 189.846Z" fill="#FF78B9"/>
<path d="M223.812 197.299V195.757C223.041 192.287 222.142 190.616 219.187 189.845C216.232 189.074 213.791 191.259 211.093 199.998H221.114C221.83 199.998 222.516 199.714 223.022 199.208C223.528 198.702 223.812 198.015 223.812 197.299Z" fill="#FFF7C9"/>
<path d="M157.646 200H169.723L178.973 184.834L170.108 179.436L157.646 200Z" fill="#D48D5E"/>
<path d="M206.725 185.092C209.937 184.834 209.808 184.963 209.68 189.718L199.787 193.831L192.978 192.932L189.894 189.718C190.536 184.32 190.151 183.935 192.721 184.449C195.29 184.963 199.144 185.606 206.725 185.092Z" fill="#FF78B9"/>
<path d="M223.812 162.727C222.271 160.67 221.628 157.971 219.958 154.372L219.187 152.83H184.626C198.759 165.94 212.121 171.338 223.812 173.523V162.727Z" fill="#CF8A5C"/>
<path d="M198.502 167.354C204.439 168.976 210.273 170.95 215.975 173.266L223.812 176.35V167.996C215.847 166.968 209.037 166.068 203.513 158.357L199.144 152.83H179.23C179.873 157.971 186.297 164.14 198.502 167.354Z" fill="#AA5F44"/>
<path d="M188.609 161.955C194.648 165.169 199.787 164.912 205.311 166.968C209.644 168.585 213.853 170.518 217.902 172.752C219.801 173.729 221.778 174.546 223.812 175.194V169.667C221.114 169.153 217.902 168.51 213.406 167.225C202.485 163.755 199.144 158.614 195.162 153.601L194.519 152.83H180.772C181.158 156.686 185.012 160.028 188.609 161.955Z" fill="#8F473B"/>
<path d="M206.211 166.582C206.082 166.582 205.954 166.325 205.954 166.196C205.954 166.068 206.211 165.811 206.339 165.939H209.937L211.35 166.453C209.653 166.757 207.92 166.801 206.211 166.582Z" fill="#6B2F34"/>
<path d="M223.812 169.924V169.667L222.656 169.41C219.05 169.784 215.406 169.344 211.992 168.125H211.735C216.104 170.438 219.958 172.495 223.812 174.166V173.395L216.361 169.796C218.802 170.567 221.371 171.338 223.812 171.852V171.724L217.774 170.181C219.789 170.386 221.822 170.3 223.812 169.924Z" fill="#6B2F34"/>
<path d="M200.044 162.856C196.446 163.37 188.224 161.056 183.599 158.229L185.783 160.156C188.98 161.631 192.345 162.71 195.804 163.37C197.288 163.631 198.797 163.717 200.301 163.627C200.381 163.567 200.445 163.489 200.49 163.4C200.535 163.311 200.558 163.212 200.558 163.113C200.558 162.984 200.429 162.984 200.301 162.856H200.558C200.558 162.756 200.535 162.657 200.49 162.568C200.445 162.479 200.381 162.401 200.301 162.341C192.592 159.514 188.481 156.429 186.168 152.959H185.397C188.481 157.714 193.62 160.414 200.044 162.856Z" fill="#6B2F34"/>
<path d="M203.256 165.683C203.222 165.683 203.189 165.669 203.165 165.645C203.141 165.621 203.127 165.588 203.127 165.554C202.352 164.851 201.725 164 201.284 163.051C200.842 162.102 200.596 161.073 200.558 160.027L201.329 160.67C201.537 162.361 202.36 163.917 203.641 165.04C203.704 165.111 203.739 165.202 203.739 165.297C203.739 165.392 203.704 165.483 203.641 165.554L203.256 165.683Z" fill="#6B2F34"/>
<path d="M197.474 160.285L197.86 160.67H198.374C198.437 160.599 198.472 160.508 198.472 160.413C198.472 160.318 198.437 160.227 198.374 160.156L197.988 159.77C195.547 157.457 193.748 155.786 192.721 152.83H191.95C193.106 156.043 195.033 157.843 197.474 160.285Z" fill="#6B2F34"/>
<path d="M208.395 186.76L208.009 185.218C207.475 182.93 207.519 180.545 208.138 178.278C209.423 173.522 210.579 171.98 212.249 168.124C207.016 166.4 202.201 163.598 198.117 159.898C193.106 168.381 191.564 174.036 192.078 188.303C192.131 189.048 192.387 189.766 192.817 190.377C193.247 190.988 193.835 191.471 194.519 191.773C198.117 193.444 201.714 192.287 207.624 188.945C207.989 188.73 208.267 188.393 208.408 187.994C208.549 187.594 208.544 187.157 208.395 186.76Z" fill="url(#paint0_linear_26218_64958)"/>
<path d="M195.932 180.206C197.474 182.905 199.016 183.548 199.915 182.263C200.31 181.559 200.489 180.754 200.429 179.949L195.932 180.206Z" fill="#C9106D"/>
<path d="M200.429 179.949L195.932 180.206C196.244 180.699 196.588 181.172 196.96 181.62C198.052 181.089 199.224 180.742 200.429 180.592V179.949Z" fill="black"/>
<path d="M185.654 167.74C185.693 167.432 185.832 167.146 186.049 166.926C186.266 166.705 186.55 166.562 186.856 166.518C187.163 166.474 187.475 166.532 187.745 166.683C188.016 166.834 188.229 167.07 188.352 167.354C193.748 174.68 194.905 171.852 197.346 176.736C200.686 173.652 202.87 175.708 216.361 174.937C218.288 174.808 218.031 176.865 216.104 178.407C214.177 179.95 210.194 179.95 208.395 179.307C206.339 183.291 203.127 183.291 196.96 178.664C187.453 180.335 187.068 177.122 188.995 174.166C185.012 171.724 185.397 169.025 185.654 167.74Z" fill="#6B2F34"/>
<path d="M201.329 172.11C200.815 172.881 200.815 173.781 201.2 173.909C201.586 174.038 202.228 173.781 202.743 173.01C203.257 172.238 203.514 171.467 203.128 171.21C202.743 170.953 201.843 171.339 201.329 172.11Z" fill="black"/>
<path d="M195.29 171.081C195.162 171.981 195.547 172.623 196.061 172.623C196.575 172.623 196.832 171.981 196.832 171.081C196.832 170.181 196.832 169.41 196.318 169.41C195.804 169.41 195.29 170.181 195.29 171.081Z" fill="black"/>
<path d="M208.909 159.127C209.166 160.67 211.221 162.212 213.534 162.598C215.847 162.983 217.388 162.084 217.131 160.541C216.732 159.231 216.002 158.047 215.012 157.101C214.022 156.155 212.805 155.481 211.478 155.143C209.294 154.758 208.652 157.585 208.909 159.127Z" fill="#EDB997"/>
<path d="M222.399 160.285C221.191 159.675 220.242 158.653 219.723 157.403C219.204 156.153 219.151 154.759 219.572 153.473C220.729 155.658 221.757 158.871 222.399 160.285Z" fill="#EDB997"/>
<path d="M197.217 193.958C197.66 192.359 198.262 190.809 199.016 189.331C199.273 188.946 200.044 188.946 201.457 188.56C203.985 188.099 206.446 187.321 208.78 186.247L209.551 187.403V194.344L205.954 199.356L187.324 198.714L189.766 189.717L191.307 185.09C192.721 186.632 194.905 187.917 195.419 188.56C195.933 189.203 195.547 189.074 195.804 190.874C195.938 192.383 196.152 193.885 196.446 195.372H196.703L197.217 193.958Z" fill="#FF78B9"/>
<path d="M194.776 199.999L195.548 196.786C195.676 196.657 195.548 196.4 195.291 196.4C195.033 196.4 194.905 196.4 194.905 196.657C194.541 197.744 194.282 198.863 194.134 199.999H194.776Z" fill="black"/>
<path d="M197.86 197.3C197.86 197.197 197.819 197.099 197.747 197.027C197.675 196.955 197.577 196.914 197.474 196.914L197.089 197.3L197.346 199.999H198.117L197.86 197.3Z" fill="black"/>
<path d="M199.244 195.108C199.297 193.192 198.191 191.607 196.772 191.568C195.354 191.528 194.16 193.049 194.107 194.965C194.053 196.881 195.16 198.466 196.579 198.505C197.997 198.545 199.191 197.024 199.244 195.108Z" fill="white"/>
<path d="M198.602 195.089C198.641 193.67 197.811 192.495 196.747 192.466C195.683 192.436 194.789 193.562 194.749 194.981C194.709 196.4 195.54 197.575 196.604 197.605C197.668 197.634 198.562 196.508 198.602 195.089Z" fill="#8CD9FF"/>
<path d="M209.68 186.762C209.598 186.603 209.463 186.478 209.299 186.408C209.135 186.338 208.952 186.327 208.78 186.376C206.446 187.451 203.985 188.228 201.457 188.69C200.044 189.075 199.273 189.075 199.016 189.461L198.759 189.718C199.273 188.818 199.658 189.975 200.044 191.389C200.587 193.448 201.274 195.467 202.099 197.43C202.742 198.586 202.87 198.715 204.797 196.658C206.564 194.491 208.195 192.216 209.68 189.847V186.89V186.762Z" fill="url(#paint1_linear_26218_64958)"/>
<path d="M190.536 195.116C190.922 197.044 190.922 197.301 191.95 195.373C192.958 193.497 193.858 191.566 194.648 189.589C195.033 188.689 195.419 188.432 195.547 188.689C195.033 188.047 192.978 186.89 191.564 185.348H191.05C190.91 185.376 190.779 185.437 190.667 185.527C190.555 185.616 190.466 185.731 190.408 185.862L189.894 189.846C190.151 191.645 190.408 194.087 190.536 195.116Z" fill="url(#paint2_linear_26218_64958)"/>
<path d="M174.605 186.761C168.438 186.761 167.025 185.476 165.74 182.905C164.455 180.335 164.712 178.536 167.539 174.423C170.365 170.31 172.421 168.768 174.605 168.896C176.789 169.025 176.918 169.667 177.303 170.824C177.659 170.633 178.056 170.533 178.459 170.533C178.863 170.533 179.26 170.633 179.616 170.824C179.972 171.058 180.256 171.386 180.437 171.772C180.619 172.157 180.69 172.585 180.644 173.009C182.181 174.887 183.597 176.862 184.883 178.921C185.654 180.335 186.554 181.235 183.727 184.448C180.901 187.661 179.744 186.761 174.605 186.761Z" fill="#D48D5E"/>
<path d="M182.314 180.463C184.655 180.463 186.554 178.564 186.554 176.222C186.554 173.879 184.655 171.98 182.314 171.98C179.972 171.98 178.074 173.879 178.074 176.222C178.074 178.564 179.972 180.463 182.314 180.463Z" fill="#FFE75C"/>
<path d="M185.783 181.235C186.847 181.235 187.71 180.372 187.71 179.307C187.71 178.242 186.847 177.379 185.783 177.379C184.718 177.379 183.856 178.242 183.856 179.307C183.856 180.372 184.718 181.235 185.783 181.235Z" fill="#FFE75C"/>
<path d="M178.716 171.081C180.13 169.025 182.057 168.382 183.599 169.924C185.14 171.467 185.783 173.138 184.626 174.037C183.47 174.937 181.8 172.366 181.8 172.366L180.001 174.808L178.716 171.081Z" fill="#D48D5E"/>
<path d="M181.286 174.552C182.066 174.552 182.699 173.919 182.699 173.138C182.699 172.358 182.066 171.725 181.286 171.725C180.505 171.725 179.873 172.358 179.873 173.138C179.873 173.919 180.505 174.552 181.286 174.552Z" fill="#FFE75C"/>
<path d="M178.716 182.006C180.561 182.006 182.057 180.509 182.057 178.664C182.057 176.818 180.561 175.322 178.716 175.322C176.872 175.322 175.376 176.818 175.376 178.664C175.376 180.509 176.872 182.006 178.716 182.006Z" fill="#FFE75C"/>
<path d="M173.706 181.363C175.764 181.363 177.432 179.694 177.432 177.635C177.432 175.577 175.764 173.908 173.706 173.908C171.648 173.908 169.98 175.577 169.98 177.635C169.98 179.694 171.648 181.363 173.706 181.363Z" fill="#FFE75C"/>
<path d="M172.549 176.094C173.472 176.094 174.22 175.346 174.22 174.423C174.22 173.5 173.472 172.752 172.549 172.752C171.627 172.752 170.879 173.5 170.879 174.423C170.879 175.346 171.627 176.094 172.549 176.094Z" fill="#FFE75C"/>
<path d="M179.616 170.823C179.26 170.631 178.863 170.531 178.459 170.531C178.056 170.531 177.659 170.631 177.303 170.823C176.918 169.666 176.404 169.023 174.605 168.895C173.6 168.796 172.594 169.07 171.779 169.666L173.706 173.522C172.935 174.164 172.036 175.193 172.806 176.478C173.577 177.763 175.633 177.249 176.404 176.478C180.258 178.406 180.515 174.807 180.644 173.008C180.69 172.584 180.619 172.156 180.437 171.77C180.256 171.385 179.972 171.057 179.616 170.823Z" fill="#D48D5E"/>
<path d="M184.241 183.805C186.554 180.849 186.682 179.563 183.342 177.893C180.001 176.222 179.23 177.893 179.102 178.664C178.973 179.435 179.359 180.206 181.029 181.234C177.175 181.234 174.22 183.034 173.706 186.761H174.605C179.744 186.761 181.158 187.404 183.727 184.447L184.241 183.805Z" fill="#D48D5E"/>
<path d="M188.866 193.701C190.711 193.701 192.207 192.205 192.207 190.359C192.207 188.514 190.711 187.018 188.866 187.018C187.021 187.018 185.526 188.514 185.526 190.359C185.526 192.205 187.021 193.701 188.866 193.701Z" fill="#FFE75C"/>
<path d="M192.593 183.29C193.231 183.29 193.749 182.772 193.749 182.133C193.749 181.494 193.231 180.977 192.593 180.977C191.954 180.977 191.436 181.494 191.436 182.133C191.436 182.772 191.954 183.29 192.593 183.29Z" fill="#FFE75C"/>
<path d="M176.147 191.002C177.992 191.002 179.487 189.506 179.487 187.66C179.487 185.814 177.992 184.318 176.147 184.318C174.302 184.318 172.806 185.814 172.806 187.66C172.806 189.506 174.302 191.002 176.147 191.002Z" fill="#FFE75C"/>
<path d="M171.008 193.701C172.853 193.701 174.348 192.205 174.348 190.359C174.348 188.514 172.853 187.018 171.008 187.018C169.163 187.018 167.667 188.514 167.667 190.359C167.667 192.205 169.163 193.701 171.008 193.701Z" fill="#FFE75C"/>
<path d="M166.383 188.818H192.978L191.307 200H168.053L166.383 188.818Z" fill="#3442D8"/>
<path d="M186.297 191.131C188.141 191.131 189.637 189.635 189.637 187.789C189.637 185.943 188.141 184.447 186.297 184.447C184.452 184.447 182.956 185.943 182.956 187.789C182.956 189.635 184.452 191.131 186.297 191.131Z" fill="#FFE75C"/>
<path d="M180.387 192.674C182.231 192.674 183.727 191.177 183.727 189.332C183.727 187.486 182.231 185.99 180.387 185.99C178.542 185.99 177.046 187.486 177.046 189.332C177.046 191.177 178.542 192.674 180.387 192.674Z" fill="#FFE75C"/>
<path d="M169.081 188.818H190.408L188.995 200H170.365L169.081 188.818Z" fill="#66BCFF"/>
<path d="M172.678 188.818H186.811L185.911 200H173.577L172.678 188.818Z" fill="#3442D8"/>
<path d="M177.303 188.818H182.057L181.8 200H177.56L177.303 188.818Z" fill="#66BCFF"/>
<path d="M166.254 188.561H193.234C193.371 188.561 193.501 188.615 193.598 188.711C193.694 188.808 193.748 188.938 193.748 189.075C193.768 189.152 193.77 189.233 193.753 189.311C193.737 189.389 193.702 189.462 193.652 189.525C193.602 189.587 193.539 189.637 193.466 189.67C193.394 189.704 193.314 189.72 193.234 189.717H166.254C166.084 189.717 165.92 189.65 165.8 189.529C165.679 189.409 165.612 189.245 165.612 189.075C165.642 188.927 165.722 188.795 165.84 188.701C165.957 188.607 166.104 188.558 166.254 188.561Z" fill="white"/>
<path d="M178.203 170.566L177.304 170.823C178.332 174.037 177.561 175.45 176.147 176.607H176.404L177.304 176.993C178.846 175.322 179.103 173.394 178.203 170.566Z" fill="#8F473B"/>
<path d="M173.577 183.42C173.32 183.42 173.192 183.42 173.192 183.163C173.124 183.146 173.065 183.102 173.029 183.042C172.993 182.982 172.982 182.91 172.999 182.841C173.016 182.773 173.06 182.715 173.12 182.679C173.18 182.642 173.252 182.632 173.32 182.649C175.75 181.187 178.605 180.598 181.414 180.978C181.671 181.106 181.928 181.235 181.8 181.492C181.671 181.749 181.543 182.006 181.414 181.878C178.746 181.537 176.038 182.078 173.706 183.42H173.577Z" fill="#8F473B"/>
<path d="M180.001 180.463L182.314 182.391L183.213 180.591L180.001 180.463Z" fill="#D48D5E"/>
<path d="M2.82953 200H68.7389C70.2999 200 71.5654 198.734 71.5654 197.172V155.723C71.5654 154.161 70.2999 152.895 68.7389 152.895H2.82953C1.26849 152.895 0.00299072 154.161 0.00299072 155.723V197.172C0.00299072 198.734 1.26849 200 2.82953 200Z" fill="#66BCFF"/>
<path d="M16.1917 157.457C16.7595 157.457 17.2199 156.996 17.2199 156.429C17.2199 155.861 16.7595 155.4 16.1917 155.4C15.6238 155.4 15.1635 155.861 15.1635 156.429C15.1635 156.996 15.6238 157.457 16.1917 157.457Z" fill="#66BCFF"/>
<path d="M13.2367 160.799C13.8046 160.799 14.2649 160.338 14.2649 159.77C14.2649 159.203 13.8046 158.742 13.2367 158.742C12.6688 158.742 12.2085 159.203 12.2085 159.77C12.2085 160.338 12.6688 160.799 13.2367 160.799Z" fill="#66BCFF"/>
<path d="M62.315 190.231C61.7995 189.697 61.4436 189.029 61.2872 188.303C59.874 177.892 55.8911 176.864 47.9255 178.021C45.6634 178.256 43.3855 178.299 41.1161 178.15L26.9835 176.864C23.8511 176.594 20.7766 175.857 17.8615 174.679C11.5661 172.109 5.01372 172.109 2.57263 183.291C2.53415 183.627 2.42214 183.952 2.24453 184.24C2.06692 184.529 1.82805 184.775 1.54482 184.961L0.00306059 186.118V197.171C-0.0143391 197.537 0.0425858 197.901 0.170363 198.244C0.29814 198.586 0.494123 198.899 0.746414 199.164C0.998705 199.428 1.30205 199.638 1.63805 199.782C1.97406 199.926 2.33573 199.999 2.70111 199.999H65.3985C67.0687 195.501 64.6277 192.416 62.315 190.231Z" fill="#D11583"/>
<path d="M16.8337 191.26C18.2909 191.244 19.7048 191.755 20.8146 192.7C21.9244 193.645 22.6552 194.96 22.8721 196.401C23.1412 197.611 23.0058 198.875 22.4867 200H11.6945C11.423 199.378 11.208 198.733 11.0522 198.072C10.9232 197.234 10.9757 196.379 11.2062 195.563C11.4367 194.748 11.8398 193.992 12.3881 193.345C12.9364 192.699 13.6172 192.179 14.3842 191.819C15.1512 191.459 15.9866 191.269 16.8337 191.26Z" fill="#EB459F"/>
<path d="M53.964 191.259C54.8146 191.241 55.6582 191.415 56.432 191.769C57.2059 192.122 57.89 192.646 58.4333 193.301C58.9767 193.955 59.3654 194.725 59.5703 195.55C59.7753 196.376 59.7913 197.238 59.6171 198.071C59.567 198.74 59.3927 199.394 59.1032 199.999H48.311C47.817 198.868 47.6394 197.624 47.7971 196.4C48.0662 194.959 48.8294 193.657 49.9552 192.719C51.0809 191.78 52.4987 191.264 53.964 191.259Z" fill="#EB459F"/>
<path d="M53.7867 173.585C54.4125 170.176 52.6086 166.988 49.7576 166.464C46.9065 165.94 44.088 168.279 43.4622 171.688C42.8363 175.096 44.6402 178.284 47.4912 178.808C50.3423 179.332 53.1608 176.993 53.7867 173.585Z" fill="black"/>
<path d="M52.6792 164.654C53.1931 175.194 45.3559 184.319 35.2062 184.962C25.0564 185.604 16.3199 177.764 15.6775 167.225C15.4646 161.942 17.3067 156.783 20.8166 152.83H47.7971C50.7224 156.101 52.4447 160.272 52.6792 164.654Z" fill="#D11583"/>
<path d="M37.3903 156.943C38.5466 161.57 41.3731 163.884 44.7136 164.655C43.4288 168.254 43.0434 170.953 44.0712 174.166C42.4954 174.675 41.0597 175.543 39.8778 176.703C38.6959 177.863 37.8003 179.283 37.2618 180.849C36.7953 178.961 35.7757 177.254 34.3336 175.949C32.8916 174.644 31.0928 173.799 29.1677 173.523C30.7095 169.282 30.9664 166.197 29.1677 162.599C32.6366 161.956 36.1055 160.285 37.3903 156.943Z" fill="#FFC619"/>
<path d="M22.3583 165.169C22.4056 166.716 21.8816 168.227 20.8862 169.412C19.8909 170.597 18.494 171.374 16.9622 171.595C13.8787 171.852 11.4376 169.153 11.4376 165.811C11.4376 162.47 13.8787 159.385 16.9622 159.256C20.0457 159.128 22.3583 161.827 22.3583 165.169Z" fill="black"/>
<path d="M19.6602 152.959C19.5317 154.758 19.4033 157.071 19.4033 160.799H14.2642C14.4099 158.213 14.7102 155.637 15.1635 153.087V152.83H19.6602V152.959Z" fill="white"/>
<path d="M19.6611 152.959C19.5326 154.501 19.4041 156.686 19.4041 159.899C19.4041 163.112 20.9464 164.14 19.4041 164.912L17.4762 164.526C17.6047 161.827 17.7332 156.814 17.9903 153.987C17.9701 153.597 18.0135 153.206 18.1188 152.83H19.6611V152.959Z" fill="black"/>
<path d="M18.9896 163.828C19.1982 160.847 17.5266 158.301 15.256 158.142C12.9854 157.983 10.9756 160.271 10.767 163.252C10.5584 166.234 12.23 168.779 14.5006 168.938C16.7712 169.097 18.781 166.809 18.9896 163.828Z" fill="white"/>
<path d="M16.7646 165.558C16.9101 163.576 15.9381 161.889 14.5935 161.79C13.249 161.691 12.0411 163.218 11.8955 165.2C11.75 167.182 12.722 168.869 14.0666 168.968C15.4112 169.067 16.6191 167.54 16.7646 165.558Z" fill="#8CD9FF"/>
<path d="M38.033 152.83C38.18 154.372 38.1368 155.926 37.9045 157.457C37.8753 157.57 37.8085 157.67 37.7151 157.74C37.6216 157.81 37.5071 157.846 37.3904 157.843C37.1333 157.714 37.0048 157.586 37.0048 157.328C37.237 155.84 37.2802 154.329 37.1333 152.83H38.033Z" fill="black"/>
<path d="M29.1677 162.984C29.2962 162.984 29.4246 162.984 29.5531 162.727C29.6816 162.47 29.5531 162.341 29.4246 162.212C29.2962 162.084 25.9557 160.542 25.8273 160.413C25.6988 160.285 25.3134 160.542 25.3134 160.799C25.3134 161.056 25.3133 161.184 25.5703 161.313C26.7402 161.749 27.8601 162.309 28.9107 162.984H29.1677Z" fill="black"/>
<path d="M44.7136 165.169H44.8421L47.2832 164.141C47.3983 164.085 47.4884 163.988 47.536 163.869C47.5835 163.75 47.585 163.618 47.5402 163.498C47.4117 163.241 47.1547 163.241 46.8978 163.37L44.5852 164.269C44.3282 164.269 44.1997 164.526 44.1997 164.783C44.1997 165.04 44.4567 165.169 44.7136 165.169Z" fill="black"/>
<path d="M44.8425 175.322C44.971 175.322 45.0995 175.322 45.0995 175.193C45.0995 175.065 45.3566 174.807 45.2281 174.55L44.3284 173.779H43.6857C43.5572 174.036 43.5572 174.293 43.8143 174.422L44.4569 175.193L44.8425 175.322Z" fill="black"/>
<path d="M25.0563 174.809H25.1848C26.5861 174.674 27.9662 174.372 29.2961 173.909C29.4112 173.854 29.5014 173.757 29.5489 173.638C29.5964 173.519 29.5979 173.387 29.5531 173.267L29.0392 173.01C27.7813 173.547 26.4236 173.81 25.0563 173.781C24.7994 173.909 24.6709 174.038 24.6709 174.295C24.6672 174.412 24.7033 174.526 24.7734 174.62C24.8435 174.713 24.9433 174.78 25.0563 174.809Z" fill="black"/>
<path d="M33.022 166.969L41.5015 169.025C39.1889 172.367 38.0326 174.552 33.022 166.969Z" fill="black"/>
<path d="M32.2511 168.124H32.3796L34.6922 166.839C34.9491 166.711 34.9491 166.453 34.8207 166.196C34.8377 166.128 34.827 166.056 34.7908 165.996C34.7547 165.936 34.6961 165.892 34.628 165.875C34.5598 165.858 34.4877 165.869 34.4274 165.905C34.3672 165.941 34.3238 166 34.3068 166.068L31.9941 167.353C31.7372 167.482 31.7372 167.739 31.8656 167.996C31.9941 168.253 31.9941 168.124 32.2511 168.124Z" fill="black"/>
<path d="M34.3068 168.768C37.1333 172.623 38.5465 172.623 39.8313 171.338C39.1334 170.557 38.2835 169.926 37.3337 169.484C36.3838 169.042 35.3539 168.798 34.3068 168.768Z" fill="#EB459F"/>
<path d="M52.6792 192.16L53.1931 191.903C54.2539 189.581 55.1136 187.173 55.7626 184.705C55.7737 184.571 55.7424 184.437 55.6733 184.322C55.6041 184.207 55.5006 184.116 55.3772 184.062C55.1203 184.062 54.9918 184.191 54.8633 184.448C54.3181 186.906 53.4542 189.283 52.2937 191.517C52.2738 191.567 52.2646 191.622 52.267 191.676C52.2693 191.73 52.2831 191.783 52.3073 191.832C52.3316 191.88 52.3657 191.923 52.4077 191.957C52.4496 191.992 52.4984 192.017 52.5507 192.031L52.6792 192.16Z" fill="black"/>
<path d="M15.9344 192.93C16.0707 192.93 16.2014 192.876 16.2978 192.779C16.3942 192.683 16.4483 192.552 16.4483 192.416C15.7912 187.852 14.8036 183.341 13.4934 178.921C13.4375 178.805 13.3407 178.715 13.2219 178.668C13.1031 178.62 12.9708 178.619 12.851 178.663C12.7225 178.663 12.594 178.921 12.594 179.178C13.8982 183.556 14.8858 188.024 15.549 192.544C15.549 192.647 15.5896 192.745 15.6619 192.817C15.7342 192.889 15.8322 192.93 15.9344 192.93Z" fill="black"/>
<path d="M24.7994 188.818C30.7094 191.645 31.0949 195.244 29.4247 198.714L28.6538 199.999H15.9344C12.4655 197.429 12.4655 194.473 13.8788 191.645C15.292 188.818 18.7609 185.99 24.7994 188.818Z" fill="#FFC619"/>
<path d="M45.7414 189.331C51.3945 186.632 54.478 188.689 56.1482 192.287C57.8184 195.886 57.6899 197.685 55.1203 199.999H42.0156L41.5016 199.099C39.8314 195.501 40.0884 191.902 45.7414 189.331Z" fill="#FFC619"/>
<path d="M22.2298 195.245C24.9279 196.53 27.8829 193.574 30.4525 190.232C32.1659 191.649 34.2748 192.502 36.4909 192.674C38.4986 192.566 40.4257 191.849 42.0155 190.618C43.3003 193.317 45.356 196.016 47.6686 194.988C49.9812 193.959 49.9812 190.489 48.4395 186.633C48.1217 185.846 47.6346 185.139 47.0129 184.562C46.3912 183.984 45.65 183.551 44.842 183.292C42.4373 182.747 39.9839 182.445 37.5188 182.392C33.866 182.193 30.2024 182.409 26.5981 183.035C25.1889 183.416 23.9879 184.34 23.2577 185.605C21.202 189.204 18.8894 193.445 22.2298 195.245Z" fill="white"/>
<path d="M41.887 186.505L39.8314 187.918C39.073 188.492 38.1483 188.802 37.1976 188.802C36.2469 188.802 35.3222 188.492 34.5638 187.918L32.7651 186.505C32.5758 186.352 32.4395 186.144 32.3754 185.909C32.3113 185.674 32.3227 185.426 32.4081 185.198C32.4934 184.97 32.6484 184.775 32.8508 184.641C33.0533 184.506 33.293 184.439 33.536 184.448H41.3731C41.5949 184.486 41.8008 184.587 41.9659 184.74C42.131 184.892 42.2479 185.09 42.3025 185.308C42.357 185.526 42.3468 185.756 42.273 185.968C42.1992 186.181 42.0651 186.367 41.887 186.505Z" fill="#57F287"/>
<path d="M43.8134 187.019C43.8134 187.658 44.3313 188.176 44.9701 188.176C45.609 188.176 46.1268 187.658 46.1268 187.019V185.592C46.1268 184.954 45.609 184.436 44.9701 184.436C44.3313 184.436 43.8134 184.954 43.8134 185.592V187.019Z" fill="#163352"/>
<path d="M27.8821 187.019C27.8821 187.658 28.3999 188.176 29.0388 188.176C29.6776 188.176 30.1956 187.658 30.1956 187.019V185.592C30.1956 184.954 29.6776 184.436 29.0388 184.436C28.3999 184.436 27.8821 184.954 27.8821 185.592V187.019Z" fill="#163352"/>
<path d="M145.055 152.83H78.6318C77.2127 152.83 76.0623 153.981 76.0623 155.401V197.364C76.0623 198.784 77.2127 199.935 78.6318 199.935H145.055C146.474 199.935 147.625 198.784 147.625 197.364V155.401C147.625 153.981 146.474 152.83 145.055 152.83Z" fill="#29CC7A"/>
<path d="M297.43 152.83H231.007C229.588 152.83 228.438 153.981 228.438 155.401V197.364C228.438 198.784 229.588 199.935 231.007 199.935H297.43C298.85 199.935 300 198.784 300 197.364V155.401C300 153.981 298.85 152.83 297.43 152.83Z" fill="#91FFAD"/>
<path d="M297.174 152.83H231.264C229.703 152.83 228.438 154.096 228.438 155.658V197.107C228.438 198.669 229.703 199.935 231.264 199.935H297.174C298.735 199.935 300 198.669 300 197.107V155.658C300 154.096 298.735 152.83 297.174 152.83Z" fill="#5865F2"/>
<path d="M247.966 195.244C240.9 185.733 237.688 181.363 233.063 184.062C228.438 186.761 232.035 193.188 237.046 200H261.2V186.119C253.491 187.018 251.05 190.489 247.966 195.244Z" fill="url(#paint3_linear_26218_64958)"/>
<path d="M299.486 198.842C297.995 196.312 296.365 193.866 294.604 191.516C287.409 181.362 285.611 181.619 267.495 185.346C256.189 187.788 252.849 191.13 252.335 199.998H297.174C297.621 199.993 298.062 199.887 298.463 199.686C298.864 199.486 299.214 199.197 299.486 198.842Z" fill="#7196FF"/>
<path d="M254.39 188.174C256.575 193.444 262.741 198.713 269.551 197.042C279.572 194.6 278.287 188.174 285.739 188.174V186.632C281.371 182.519 283.812 182.647 270.322 185.346C268.031 185.806 265.793 186.495 263.641 187.403V186.118C257.988 186.76 258.759 183.547 256.446 186.503L254.39 188.174Z" fill="#4D7AF7"/>
<path d="M283.169 192.416C283.041 192.159 282.784 192.159 282.527 192.288C282.475 192.302 282.426 192.327 282.384 192.361C282.342 192.396 282.308 192.439 282.284 192.487C282.259 192.536 282.246 192.589 282.243 192.643C282.241 192.697 282.25 192.751 282.27 192.802L285.739 199.999H286.767L283.169 192.416Z" fill="#4D7AF7"/>
<path d="M246.238 182.472L281.698 182.41C284.111 182.406 286.063 180.446 286.059 178.032L286.044 169.46C286.04 167.046 284.081 165.093 281.668 165.098L246.208 165.159C243.796 165.164 241.843 167.124 241.848 169.537L241.863 178.11C241.867 180.523 243.826 182.476 246.238 182.472Z" fill="#7196FF"/>
<path d="M282.45 157.715H251.872C246.905 157.715 242.879 161.743 242.879 166.712V181.299C242.879 186.268 246.905 190.296 251.872 190.296H282.45C287.417 190.296 291.443 186.268 291.443 181.299V166.712C291.443 161.743 287.417 157.715 282.45 157.715Z" fill="#7196FF"/>
<path d="M249.637 171.339C250.985 171.339 252.078 170.246 252.078 168.897C252.078 167.548 250.985 166.455 249.637 166.455C248.288 166.455 247.196 167.548 247.196 168.897C247.196 170.246 248.288 171.339 249.637 171.339Z" fill="black"/>
<path d="M254.317 164.364L271.79 164.333C272.574 164.332 273.326 164.642 273.881 165.196C274.436 165.749 274.749 166.5 274.75 167.284L274.763 174.482C274.766 176.391 274.011 178.223 272.665 179.575C271.318 180.927 269.489 181.689 267.581 181.692L257.688 181.709C256.018 181.712 254.416 181.051 253.233 179.872C252.05 178.693 251.384 177.093 251.381 175.422L251.367 167.325C251.367 166.937 251.442 166.553 251.59 166.194C251.738 165.835 251.955 165.508 252.229 165.233C252.503 164.958 252.828 164.74 253.187 164.591C253.545 164.442 253.929 164.365 254.317 164.364Z" fill="#B8CDFF"/>
<path d="M257.474 177.635H256.06C255.881 177.653 255.7 177.633 255.529 177.577C255.358 177.52 255.201 177.428 255.068 177.307C254.934 177.186 254.828 177.038 254.756 176.873C254.683 176.708 254.646 176.53 254.647 176.35C254.679 175.997 254.842 175.67 255.104 175.432C255.366 175.194 255.707 175.063 256.06 175.064H257.474C257.827 175.063 258.169 175.194 258.43 175.432C258.692 175.67 258.855 175.997 258.887 176.35C258.888 176.53 258.851 176.708 258.778 176.873C258.706 177.038 258.6 177.186 258.466 177.307C258.333 177.428 258.176 177.52 258.005 177.577C257.834 177.633 257.653 177.653 257.474 177.635Z" fill="#7196FF"/>
<path d="M266.467 177.636H263.898C263.544 177.637 263.203 177.506 262.941 177.268C262.68 177.03 262.517 176.703 262.484 176.35C262.483 176.17 262.52 175.992 262.593 175.827C262.665 175.662 262.772 175.514 262.905 175.393C263.038 175.272 263.195 175.18 263.366 175.123C263.537 175.067 263.718 175.047 263.898 175.065H266.467C266.646 175.047 266.827 175.067 266.998 175.123C267.169 175.18 267.327 175.272 267.46 175.393C267.593 175.514 267.7 175.662 267.772 175.827C267.844 175.992 267.881 176.17 267.88 176.35C267.848 176.703 267.685 177.03 267.424 177.268C267.162 177.506 266.821 177.637 266.467 177.636Z" fill="#7196FF"/>
<path d="M285.668 165.594L293.762 165.58C294.853 165.578 295.899 166.009 296.671 166.779C297.444 167.549 297.879 168.594 297.881 169.685L297.897 178.811C297.899 179.901 297.467 180.948 296.698 181.721C295.928 182.494 294.883 182.929 293.792 182.931L285.698 182.945L285.668 165.594Z" fill="#7196FF"/>
<path d="M290.168 167.643L292.481 167.639C292.992 167.638 293.483 167.84 293.845 168.201C294.207 168.562 294.411 169.052 294.412 169.563L294.424 176.632C294.425 177.143 294.223 177.634 293.862 177.996C293.501 178.358 293.011 178.562 292.5 178.563L290.188 178.567L290.169 167.771L290.168 167.643Z" fill="#B8CDFF"/>
<path d="M280.6 171.466C282.09 171.466 283.298 170.258 283.298 168.767C283.298 167.277 282.09 166.068 280.6 166.068C279.11 166.068 277.902 167.277 277.902 168.767C277.902 170.258 279.11 171.466 280.6 171.466Z" fill="black"/>
<path d="M266.596 183.933L272.12 182.52C272.377 182.52 272.634 182.777 272.506 183.034C271.093 187.661 269.294 186.504 266.467 184.704C266.42 184.648 266.385 184.581 266.365 184.509C266.346 184.438 266.342 184.363 266.354 184.289C266.366 184.216 266.394 184.146 266.436 184.085C266.478 184.023 266.532 183.972 266.596 183.933Z" fill="#9C1061"/>
<path d="M272.506 183.162L270.964 183.548C269.742 183.895 268.634 184.561 267.752 185.476C269.936 186.761 271.478 186.889 272.506 183.162Z" fill="#FF78B9"/>
<path d="M266.724 156.3H280.857C280.866 155.047 280.46 153.827 279.701 152.83H271.863C268.266 156.172 266.724 156.3 266.724 156.3Z" fill="#29CC7A"/>
<path d="M256.06 156.3H271.863C271.863 156.3 270.322 156.172 266.853 152.83H255.29C255.148 154.041 255.419 155.264 256.06 156.3Z" fill="#57F287"/>
<path d="M111.908 195.114C122.196 195.114 130.537 186.771 130.537 176.478C130.537 166.186 122.196 157.842 111.908 157.842C101.619 157.842 93.2783 166.186 93.2783 176.478C93.2783 186.771 101.619 195.114 111.908 195.114Z" fill="#57F287"/>
<path d="M95.5918 175.321L93.7924 172.236C93.5591 173.123 93.3874 174.025 93.2783 174.935L95.5918 175.321Z" fill="#FF78B9"/>
<path d="M96.2334 175.449C97.5181 175.578 98.289 174.807 97.9036 173.393C97.2704 171.413 96.4976 169.48 95.591 167.609C94.4073 169.615 93.6629 171.849 93.4069 174.164C94.2556 174.774 95.216 175.211 96.2334 175.449Z" fill="white"/>
<path d="M126.04 164.269C124.781 162.898 123.357 161.689 121.8 160.67L120.13 170.181C121.8 169.281 125.269 167.096 126.04 164.526V164.269Z" fill="#FF78B9"/>
<path d="M118.203 158.869C117.878 159.56 117.662 160.297 117.561 161.054C117.239 163.783 117.153 166.536 117.304 169.28C117.312 169.546 117.39 169.806 117.529 170.033C117.668 170.261 117.863 170.449 118.096 170.578C118.329 170.707 118.591 170.774 118.858 170.772C119.124 170.77 119.386 170.698 119.616 170.565C120.387 170.051 121.544 164.267 122.057 160.797C120.84 160.027 119.549 159.382 118.203 158.869Z" fill="white"/>
<path d="M128.867 173.779L125.398 174.55L126.811 180.977L130.152 180.334C130.407 179.065 130.536 177.773 130.537 176.478C130.558 175.833 130.515 175.187 130.408 174.55C130.223 174.318 129.988 174.129 129.722 173.995C129.456 173.862 129.164 173.789 128.867 173.779Z" fill="#7196FF"/>
<path d="M121.03 188.688H119.359L105.484 190.615C104.245 190.874 103.094 191.45 102.143 192.286C105.062 194.142 108.45 195.123 111.908 195.114C116.572 195.144 121.074 193.398 124.499 190.23C123.567 189.312 122.335 188.764 121.03 188.688Z" fill="white"/>
<path d="M122.571 183.289L98.4175 187.145L98.6744 189.073C98.8029 189.33 98.8029 189.587 98.9314 189.844C99.8264 190.724 100.818 191.5 101.886 192.157H103.428L120.516 189.458C121.277 189.362 121.972 188.972 122.451 188.372C122.931 187.773 123.158 187.01 123.085 186.245L122.571 183.289Z" fill="#7196FF"/>
<path d="M119.874 183.805L120.773 189.46H120.131L119.102 183.805H119.874Z" fill="#5865F2"/>
<path d="M112.936 184.832L113.964 190.616L113.193 190.744L112.165 184.961L112.936 184.832Z" fill="#5865F2"/>
<path d="M105.998 185.988L107.026 191.643L106.383 191.772L105.355 185.988H105.998Z" fill="#5865F2"/>
<path d="M128.738 176.863C127.839 172.108 124.242 170.694 122.314 169.923C120.387 169.152 117.818 167.481 116.918 166.067C116.019 164.653 111.137 159.898 105.355 161.055C99.5738 162.211 97.1327 166.581 96.3618 170.823C95.9764 172.879 95.9763 173.907 94.82 175.321C93.6637 176.735 93.7922 176.606 93.2783 177.249C93.3891 179.98 94.1032 182.653 95.3694 185.075C96.6356 187.497 98.4225 189.609 100.602 191.258H101.886L122.057 187.145C124.297 186.652 126.253 185.297 127.503 183.373C128.753 181.45 129.197 179.111 128.738 176.863Z" fill="white"/>
<path d="M116.405 169.538C116.919 169.795 116.662 170.566 116.148 171.465C115.634 172.365 114.991 173.136 114.606 172.751C114.22 172.365 114.349 171.723 114.863 170.823C115.377 169.923 116.02 169.281 116.405 169.538Z" fill="black"/>
<path d="M111.908 174.808C111.779 174.294 113.707 173.908 113.836 174.422C113.964 174.937 113.45 175.322 113.064 175.451C112.827 175.497 112.58 175.458 112.369 175.34C112.157 175.223 111.994 175.034 111.908 174.808Z" fill="black"/>
<path d="M113.578 178.148C113.321 180.076 112.036 181.49 110.751 181.233C109.467 180.976 108.567 179.434 108.824 177.506L113.578 178.148Z" fill="#FFAED7"/>
<path d="M103.942 172.109C103.557 172.495 104.199 173.138 104.97 173.78C105.741 174.423 106.64 174.808 106.897 174.423C107.154 174.037 106.769 173.138 105.998 172.495C105.227 171.852 104.199 171.595 103.942 172.109Z" fill="black"/>
<path d="M105.227 178.534H104.97L102.786 176.606C102.657 176.606 102.657 176.349 102.786 176.221H103.3L105.355 178.02C105.418 178.091 105.453 178.182 105.453 178.277C105.453 178.372 105.418 178.463 105.355 178.534C105.336 178.523 105.314 178.517 105.291 178.517C105.268 178.517 105.246 178.523 105.227 178.534Z" fill="#FFAED7"/>
<path d="M103.3 178.921H103.043L100.858 176.864C100.831 176.84 100.809 176.81 100.794 176.777C100.779 176.744 100.771 176.708 100.771 176.671C100.771 176.635 100.779 176.599 100.794 176.566C100.809 176.532 100.831 176.503 100.858 176.479H101.372L103.428 178.278C103.491 178.349 103.526 178.44 103.526 178.535C103.526 178.63 103.491 178.721 103.428 178.792L103.3 178.921Z" fill="#FFAED7"/>
<path d="M101.244 179.306H100.987L98.9312 177.378C98.9039 177.354 98.882 177.324 98.867 177.291C98.852 177.257 98.8442 177.221 98.8442 177.185C98.8442 177.148 98.852 177.112 98.867 177.079C98.882 177.046 98.9039 177.016 98.9312 176.992H99.4451L101.501 178.792C101.564 178.862 101.599 178.954 101.599 179.049C101.599 179.143 101.564 179.235 101.501 179.306H101.244Z" fill="#FFAED7"/>
<path d="M117.689 175.965H117.561C117.432 175.837 117.304 175.58 117.432 175.451L118.589 173.009C118.718 172.752 118.846 172.752 118.975 172.752C119.064 172.802 119.136 172.878 119.182 172.97C119.227 173.061 119.245 173.165 119.232 173.266L117.946 175.708L117.689 175.965Z" fill="#FFAED7"/>
<path d="M119.616 175.579H119.488C119.359 175.451 119.231 175.194 119.359 175.065L120.516 172.623C120.645 172.366 120.773 172.366 121.03 172.495C121.287 172.623 121.159 172.752 121.159 172.88L119.873 175.322L119.616 175.579Z" fill="#FFAED7"/>
<path d="M121.672 175.192H121.415C121.287 175.064 121.158 174.807 121.287 174.678L122.443 172.236C122.572 171.979 122.7 171.979 122.957 172.108C123.215 172.236 123.086 172.365 123.086 172.493L121.801 174.935L121.672 175.192Z" fill="#FFAED7"/>
<path d="M93.7925 180.978C94.2963 182.88 95.0757 184.699 96.1059 186.376C96.3497 185.585 96.3939 184.746 96.2345 183.934C95.8489 182.134 94.8207 180.849 93.7925 180.978Z" fill="#7196FF"/>
<path d="M104.456 160.54C104.456 160.926 104.713 161.183 105.099 161.054C105.484 161.054 105.613 160.797 105.613 160.412C105.595 159.931 105.509 159.455 105.356 158.998L104.199 159.384C104.258 159.775 104.343 160.161 104.456 160.54Z" fill="black"/>
<path d="M112.036 160.412C111.914 159.912 111.608 159.477 111.18 159.191C110.752 158.906 110.232 158.791 109.724 158.87L102.272 160.412C101.073 161.201 99.9541 162.105 98.9314 163.112L99.1884 164.525L112.293 161.826L112.036 160.412Z" fill="#5865F2"/>
<path d="M169.08 76.1012C170.571 76.1012 171.779 74.8928 171.779 73.4022C171.779 71.9115 170.571 70.7031 169.08 70.7031C167.59 70.7031 166.382 71.9115 166.382 73.4022C166.382 74.8928 167.59 76.1012 169.08 76.1012Z" fill="#FF78B9"/>
<path d="M147.496 73.6579C148.986 73.6579 150.194 72.4495 150.194 70.9588C150.194 69.4682 148.986 68.2598 147.496 68.2598C146.006 68.2598 144.798 69.4682 144.798 70.9588C144.798 72.4495 146.006 73.6579 147.496 73.6579Z" fill="#FF78B9"/>
<path d="M114.092 70.0602C115.582 70.0602 116.79 68.8518 116.79 67.3612C116.79 65.8705 115.582 64.6621 114.092 64.6621C112.602 64.6621 111.394 65.8705 111.394 67.3612C111.394 68.8518 112.602 70.0602 114.092 70.0602Z" fill="#FF78B9"/>
<path d="M175.247 96.9215C176.737 96.9215 177.945 95.7131 177.945 94.2225C177.945 92.7318 176.737 91.5234 175.247 91.5234C173.757 91.5234 172.549 92.7318 172.549 94.2225C172.549 95.7131 173.757 96.9215 175.247 96.9215Z" fill="#FF78B9"/>
<path d="M158.288 110.545C159.778 110.545 160.986 109.336 160.986 107.846C160.986 106.355 159.778 105.146 158.288 105.146C156.798 105.146 155.59 106.355 155.59 107.846C155.59 109.336 156.798 110.545 158.288 110.545Z" fill="#FF78B9"/>
<path d="M132.079 131.625C133.569 131.625 134.777 130.416 134.777 128.926C134.777 127.435 133.569 126.227 132.079 126.227C130.589 126.227 129.381 127.435 129.381 128.926C129.381 130.416 130.589 131.625 132.079 131.625Z" fill="#FF78B9"/>
<path d="M179.616 56.9508C181.106 56.9508 182.314 55.7424 182.314 54.2518C182.314 52.7611 181.106 51.5527 179.616 51.5527C178.126 51.5527 176.918 52.7611 176.918 54.2518C176.918 55.7424 178.126 56.9508 179.616 56.9508Z" fill="#FF78B9"/>
<path d="M165.997 39.984C167.487 39.984 168.695 38.7756 168.695 37.285C168.695 35.7943 167.487 34.5859 165.997 34.5859C164.507 34.5859 163.299 35.7943 163.299 37.285C163.299 38.7756 164.507 39.984 165.997 39.984Z" fill="#FF78B9"/>
<path d="M144.927 13.7653C146.417 13.7653 147.625 12.5569 147.625 11.0662C147.625 9.57559 146.417 8.36719 144.927 8.36719C143.436 8.36719 142.229 9.57559 142.229 11.0662C142.229 12.5569 143.436 13.7653 144.927 13.7653Z" fill="#FF78B9"/>
<path d="M172.421 65.4333C173.911 65.4333 175.119 64.2248 175.119 62.7342C175.119 61.2436 173.911 60.0352 172.421 60.0352C170.931 60.0352 169.723 61.2436 169.723 62.7342C169.723 64.2248 170.931 65.4333 172.421 65.4333Z" fill="#FF78B9"/>
<path d="M153.406 55.0231C154.896 55.0231 156.104 53.8147 156.104 52.324C156.104 50.8334 154.896 49.625 153.406 49.625C151.916 49.625 150.708 50.8334 150.708 52.324C150.708 53.8147 151.916 55.0231 153.406 55.0231Z" fill="#FF78B9"/>
<path d="M123.985 38.8278C125.475 38.8278 126.683 37.6194 126.683 36.1287C126.683 34.6381 125.475 33.4297 123.985 33.4297C122.494 33.4297 121.286 34.6381 121.286 36.1287C121.286 37.6194 122.494 38.8278 123.985 38.8278Z" fill="#FF78B9"/>
<path d="M170.108 87.154C171.598 87.154 172.806 85.9456 172.806 84.4549C172.806 82.9643 171.598 81.7559 170.108 81.7559C168.618 81.7559 167.41 82.9643 167.41 84.4549C167.41 85.9456 168.618 87.154 170.108 87.154Z" fill="#FF78B9"/>
<path d="M149.295 93.195C150.785 93.195 151.993 91.9866 151.993 90.4959C151.993 89.0053 150.785 87.7969 149.295 87.7969C147.805 87.7969 146.597 89.0053 146.597 90.4959C146.597 91.9866 147.805 93.195 149.295 93.195Z" fill="#FF78B9"/>
<path d="M116.918 102.578C118.408 102.578 119.616 101.369 119.616 99.8787C119.616 98.3881 118.408 97.1797 116.918 97.1797C115.428 97.1797 114.22 98.3881 114.22 99.8787C114.22 101.369 115.428 102.578 116.918 102.578Z" fill="#FF78B9"/>
<path d="M183.727 104.119C185.217 104.119 186.425 102.91 186.425 101.42C186.425 99.9291 185.217 98.7207 183.727 98.7207C182.237 98.7207 181.029 99.9291 181.029 101.42C181.029 102.91 182.237 104.119 183.727 104.119Z" fill="#FF78B9"/>
<path d="M173.32 123.14C174.81 123.14 176.018 121.932 176.018 120.441C176.018 118.951 174.81 117.742 173.32 117.742C171.83 117.742 170.622 118.951 170.622 120.441C170.622 121.932 171.83 123.14 173.32 123.14Z" fill="#FF78B9"/>
<path d="M149.68 63.8903C151.17 63.8903 152.378 62.6819 152.378 61.1912C152.378 59.7006 151.17 58.4922 149.68 58.4922C148.19 58.4922 146.982 59.7006 146.982 61.1912C146.982 62.6819 148.19 63.8903 149.68 63.8903Z" fill="#FF78B9"/>
<path d="M152.764 102.062C154.254 102.062 155.462 100.854 155.462 99.3631C155.462 97.8725 154.254 96.6641 152.764 96.6641C151.274 96.6641 150.066 97.8725 150.066 99.3631C150.066 100.854 151.274 102.062 152.764 102.062Z" fill="#FF78B9"/>
<path d="M159.188 46.7965C160.678 46.7965 161.886 45.5881 161.886 44.0975C161.886 42.6068 160.678 41.3984 159.188 41.3984C157.698 41.3984 156.49 42.6068 156.49 44.0975C156.49 45.5881 157.698 46.7965 159.188 46.7965Z" fill="#FF78B9"/>
<path d="M147.368 83.2985C148.858 83.2985 150.066 82.0901 150.066 80.5994C150.066 79.1088 148.858 77.9004 147.368 77.9004C145.878 77.9004 144.67 79.1088 144.67 80.5994C144.67 82.0901 145.878 83.2985 147.368 83.2985Z" fill="#FF78B9"/>
<path d="M164.969 117.357C166.459 117.357 167.667 116.149 167.667 114.658C167.667 113.167 166.459 111.959 164.969 111.959C163.479 111.959 162.271 113.167 162.271 114.658C162.271 116.149 163.479 117.357 164.969 117.357Z" fill="#FF78B9"/>
<path d="M117.561 53.609C119.051 53.609 120.259 52.4006 120.259 50.91C120.259 49.4193 119.051 48.2109 117.561 48.2109C116.071 48.2109 114.863 49.4193 114.863 50.91C114.863 52.4006 116.071 53.609 117.561 53.609Z" fill="#FF78B9"/>
<path d="M122.957 117.486C124.447 117.486 125.655 116.278 125.655 114.787C125.655 113.296 124.447 112.088 122.957 112.088C121.467 112.088 120.259 113.296 120.259 114.787C120.259 116.278 121.467 117.486 122.957 117.486Z" fill="#FF78B9"/>
<path d="M133.492 24.9469C134.982 24.9469 136.19 23.7385 136.19 22.2479C136.19 20.7572 134.982 19.5488 133.492 19.5488C132.002 19.5488 130.794 20.7572 130.794 22.2479C130.794 23.7385 132.002 24.9469 133.492 24.9469Z" fill="#FF78B9"/>
<path d="M113.963 86.1247C115.453 86.1247 116.661 84.9163 116.661 83.4256C116.661 81.935 115.453 80.7266 113.963 80.7266C112.473 80.7266 111.265 81.935 111.265 83.4256C111.265 84.9163 112.473 86.1247 113.963 86.1247Z" fill="#FF78B9"/>
<path d="M143.256 143.062C144.746 143.062 145.954 141.854 145.954 140.363C145.954 138.872 144.746 137.664 143.256 137.664C141.766 137.664 140.558 138.872 140.558 140.363C140.558 141.854 141.766 143.062 143.256 143.062Z" fill="#FF78B9"/>
<path d="M62.7004 55.7916L29.0391 43.4531L34.6921 54.5064C35.7841 56.6718 37.672 58.3301 39.9597 59.1333L66.6832 68.9013L67.711 66.3308L62.7004 55.7916Z" fill="#DAE2ED"/>
<path d="M70.4091 54.6355L25.6986 38.3126C25.4417 38.1841 25.1847 38.5697 25.3132 38.8267L26.9834 42.297C27.179 42.6553 27.4989 42.9296 27.8828 43.0681L29.0391 43.4537L62.7004 55.7922L67.7111 66.3313L66.6832 68.9019L66.0408 70.8298L77.3469 74.9426L78.8887 70.4442L72.3363 56.3063C72.1527 55.9064 71.8859 55.5504 71.5535 55.2622C71.2211 54.974 70.8309 54.7603 70.4091 54.6355Z" fill="#ECEFF6"/>
<path d="M67.711 66.3308L62.7004 55.7916L29.0391 43.4531L30.1954 45.7666L61.5441 57.0769L66.0408 66.9734L65.5269 68.5157L66.6832 68.9013L67.711 66.3308Z" fill="#C5CEDD"/>
<path d="M82.471 74.8918C82.5334 62.9668 72.9205 53.249 61 53.1866C49.0795 53.1242 39.3653 62.7407 39.3029 74.6657C39.2404 86.5907 48.8533 96.3084 60.7739 96.3708C72.6944 96.4332 82.4086 86.8167 82.471 74.8918Z" fill="#262D3D"/>
<path d="M74.8908 74.8524C74.9313 67.1154 68.6943 60.8104 60.9602 60.7699C53.226 60.7293 46.9234 66.9686 46.8829 74.7057C46.8424 82.4427 53.0794 88.7477 60.8135 88.7882C68.5477 88.8287 74.8503 82.5894 74.8908 74.8524Z" fill="#7687B2"/>
<path d="M75.1628 57.7206C75.1628 60.9338 66.5548 69.0309 60.7733 73.4008C55.6341 73.5293 42.5293 73.0152 39.5743 69.9306C39.0604 69.545 39.0604 69.288 39.0604 69.0309V68.6453C39.9245 65.5202 41.4502 62.6175 43.5339 60.1339C45.6176 57.6502 48.2107 55.6437 51.1374 54.2504C58.4606 50.7802 67.3257 51.6799 74.7774 56.9495C74.9111 57.025 75.0192 57.1387 75.0879 57.2761C75.1566 57.4135 75.1827 57.5683 75.1628 57.7206Z" fill="#FF7F14"/>
<path d="M61.1588 74.557C61.1588 74.557 40.4737 62.0899 42.5294 59.5194C44.7239 56.8745 47.492 54.7647 50.6235 53.3502C58.9746 49.3659 68.2251 51.0367 75.4199 56.0492C80.4305 59.648 61.1588 74.557 61.1588 74.557Z" fill="#FF903E"/>
<path d="M72.7067 74.8406C72.7409 68.3103 67.4767 62.9886 60.9487 62.9544C54.4208 62.9203 49.1012 68.1864 49.067 74.7168C49.0328 81.2471 54.297 86.5687 60.825 86.6029C67.3529 86.6371 72.6725 81.371 72.7067 74.8406Z" fill="#EBEFF7"/>
<path d="M60.7732 84.5821C66.2368 84.5821 70.666 80.1513 70.666 74.6856C70.666 69.2199 66.2368 64.7891 60.7732 64.7891C55.3095 64.7891 50.8804 69.2199 50.8804 74.6856C50.8804 80.1513 55.3095 84.5821 60.7732 84.5821Z" fill="#DAE2ED"/>
<path d="M54.8634 70.4447L60.2594 67.2316C60.5899 67.1025 60.9568 67.1025 61.2873 67.2316L66.8118 70.3162C66.9552 70.4223 67.075 70.557 67.1634 70.7119C67.2519 70.8668 67.3072 71.0384 67.3257 71.2159V77.5136C67.2933 77.9098 67.1092 78.2782 66.8118 78.5419L61.2873 81.755H60.2594L54.7349 78.6704C54.4726 78.4326 54.2926 78.1175 54.221 77.7707V71.4729C54.1806 71.2523 54.2241 71.0245 54.343 70.8343C54.4618 70.6441 54.6474 70.5051 54.8634 70.4447Z" fill="#C5CEDD"/>
<path d="M60.7733 78.1552C62.6892 78.1552 64.2423 76.6016 64.2423 74.685C64.2423 72.7685 62.6892 71.2148 60.7733 71.2148C58.8575 71.2148 57.3044 72.7685 57.3044 74.685C57.3044 76.6016 58.8575 78.1552 60.7733 78.1552Z" fill="#B7C2CE"/>
<path d="M87.6252 94.9922H85.8265C85.588 94.9922 85.3592 95.0869 85.1906 95.2557C85.0219 95.4244 84.9272 95.6532 84.9272 95.8918V99.7476C84.9282 100.271 84.7293 100.776 84.3712 101.158C84.0131 101.54 83.5226 101.771 83 101.804C82.4548 101.804 81.9319 101.587 81.5464 101.202C81.1609 100.816 80.9443 100.293 80.9443 99.7476V83.2963C80.9752 82.7268 81.2152 82.1888 81.6183 81.7855C82.0214 81.3823 82.5592 81.1422 83.1285 81.1113H89.8093C90.3786 81.1422 90.9164 81.3823 91.3195 81.7855C91.7226 82.1888 91.9626 82.7268 91.9935 83.2963V90.6223C91.9935 91.7812 91.5332 92.8927 90.714 93.7122C89.8948 94.5318 88.7838 94.9922 87.6252 94.9922Z" fill="#80A7FF"/>
<path d="M92.122 74.1719H88.3961V78.2847H92.122V74.1719Z" fill="#80A7FF"/>
<path d="M90.8373 83.1683H74.9059L74.5205 82.9112C74.5205 82.809 74.5611 82.7109 74.6334 82.6386C74.7057 82.5663 74.8037 82.5257 74.9059 82.5257H90.8373C90.9657 82.5257 91.0942 82.3971 91.0942 82.1401V79.5695C91.0942 79.441 91.3512 79.3125 91.4797 79.3125C91.6081 79.3125 91.8651 79.441 91.8651 79.5695V82.1401C91.8651 82.2751 91.8385 82.4088 91.7869 82.5335C91.7352 82.6583 91.6595 82.7717 91.564 82.8671C91.4686 82.9626 91.3553 83.0383 91.2306 83.09C91.1059 83.1417 90.9722 83.1683 90.8373 83.1683Z" fill="#E4E9F7"/>
<path d="M92.6359 73.2715H90.3233C90.1104 73.2715 89.9379 73.4441 89.9379 73.6571V80.8288C89.9379 81.0418 90.1104 81.2144 90.3233 81.2144H92.6359C92.8488 81.2144 93.0213 81.0418 93.0213 80.8288V73.6571C93.0213 73.4441 92.8488 73.2715 92.6359 73.2715Z" fill="black"/>
<path d="M92.122 74.1722H93.5352C93.6637 74.1722 93.7922 74.3007 93.7922 74.5578V78.028L93.5352 78.285H92.2504C91.7444 78.3255 91.2413 78.1772 90.838 77.8687C90.4348 77.5602 90.1599 77.1133 90.0663 76.6142C90.0089 76.3138 90.0193 76.0044 90.0965 75.7085C90.1738 75.4126 90.3161 75.1376 90.5131 74.9037C90.71 74.6697 90.9566 74.4827 91.2349 74.3561C91.5132 74.2296 91.8163 74.1668 92.122 74.1722Z" fill="#80A7FF"/>
<path d="M84.9272 73.2715H82.6145C82.4017 73.2715 82.2291 73.4441 82.2291 73.6571V80.8288C82.2291 81.0418 82.4017 81.2144 82.6145 81.2144H84.9272C85.14 81.2144 85.3126 81.0418 85.3126 80.8288V73.6571C85.3126 73.4441 85.14 73.2715 84.9272 73.2715Z" fill="black"/>
<path d="M83.6424 79.5703V82.1408C83.645 82.3249 83.5816 82.5038 83.4638 82.6453C83.346 82.7867 83.1815 82.8813 83 82.912H67.1971" stroke="#2F3849" stroke-width="2.00882" stroke-miterlimit="10"/>
<path d="M90.1949 75.8417C89.3109 74.6209 88.1529 73.6244 86.8142 72.9325C85.4754 72.2405 83.993 71.8723 82.4862 71.8574H69.6383C68.105 71.8574 66.6344 72.4668 65.5501 73.5514C64.4659 74.6361 63.8568 76.1072 63.8568 77.6411V88.0517C63.8568 89.0743 64.2629 90.0551 64.9857 90.7782C65.7085 91.5013 66.6889 91.9075 67.7112 91.9075H86.212C87.7234 91.9079 89.1748 91.3162 90.2554 90.2592C91.336 89.2022 91.96 87.7639 91.9936 86.2523V81.3684C92.0121 79.3793 91.3805 77.4386 90.1949 75.8417Z" fill="#9CB8FF"/>
<path d="M73.4927 71.8574H69.6383C68.8791 71.8574 68.1273 72.007 67.4258 72.2977C66.7244 72.5883 66.087 73.0144 65.5501 73.5514C65.0133 74.0885 64.5874 74.7261 64.2969 75.4278C64.0063 76.1295 63.8568 76.8816 63.8568 77.6411V86.7664C63.889 87.7789 64.3054 88.741 65.0213 89.4573C65.7373 90.1735 66.6991 90.5901 67.7112 90.6222H73.4927C73.3642 84.3244 73.3642 78.1552 73.4927 71.8574Z" fill="#80A7FF"/>
<path d="M61.2872 85.4819L57.1759 86.6387C56.6256 86.8292 56.1405 87.1718 55.7767 87.6267C55.4129 88.0816 55.1853 88.6303 55.1202 89.2092C55.102 89.6191 55.1693 90.0284 55.3178 90.4109C55.4663 90.7934 55.6928 91.1408 55.9828 91.4309C56.2729 91.7211 56.6201 91.9477 57.0025 92.0962C57.3848 92.2448 57.7939 92.3121 58.2037 92.2938C58.7876 92.2445 59.3436 92.0227 59.8011 91.6565C60.2587 91.2904 60.597 90.7964 60.7733 90.2374L61.9296 86.2531C62.0581 85.739 61.6727 85.3534 61.2872 85.4819Z" fill="#80A7FF"/>
<path d="M70.5377 94.9908H68.739C68.5004 94.9908 68.2717 95.0856 68.103 95.2543C67.9344 95.4231 67.8396 95.6519 67.8396 95.8905V99.7463C67.8406 100.27 67.6418 100.775 67.2836 101.157C66.9255 101.539 66.4351 101.77 65.9124 101.803C65.3672 101.803 64.8444 101.586 64.4589 101.2C64.0734 100.815 63.8568 100.292 63.8568 99.7463V80.2103C63.8876 79.6409 64.1277 79.1029 64.5308 78.6996C64.9339 78.2963 65.4717 78.0562 66.0409 78.0254H72.7218C73.3011 78.0254 73.8566 78.2556 74.2662 78.6653C74.6758 79.0751 74.9059 79.6308 74.9059 80.2103V90.6209C74.9059 91.7799 74.4457 92.8914 73.6265 93.7109C72.8073 94.5304 71.6962 94.9908 70.5377 94.9908Z" fill="#80A7FF"/>
<path d="M83 83.1683H67.1972C66.9402 83.1683 66.8118 83.0397 66.8118 82.9112C66.8118 82.809 66.8524 82.7109 66.9246 82.6386C66.9969 82.5663 67.095 82.5257 67.1972 82.5257H83C83.1023 82.5257 83.2003 82.485 83.2726 82.4127C83.3449 82.3404 83.3855 82.2423 83.3855 82.1401V79.5695C83.3855 79.5014 83.4126 79.436 83.4607 79.3878C83.5089 79.3396 83.5743 79.3125 83.6424 79.3125C83.8994 79.3125 84.0279 79.441 84.0279 79.5695V82.1401C84.0498 82.2801 84.0384 82.4234 83.9945 82.5581C83.9506 82.6929 83.8755 82.8154 83.7753 82.9156C83.6751 83.0159 83.5527 83.091 83.4179 83.1349C83.2832 83.1788 83.14 83.1902 83 83.1683Z" fill="#E4E9F7"/>
<path d="M84.9272 73.2715H82.6145C82.4017 73.2715 82.2291 73.4441 82.2291 73.6571V80.8288C82.2291 81.0418 82.4017 81.2144 82.6145 81.2144H84.9272C85.14 81.2144 85.3126 81.0418 85.3126 80.8288V73.6571C85.3126 73.4441 85.14 73.2715 84.9272 73.2715Z" fill="black"/>
<path d="M85.0556 74.1709H77.2184C76.6051 74.1709 76.0168 73.9271 75.5831 73.4933C75.1494 73.0594 74.9058 72.471 74.9058 71.8574H70.1521V82.011H74.9058C75.4197 79.4405 77.6038 78.2837 80.3019 78.2837H84.9271C85.4723 78.3008 86.0019 78.1005 86.3995 77.7269C86.797 77.3533 87.03 76.837 87.047 76.2916C87.064 75.7462 86.8638 75.2163 86.4903 74.8186C86.1168 74.4209 85.6008 74.1879 85.0556 74.1709Z" fill="#80A7FF"/>
<path d="M67.1971 71.9863H84.7987C87.9917 71.9863 90.5802 69.3969 90.5802 66.2027V55.6764C90.5802 52.4821 87.9917 49.8927 84.7987 49.8927H67.1971C64.0041 49.8927 61.4156 52.4821 61.4156 55.6764V66.2027C61.4156 69.3969 64.0041 71.9863 67.1971 71.9863Z" fill="#80A7FF"/>
<path d="M70.9231 71.9863H88.5246C91.7177 71.9863 94.3062 69.3969 94.3062 66.2027V55.6764C94.3062 52.4821 91.7177 49.8927 88.5246 49.8927H70.9231C67.7301 49.8927 65.1416 52.4821 65.1416 55.6764V66.2027C65.1416 69.3969 67.7301 71.9863 70.9231 71.9863Z" fill="#9CB8FF"/>
<path d="M67.3257 64.918H63.0859C62.0637 64.918 61.0833 64.5117 60.3605 63.7886C59.6377 63.0655 59.2316 62.0848 59.2316 61.0622V58.3631C59.2316 57.3405 59.6377 56.3598 60.3605 55.6367C61.0833 54.9136 62.0637 54.5074 63.0859 54.5074H67.3257V64.7894V64.918Z" fill="#9CB8FF"/>
<path d="M67.4542 56.95V62.7337C67.4542 62.836 67.4136 62.9341 67.3413 63.0064C67.269 63.0787 67.171 63.1193 67.0688 63.1193H63.2144C62.7033 63.1193 62.2131 62.9162 61.8517 62.5546C61.4903 62.1931 61.2873 61.7027 61.2873 61.1914V58.4923C61.2873 57.981 61.4903 57.4907 61.8517 57.1291C62.2131 56.7676 62.7033 56.5645 63.2144 56.5645H67.0688C67.171 56.5645 67.269 56.6051 67.3413 56.6774C67.4136 56.7497 67.4542 56.8478 67.4542 56.95Z" fill="#80A7FF"/>
<path d="M72.0793 59.6868C72.0793 60.7303 72.9134 61.5762 73.9423 61.5762C74.9711 61.5762 75.8052 60.7303 75.8052 59.6868C75.8052 58.6434 74.9711 57.7975 73.9423 57.7975C72.9134 57.7975 72.0793 58.6434 72.0793 59.6868Z" fill="black"/>
<path d="M94.4347 55.6641H81.4583C80.845 55.6641 80.2568 55.9078 79.8231 56.3417C79.3894 56.7755 79.1458 57.364 79.1458 57.9775V60.6766C79.1793 62.1881 79.8032 63.6264 80.8839 64.6834C81.9645 65.7404 83.4159 66.3321 84.9273 66.3317H91.0942C91.8366 66.3317 92.5717 66.1855 93.2575 65.9013C93.9434 65.6171 94.5666 65.2005 95.0915 64.6754C95.6165 64.1503 96.0329 63.5268 96.3169 62.8407C96.601 62.1546 96.7473 61.4192 96.7473 60.6766V57.9775C96.7473 57.364 96.5036 56.7755 96.0699 56.3417C95.6362 55.9078 95.048 55.6641 94.4347 55.6641Z" fill="#B8D0FF"/>
<path d="M90.9658 66.332H87.4969C85.9635 66.332 84.493 65.7227 83.4087 64.638C82.3245 63.5534 81.7154 62.0823 81.7154 60.5484V57.8493C81.7318 57.5453 81.808 57.2476 81.9396 56.9732C82.0713 56.6987 82.2558 56.4529 82.4826 56.25C82.7093 56.047 82.9739 55.8908 83.2612 55.7903C83.5484 55.6898 83.8527 55.647 84.1565 55.6644H94.4347C95.0481 55.6644 95.6363 55.9081 96.07 56.342C96.5037 56.7758 96.7473 57.3643 96.7473 57.9778V60.6769C96.7137 62.1884 96.0898 63.6267 95.0092 64.6837C93.9286 65.7407 92.4771 66.3324 90.9658 66.332Z" fill="#CBDAF7"/>
<path d="M89.1671 62.0898H86.5976C86.359 62.0898 86.1303 62.1846 85.9616 62.3534C85.793 62.5221 85.6982 62.7509 85.6982 62.9895C85.6982 63.2281 85.793 63.457 85.9616 63.6257C86.1303 63.7944 86.359 63.8892 86.5976 63.8892H89.1671C89.4057 63.8892 89.6344 63.7944 89.8031 63.6257C89.9718 63.457 90.0665 63.2281 90.0665 62.9895C90.0665 62.7509 89.9718 62.5221 89.8031 62.3534C89.6344 62.1846 89.4057 62.0898 89.1671 62.0898Z" fill="#9CB8FF"/>
<path d="M93.6639 62.0898H92.6361C92.3975 62.0898 92.1688 62.1846 92.0001 62.3534C91.8314 62.5221 91.7367 62.7509 91.7367 62.9895C91.7367 63.2281 91.8314 63.457 92.0001 63.6257C92.1688 63.7944 92.3975 63.8892 92.6361 63.8892H93.6639C93.9024 63.8892 94.1312 63.7944 94.2998 63.6257C94.4685 63.457 94.5632 63.2281 94.5632 62.9895C94.5632 62.7509 94.4685 62.5221 94.2998 62.3534C94.1312 62.1846 93.9024 62.0898 93.6639 62.0898Z" fill="#9CB8FF"/>
<path d="M88.1392 68.6446H89.6809C89.8513 68.6446 90.0147 68.5769 90.1352 68.4564C90.2557 68.3359 90.3233 68.1724 90.3233 68.002C90.3233 67.8316 90.2557 67.6681 90.1352 67.5476C90.0147 67.4271 89.8513 67.3594 89.6809 67.3594H88.1392C87.9688 67.3594 87.8055 67.4271 87.685 67.5476C87.5645 67.6681 87.4968 67.8316 87.4968 68.002C87.4968 68.1724 87.5645 68.3359 87.685 68.4564C87.8055 68.5769 87.9688 68.6446 88.1392 68.6446Z" fill="#80A7FF"/>
<path opacity="0.5" d="M95.4623 52.1943C97.0547 54.8936 97.8624 57.984 97.7943 61.1175C97.7262 64.2511 96.7851 67.3034 95.0769 69.9309L91.7365 71.8588L70.1521 70.9592L64.8845 63.8902L70.1521 49.8809H88.653L95.4623 52.1943Z" fill="#4871E5"/>
<path d="M78.2463 44.4824C65.6555 44.4824 58.7177 52.9651 58.7177 60.0341C58.7177 67.103 66.9403 67.7457 68.8674 62.7331L72.9787 51.9369L90.9657 54.2504L95.4624 52.194C93.7922 49.4949 87.6253 44.4824 78.2463 44.4824Z" fill="#EBEFF7"/>
<path d="M67.5826 63.8887L78.8887 69.9294H95.0769L93.5352 72.4999H67.1971L64.8845 67.3589L67.5826 63.8887Z" fill="#EBEFF7"/>
<path d="M64.8845 55.6634L61.544 56.8201L60.0023 50.7794C59.9184 50.4389 59.9639 50.0794 60.1301 49.7706C60.2963 49.4618 60.5713 49.2259 60.9016 49.1085C61.0787 49.0483 61.266 49.0238 61.4527 49.0365C61.6393 49.0491 61.8216 49.0988 61.9889 49.1825C62.1562 49.2662 62.3053 49.3822 62.4274 49.524C62.5495 49.6657 62.6423 49.8303 62.7003 50.0082L64.8845 55.6634Z" fill="#DAE2ED"/>
<path d="M60.5164 52.9638L61.5442 56.8195L64.8846 55.6628L63.4713 51.9355L60.5164 52.9638Z" fill="#B7C2CE"/>
<path d="M40.6021 86.8956C31.7371 83.6824 27.2403 85.0962 23.129 92.2937C37.0047 97.5632 38.2895 91.9081 40.6021 86.8956Z" fill="#FF7F14"/>
<path d="M65.6693 79.2118L52.5195 82.2246L53.664 87.2234L66.8137 84.2106L65.6693 79.2118Z" fill="#B7C2CE"/>
<path d="M55.891 87.9231L39.4458 93.5783C39.0993 93.6671 38.7319 93.6212 38.4179 93.4498C37.033 92.16 36.1271 90.438 35.8484 88.5658C35.2392 86.7128 35.3307 84.7007 36.1053 82.9106C36.1914 82.7764 36.3044 82.6614 36.437 82.5729C36.5697 82.4845 36.7192 82.4244 36.8762 82.3965L54.2208 80.3401C54.4777 80.2115 54.8631 80.4686 54.9916 80.8542L56.4049 87.152C56.4144 87.3189 56.3694 87.4843 56.2767 87.6234C56.184 87.7625 56.0486 87.8677 55.891 87.9231Z" fill="#C5CEDD"/>
<path d="M50.6237 84.1966C51.0496 84.1966 51.3949 83.8514 51.3949 83.4255C51.3949 82.9996 51.0496 82.6543 50.6237 82.6543C50.1978 82.6543 49.8525 82.9996 49.8525 83.4255C49.8525 83.8514 50.1978 84.1966 50.6237 84.1966Z" fill="#B7C2CE"/>
<path d="M46.7693 84.7103C47.1952 84.7103 47.5405 84.365 47.5405 83.9391C47.5405 83.5132 47.1952 83.168 46.7693 83.168C46.3434 83.168 45.9982 83.5132 45.9982 83.9391C45.9982 84.365 46.3434 84.7103 46.7693 84.7103Z" fill="#B7C2CE"/>
<path d="M44.071 96.4082C31.4802 96.4082 26.4695 100.264 24.5424 111.06C44.328 111.446 43.4286 103.863 44.071 96.4082Z" fill="#FF7F14"/>
<path d="M62.9239 80.0338L52.3682 88.1875L55.4952 92.2388L66.051 84.0851L62.9239 80.0338Z" fill="#D0D9EA"/>
<path d="M58.4606 91.2665L45.8697 103.348C45.6129 103.544 45.2918 103.635 44.9703 103.605C44.071 103.477 42.4008 102.705 40.4736 100.263C38.5464 97.8214 38.2895 96.022 38.4179 95.1223C38.3981 94.97 38.4242 94.8152 38.4929 94.6778C38.5615 94.5404 38.6697 94.4267 38.8034 94.3512L53.7068 85.0973C53.8431 84.995 54.0145 84.9511 54.1832 84.9752C54.3518 84.9993 54.504 85.0895 54.6062 85.2258L58.5891 90.3669C58.6656 90.5111 58.6944 90.676 58.6713 90.8376C58.6483 90.9993 58.5745 91.1495 58.4606 91.2665Z" fill="#EBEFF7"/>
<path d="M51.6515 90.1087C52.0774 90.1087 52.4227 89.7634 52.4227 89.3376C52.4227 88.9117 52.0774 88.5664 51.6515 88.5664C51.2256 88.5664 50.8804 88.9117 50.8804 89.3376C50.8804 89.7634 51.2256 90.1087 51.6515 90.1087Z" fill="#B7C2CE"/>
<path d="M48.6965 92.679C49.1224 92.679 49.4676 92.3338 49.4676 91.9079C49.4676 91.482 49.1224 91.1367 48.6965 91.1367C48.2706 91.1367 47.9253 91.482 47.9253 91.9079C47.9253 92.3338 48.2706 92.679 48.6965 92.679Z" fill="#B7C2CE"/>
<path d="M69.8136 62.0494C70.2894 58.1744 67.9917 54.7037 64.6816 54.2972C61.3714 53.8908 58.3024 56.7026 57.8266 60.5775C57.3508 64.4525 59.6485 67.9232 62.9586 68.3297C66.2687 68.7361 69.3378 65.9243 69.8136 62.0494Z" fill="#DAE2ED"/>
<path d="M67.2917 61.8242C67.6289 59.0765 66.0182 56.6176 63.6941 56.3322C61.37 56.0467 59.2125 58.0427 58.8753 60.7904C58.538 63.5381 60.1487 65.997 62.4728 66.2825C64.7969 66.568 66.9544 64.5719 67.2917 61.8242Z" fill="#B7C2CE"/>
<path d="M65.9998 61.6819C66.242 59.7092 65.068 57.9417 63.3778 57.7341C61.6875 57.5264 60.121 58.9573 59.8788 60.93C59.6367 62.9027 60.8107 64.6703 62.5009 64.8779C64.1912 65.0855 65.7577 63.6546 65.9998 61.6819Z" fill="#FF903E"/>
<path d="M64.1005 59.2917L63.7435 59.146C63.612 59.0923 63.462 59.1554 63.4084 59.2868L62.0976 62.5C62.044 62.6314 62.1071 62.7815 62.2385 62.8351L62.5955 62.9809C62.7269 63.0345 62.8769 62.9715 62.9306 62.84L64.2413 59.6269C64.2949 59.4954 64.2319 59.3454 64.1005 59.2917Z" fill="#FF7F14"/>
<path d="M62.572 71.8574H68.6105V84.71C68.6105 85.1532 68.4345 85.5782 68.1213 85.8915C67.808 86.2048 67.3832 86.3809 66.9403 86.3809H62.572V71.8574Z" fill="black"/>
<path d="M48.1823 55.7916L14.521 43.4531L20.1741 54.5064C20.6977 55.5911 21.4338 56.5596 22.3387 57.3544C23.2435 58.1492 24.2987 58.7541 25.4417 59.1333L52.1652 68.9013L53.0645 66.3308L48.1823 55.7916Z" fill="#DAE2ED"/>
<path d="M55.8911 54.6355L11.1806 38.3126C10.9237 38.1841 10.6667 38.5697 10.7952 38.8267L12.4654 42.297C12.6609 42.6553 12.9808 42.9296 13.3647 43.0681L14.521 43.4537L48.1824 55.7922L53.0645 66.3313L52.1652 68.9019L51.5228 70.8298L62.8289 74.9426L64.3706 70.4442L57.8182 56.3063C57.6347 55.9064 57.3678 55.5504 57.0354 55.2622C56.703 54.974 56.3128 54.7603 55.8911 54.6355Z" fill="#ECEFF6"/>
<path d="M53.0645 66.3308L48.1823 55.7916L14.521 43.4531L15.6773 45.7666L47.026 57.0769L51.5228 66.9734L51.0089 68.5157L52.1652 68.9013L53.0645 66.3308Z" fill="#C5CEDD"/>
<path d="M14.888 40.9123L14.7672 40.8683C14.4337 40.7469 14.065 40.9188 13.9436 41.2523L13.9216 41.3127C13.8003 41.6463 13.9723 42.0151 14.3058 42.1365L14.4265 42.1805C14.76 42.3019 15.1288 42.13 15.2501 41.7964L15.2721 41.736C15.3934 41.4025 15.2215 41.0337 14.888 40.9123Z" fill="#DAE2ED"/>
<path d="M17.6295 41.9103L17.5088 41.8663C17.1753 41.7449 16.8065 41.9169 16.6852 42.2504L16.6632 42.3108C16.5419 42.6443 16.7138 43.0131 17.0473 43.1345L17.1681 43.1785C17.5016 43.2999 17.8703 43.128 17.9917 42.7945L18.0137 42.7341C18.135 42.4006 17.963 42.0318 17.6295 41.9103Z" fill="#DAE2ED"/>
<path d="M56.0044 55.8791L55.8836 55.8351C55.5501 55.7137 55.1814 55.8856 55.0601 56.2191L55.0381 56.2795C54.9167 56.613 55.0887 56.9819 55.4222 57.1033L55.543 57.1473C55.8765 57.2687 56.2452 57.0968 56.3666 56.7632L56.3885 56.7028C56.5099 56.3693 56.3379 56.0005 56.0044 55.8791Z" fill="#DAE2ED"/>
<path d="M66.1693 69.1602H59.103C58.5354 69.1602 58.0752 69.6205 58.0752 70.1884V74.057C58.0752 74.6249 58.5354 75.0852 59.103 75.0852H66.1693C66.737 75.0852 67.1971 74.6249 67.1971 74.057V70.1884C67.1971 69.6205 66.737 69.1602 66.1693 69.1602Z" fill="#FF5C5C"/>
<path d="M68.6104 76.871H63.2143C62.4987 76.871 61.8125 76.5867 61.3065 76.0805C60.8005 75.5743 60.5162 74.8878 60.5162 74.172V69.9306C60.5162 69.2148 60.8005 68.5283 61.3065 68.0221C61.8125 67.5159 62.4987 67.2316 63.2143 67.2316H68.6104C68.7503 67.2096 68.8935 67.221 69.0283 67.265C69.163 67.3089 69.2854 67.384 69.3856 67.4842C69.4858 67.5845 69.5609 67.7069 69.6048 67.8417C69.6487 67.9765 69.6602 68.1197 69.6382 68.2598V75.8428C69.6602 75.9829 69.6487 76.1261 69.6048 76.2609C69.5609 76.3956 69.4858 76.5182 69.3856 76.6184C69.2854 76.7186 69.163 76.7937 69.0283 76.8376C68.8935 76.8816 68.7503 76.893 68.6104 76.871Z" fill="#D0D9EA"/>
<path d="M84.2849 43.4531L83.8994 45.5096C85.6502 46.8358 87.1696 48.4427 88.3962 50.265L90.1949 46.0236C88.3943 44.8203 86.3926 43.9497 84.2849 43.4531Z" fill="#FF7F14"/>
<path d="M88.3962 50.2648L90.195 46.0234L91.8652 50.2648H88.3962Z" fill="#FF903E"/>
<path d="M256.831 58.2341C255.932 61.9613 252.463 66.0742 251.307 65.5601C250.15 65.046 249.637 61.7043 249.893 58.3626C250.15 55.0209 251.821 52.1934 253.491 52.1934C255.161 52.1934 257.859 53.9927 256.831 58.2341Z" fill="#FFE75C"/>
<path d="M246.682 63.1186C248.737 65.175 251.564 65.9462 251.949 65.3035C252.335 64.6609 252.206 62.9901 251.564 60.9337C250.921 58.8772 248.352 55.15 246.682 55.5356C245.011 55.9211 242.827 59.1343 246.682 63.1186Z" fill="#FFE75C"/>
<path d="M225.354 53.4797C226.639 55.9217 227.795 56.8214 228.695 56.4359C229.77 55.4174 230.453 54.0521 230.622 52.5801C231.136 48.9813 229.209 43.7118 226.382 44.6114C223.556 45.5111 223.555 50.1381 225.354 53.4797Z" fill="#FFE75C"/>
<path d="M174.22 23.5312C178.074 25.3306 180.515 25.4591 181.158 24.1739C181.8 22.8886 181.415 20.3181 180.001 17.4905C177.303 12.3495 170.108 7.46546 167.282 11.3212C164.455 15.177 168.824 20.9607 174.22 23.5312Z" fill="#FFE75C"/>
<path d="M180.13 14.5352C182.699 18.391 185.012 19.8047 186.297 18.7765C187.581 17.7483 188.738 15.3063 188.866 11.9646C188.995 8.62297 187.196 2.32519 184.498 0.0117188H178.845C175.761 2.96782 176.789 9.7797 180.13 14.5352Z" fill="#FFE75C"/>
<path d="M191.564 10.0368C191.564 14.6637 192.464 17.1057 194.134 16.9772C195.804 16.8486 198.117 15.5634 200.172 12.8643C202.228 10.1653 204.412 3.48193 203.256 0.0117188H194.648C192.579 2.93972 191.499 6.45188 191.564 10.0368Z" fill="#FFE75C"/>
<path d="M204.798 13.5063C201.843 17.1051 201.072 19.6756 202.356 20.7038C203.641 21.732 206.339 21.9891 209.68 21.2179C215.847 19.6756 222.913 13.2493 219.573 9.26497C216.232 5.28066 208.909 8.36529 204.798 13.5063Z" fill="#FFE75C"/>
<path d="M228.309 56.0485C226.896 55.7914 226.382 55.4059 226.382 55.0203C226.629 54.2049 227.123 53.4864 227.795 52.9639C230.108 50.9074 237.688 47.5658 237.688 51.1645C237.688 54.7632 231.264 56.4341 228.309 56.0485Z" fill="#FFE75C"/>
<path d="M245.654 60.5473L255.033 60.9329C257.119 61.0368 259.145 61.6693 260.92 62.7708C262.696 63.8724 264.162 65.407 265.182 67.2307L269.936 75.5849C271.007 77.441 271.571 79.5466 271.571 81.6899C271.571 83.8332 271.007 85.9387 269.936 87.7949L266.339 93.9641C265.262 95.8032 263.724 97.3284 261.875 98.3882C260.027 99.4479 257.934 100.005 255.803 100.005H247.195C245.224 100.002 243.282 99.5204 241.537 98.6027C239.792 97.685 238.295 96.358 237.174 94.7353L231.521 86.7667C230.251 84.9429 229.497 82.8098 229.339 80.5927C229.18 78.3756 229.624 76.1569 230.622 74.1711L234.219 67.2307C235.28 65.134 236.923 63.3882 238.951 62.2027C240.98 61.0172 243.307 60.4424 245.654 60.5473Z" fill="#66BCFF"/>
<path d="M265.182 67.2304C264.456 65.9502 263.497 64.8169 262.356 63.8887C260.79 65.2079 259.581 66.8998 258.84 68.8089C258.099 70.718 257.85 72.7828 258.116 74.8134L259.401 84.5814C259.703 86.5257 260.452 88.3733 261.589 89.9789C262.726 91.5846 264.22 92.9046 265.953 93.8353H266.338L269.936 87.666C271.007 85.8099 271.571 83.7043 271.571 81.561C271.571 79.4177 271.007 77.3122 269.936 75.456L265.182 67.2304Z" fill="#3892EB"/>
<path d="M242.185 92.4226L244.754 83.4257C245.371 81.1278 245.375 78.7084 244.766 76.4084C244.158 74.1084 242.958 72.008 241.285 70.3161L235.761 64.918C235.104 65.5836 234.581 66.3689 234.219 67.2314L230.622 74.1718C229.624 76.1577 229.18 78.3764 229.339 80.5934C229.497 82.8105 230.251 84.9436 231.521 86.7674L237.174 94.736C237.851 95.7133 238.674 96.5803 239.615 97.3066C240.793 95.869 241.667 94.2075 242.185 92.4226Z" fill="#3892EB"/>
<path d="M204.669 90.7511L213.791 95.121C215.881 96.1492 218.205 96.6074 220.529 96.4495C222.852 96.2915 225.093 95.5229 227.024 94.2213L236.018 88.1806C237.993 86.8485 239.58 85.0171 240.618 82.8725C241.656 80.7279 242.108 78.3466 241.928 75.9706L241.157 66.7167C240.976 64.3202 240.153 62.0169 238.774 60.049C237.394 58.0812 235.51 56.5218 233.32 55.535L224.455 51.5507C222.42 50.6356 220.187 50.25 217.963 50.4297C215.739 50.6095 213.597 51.3488 211.735 52.5789L202.999 58.234C201.088 59.4852 199.53 61.2054 198.473 63.2304C197.416 65.2555 196.895 67.5178 196.96 69.8014L197.217 79.1838C197.308 81.6033 198.048 83.9538 199.359 85.989C200.67 88.0242 202.504 89.6691 204.669 90.7511Z" fill="#66BCFF"/>
<path d="M219.958 50.3944C217.053 50.2164 214.169 50.9829 211.735 52.5793L202.999 58.2345C201.088 59.4857 199.53 61.2059 198.473 63.2309C197.415 65.2559 196.895 67.5182 196.96 69.8018V75.3285C214.305 74.9429 215.59 68.7736 219.958 50.3944Z" fill="#3892EB"/>
<path d="M188.224 64.1471L201.329 64.5327C204.201 64.602 207.039 63.8993 209.548 62.4977C212.056 61.0961 214.143 59.047 215.59 56.5641L220.858 47.3102C222.29 44.7852 223 41.9143 222.91 39.0123C222.819 36.1103 221.931 33.2894 220.344 30.8588L213.663 20.7053C212.25 18.5087 210.312 16.6998 208.023 15.4429C205.735 14.186 203.169 13.5208 200.558 13.5078H187.839C185.097 13.5124 182.403 14.2246 180.018 15.5755C177.632 16.9265 175.635 18.8704 174.22 21.2194L169.081 29.8306C167.575 32.2578 166.766 35.053 166.743 37.9097C166.721 40.7664 167.485 43.5742 168.952 46.0249L175.119 56.307C176.464 58.615 178.371 60.5445 180.662 61.9155C182.954 63.2865 185.556 64.0543 188.224 64.1471Z" fill="#66BCFF"/>
<path d="M178.845 30.0863C180.504 31.9481 182.356 33.6284 184.37 35.0988C184.894 35.449 185.52 35.6139 186.148 35.5673C186.777 35.5207 187.372 35.2654 187.839 34.8418C191.243 31.5257 195.199 28.829 199.53 26.8732C200.301 26.6161 202.357 25.8449 203.256 26.8732C203.588 27.2283 203.813 27.6705 203.904 28.1482C203.995 28.626 203.948 29.1198 203.77 29.5722C200.943 37.4123 197.86 45.3809 189.894 46.2806C181.928 47.1803 176.532 40.8825 173.963 32.7854C173.72 32.0819 173.59 31.3445 173.577 30.6004C173.563 30.1474 173.681 29.7001 173.918 29.3138C174.155 28.9276 174.5 28.6195 174.911 28.4279C175.321 28.2362 175.779 28.1694 176.227 28.2357C176.675 28.3021 177.094 28.4987 177.432 28.801L178.845 30.0863Z" fill="white"/>
<path d="M187.068 35.3574L188.095 40.2414H184.498C184.627 39.3417 185.14 36.5142 185.397 35.3574C185.939 35.5435 186.526 35.5435 187.068 35.3574Z" fill="#3892EB"/>
<path d="M177.432 28.8012L178.845 30.0864L175.505 36.7698C174.838 35.5062 174.32 34.169 173.963 32.7855C173.72 32.082 173.59 31.3446 173.577 30.6005C173.563 30.1476 173.681 29.7002 173.918 29.3139C174.155 28.9277 174.5 28.6196 174.911 28.428C175.321 28.2363 175.779 28.1695 176.227 28.2359C176.675 28.3022 177.094 28.4988 177.432 28.8012Z" fill="#3892EB"/>
<path d="M198.502 27.3873L199.53 26.8732C200.301 26.6161 202.357 25.8449 203.256 26.8732C203.588 27.2283 203.813 27.6705 203.904 28.1482C203.995 28.626 203.948 29.1198 203.77 29.5722C202.941 32.0744 201.954 34.5213 200.815 36.8982L198.502 27.3873Z" fill="#3892EB"/>
<path d="M192.078 31.1153L193.106 30.4727L196.318 43.3253L195.419 44.0964L192.078 31.1153Z" fill="#8CD9FF"/>
<path d="M181.928 33.1715L178.331 41.2687L177.56 40.2405L181.029 32.4004L181.928 33.1715Z" fill="#8CD9FF"/>
<path d="M201.843 26.3597C202.101 26.3383 202.362 26.3732 202.606 26.4619C202.849 26.5506 203.071 26.6912 203.256 26.8738C203.588 27.229 203.813 27.6711 203.904 28.1489C203.995 28.6266 203.948 29.1204 203.77 29.5728C200.943 37.4129 197.86 45.3816 189.894 46.2812H188.352C181.286 46.2812 176.275 40.369 173.963 32.786C173.72 32.0825 173.59 31.3451 173.577 30.601C173.56 30.2866 173.607 29.9719 173.715 29.6762C173.823 29.3805 173.991 29.1101 174.208 28.8815C174.424 28.6528 174.685 28.4708 174.974 28.3466C175.264 28.2224 175.575 28.1586 175.89 28.1591C176.466 28.1737 177.016 28.4028 177.432 28.8017L178.845 30.087C180.504 31.9488 182.356 33.629 184.37 35.0995C184.887 35.3607 185.46 35.493 186.04 35.485C186.692 35.4667 187.322 35.2417 187.838 34.8424C191.243 31.5263 195.199 28.8297 199.53 26.8738C200.256 26.541 201.044 26.3657 201.843 26.3597ZM201.843 25.8456C200.994 25.8962 200.165 26.1146 199.402 26.4882C195.015 28.4118 191.01 31.1112 187.582 34.4568C187.389 34.6728 187.151 34.8427 186.884 34.9539C186.617 35.0652 186.328 35.1149 186.04 35.0995C185.541 35.1108 185.05 34.9769 184.627 34.7139C182.591 33.3198 180.735 31.6794 179.102 29.8299C178.664 29.327 178.191 28.8546 177.689 28.4161C177.172 28.0169 176.542 27.7918 175.89 27.7735C175.52 27.7582 175.152 27.832 174.817 27.9886C174.482 28.1451 174.189 28.3799 173.963 28.6732C173.69 28.9168 173.47 29.2133 173.315 29.5447C173.161 29.8761 173.075 30.2355 173.063 30.601C173.173 31.3846 173.345 32.1582 173.577 32.9145C174.645 36.5518 176.535 39.8942 179.102 42.6825C180.285 43.959 181.715 44.9818 183.305 45.6887C184.895 46.3957 186.612 46.7722 188.352 46.7954H189.894C197.86 45.8957 201.2 38.3126 204.155 29.8299C204.404 29.2833 204.488 28.676 204.397 28.0823C204.305 27.4887 204.043 26.9347 203.641 26.4882C203.147 26.0508 202.502 25.8206 201.843 25.8456Z" fill="#66BCFF"/>
<path d="M182.314 26.8732H182.442L190.408 26.6161C190.544 26.6161 190.675 26.5619 190.771 26.4655C190.868 26.3691 190.922 26.2383 190.922 26.102C190.922 25.9656 190.868 25.8349 190.771 25.7385C190.675 25.6421 190.544 25.5879 190.408 25.5879L182.314 25.8449C182.178 25.8449 182.047 25.8991 181.951 25.9955C181.854 26.0919 181.8 26.2227 181.8 26.359C181.929 26.6161 182.057 26.8732 182.314 26.8732Z" fill="#3F99F2"/>
<path d="M179.873 23.0179C180.001 24.5603 180.515 24.6888 181.928 24.1747C184.096 23.5126 186.398 23.424 188.609 23.9176C191.436 24.5603 193.106 24.9458 192.849 23.0179C192.592 21.0901 189.509 18.5195 185.911 18.5195C182.314 18.5195 179.616 20.5759 179.873 23.0179Z" fill="white"/>
<path d="M179.873 23.0179C180.001 24.5603 180.515 24.6888 181.928 24.1747C184.096 23.5126 186.398 23.424 188.609 23.9176C191.436 24.5603 193.106 24.9458 192.849 23.0179C192.592 21.0901 189.509 18.5195 185.911 18.5195C182.314 18.5195 179.616 20.5759 179.873 23.0179Z" fill="white"/>
<path d="M184.498 57.078C184.635 57.078 184.765 57.0238 184.862 56.9274C184.958 56.831 185.012 56.7003 185.012 56.5639C184.939 55.0465 185.112 53.5272 185.526 52.0655C185.655 51.8084 185.398 51.5514 185.141 51.4229C184.884 51.2943 184.627 51.5514 184.498 51.8084C184.08 53.4008 183.906 55.0478 183.984 56.6924C183.984 56.9495 184.241 57.078 184.498 57.078Z" fill="#3F99F2"/>
<path d="M180.644 53.6067L181.158 53.3497L181.801 51.2932C181.846 51.1733 181.844 51.041 181.796 50.9222C181.749 50.8033 181.659 50.7065 181.544 50.6506C181.41 50.6396 181.276 50.6708 181.16 50.74C181.045 50.8092 180.954 50.9128 180.901 51.0362L180.13 52.9641C180.119 53.0981 180.15 53.2321 180.219 53.3474C180.288 53.4627 180.392 53.5534 180.515 53.6067H180.644Z" fill="#3F99F2"/>
<path d="M189.895 55.5357C190.031 55.5357 190.162 55.4816 190.258 55.3852C190.354 55.2887 190.409 55.158 190.409 55.0216C190.315 53.8037 190.099 52.5981 189.766 51.4229C189.713 51.2995 189.622 51.1959 189.507 51.1267C189.391 51.0576 189.257 51.0263 189.123 51.0373C188.866 51.1658 188.609 51.4229 188.738 51.68C189.102 52.7596 189.318 53.8838 189.38 55.0216C189.38 55.158 189.435 55.2887 189.531 55.3852C189.627 55.4816 189.758 55.5357 189.895 55.5357Z" fill="#3F99F2"/>
<path d="M185.269 18.9062C186.098 18.972 186.87 19.3571 187.421 19.9804C187.972 20.6037 188.26 21.4165 188.224 22.2479C188.224 22.7727 188.137 23.2938 187.967 23.7902C186.167 23.5548 184.34 23.6419 182.571 24.0473C182.308 23.4843 182.176 22.8691 182.185 22.2479C182.168 21.8259 182.234 21.4046 182.38 21.0082C182.526 20.6117 182.748 20.2479 183.035 19.9375C183.321 19.6271 183.666 19.3763 184.049 19.1994C184.432 19.0224 184.847 18.9228 185.269 18.9062Z" fill="black"/>
<path d="M276.993 46.182C278.092 41.9938 277.313 38.1604 275.254 37.6201C273.195 37.0797 270.635 40.0369 269.537 44.2251C268.439 48.4133 269.218 52.2467 271.277 52.787C273.336 53.3274 275.895 50.3702 276.993 46.182Z" fill="#FFE75C"/>
<path d="M263.898 44.2259C264.026 46.7964 272.634 54.3795 277.131 50.7807C279.572 48.7243 273.405 44.8685 269.936 43.5833C268.634 43.0286 267.239 42.7234 265.825 42.6836C264.668 42.8121 263.769 43.1977 263.898 44.2259Z" fill="#FFE75C"/>
<path d="M300 78.6704V53.9933L299.743 53.7363L290.878 45.3821C289.376 43.9712 287.516 42.998 285.501 42.5676C283.486 42.1372 281.391 42.266 279.444 42.9401L267.752 47.0529C265.932 47.686 264.303 48.774 263.022 50.2137C261.74 51.6533 260.847 53.3968 260.429 55.2786L257.602 68.7738C257.198 70.6695 257.294 72.6377 257.879 74.4853C258.465 76.333 259.521 77.9966 260.943 79.313L269.936 87.6672C271.433 89.043 273.27 89.9945 275.258 90.4237C277.245 90.853 279.311 90.7444 281.242 90.1092L293.062 85.9963C294.697 85.3789 296.17 84.399 297.372 83.1301C298.573 81.8613 299.472 80.3365 300 78.6704Z" fill="#66BCFF"/>
<path d="M300 78.6705V57.7207H297.944C296.011 57.7211 294.11 58.2176 292.423 59.1627C290.736 60.1078 289.319 61.4699 288.308 63.1188L281.114 74.6862C280.109 76.3414 279.546 78.2271 279.478 80.1624C279.411 82.0978 279.841 84.0181 280.728 85.7394L282.655 89.5952L293.062 85.9965C294.697 85.379 296.17 84.3991 297.372 83.1302C298.573 81.8614 299.472 80.3366 300 78.6705Z" fill="#3892EB"/>
<path d="M300 65.1738C297.037 66.1392 294.526 68.149 292.934 70.829L287.795 79.3117C286.666 81.2057 286.039 83.3559 285.972 85.5596C285.904 87.7633 286.399 89.9478 287.409 91.9073L291.649 99.7474C292.487 101.377 293.667 102.807 295.108 103.938C296.55 105.069 298.218 105.876 300 106.302V65.1738Z" fill="#66BCFF"/>
<path d="M295.503 104.633C295.246 106.176 294.989 106.818 294.475 106.69C293.616 106.54 292.839 106.084 292.291 105.404C289.979 103.091 286.253 95.3794 289.979 95.1223C293.705 94.8653 295.76 101.677 295.503 104.633Z" fill="#FFE75C"/>
<path d="M300 104.503V97.5625C297.521 97.8485 295.234 99.0381 293.576 100.904C292.548 102.189 292.291 103.089 292.548 103.603C292.779 103.964 293.08 104.275 293.433 104.518C293.786 104.761 294.184 104.93 294.604 105.017C296.413 105.397 298.295 105.217 300 104.503Z" fill="#FFE75C"/>
<path d="M299.358 101.933L291.006 101.034C289.111 100.829 287.194 101.071 285.41 101.74C283.625 102.41 282.021 103.488 280.728 104.889L275.075 111.701C273.772 113.19 272.903 115.008 272.563 116.958C272.224 118.907 272.426 120.912 273.148 122.754L276.231 130.338C277.027 132.401 278.39 134.196 280.164 135.515C281.938 136.835 284.049 137.624 286.253 137.792L295.246 138.692C296.841 138.888 298.458 138.756 300 138.306V102.062L299.358 101.933Z" fill="#66BCFF"/>
<path d="M289.979 127.38C289.058 125.588 287.708 124.051 286.049 122.907C284.39 121.763 282.474 121.048 280.471 120.825L272.506 119.926C272.583 120.894 272.8 121.846 273.148 122.753L276.231 130.336C277.027 132.4 278.39 134.195 280.164 135.514C281.938 136.834 284.049 137.623 286.253 137.791L294.475 138.691C294.457 137.217 294.106 135.767 293.448 134.449L289.979 127.38Z" fill="#3892EB"/>
<path d="M258.245 120.313C259.786 121.341 260.686 121.598 261.199 121.213C261.589 120.954 261.918 120.612 262.162 120.213C262.406 119.813 262.56 119.365 262.613 118.899C263.127 115.943 260.557 108.103 256.06 110.16C251.564 112.216 255.161 118.257 258.245 120.313Z" fill="#FFE75C"/>
<path d="M262.741 120.698C261.328 121.855 260.429 121.983 260.043 121.469C259.475 120.5 259.249 119.369 259.401 118.256C259.529 114.272 263.512 103.99 266.853 107.331C270.193 110.673 265.825 118.256 262.741 120.698Z" fill="#FFE75C"/>
<path d="M279.829 122.37C279.402 120.675 278.517 119.131 277.27 117.906C276.024 116.682 274.464 115.825 272.763 115.429L265.825 113.63C264.221 113.244 262.547 113.265 260.954 113.692C259.361 114.118 257.899 114.937 256.703 116.072L251.178 121.341C249.944 122.506 249.035 123.971 248.539 125.594C248.043 127.216 247.979 128.94 248.352 130.595L249.765 137.279C250.378 139.681 251.838 141.78 253.876 143.191H274.304L279.058 138.564C280.302 137.356 281.197 135.836 281.649 134.162C282.101 132.488 282.094 130.723 281.628 129.053L279.829 122.37Z" fill="#66BCFF"/>
<path d="M255.033 130.338L254.005 124.426C253.782 122.958 253.159 121.579 252.206 120.441L251.178 121.341C249.944 122.505 249.035 123.971 248.539 125.593C248.043 127.216 247.979 128.94 248.352 130.595L249.765 137.278C250.009 138.07 250.309 138.843 250.664 139.592L252.078 138.435C253.228 137.456 254.104 136.195 254.622 134.776C255.14 133.357 255.282 131.828 255.033 130.338Z" fill="#3892EB"/>
<path d="M240.258 115.943C240.129 117.228 240.386 117.871 240.771 118.128C241.101 118.267 241.458 118.327 241.814 118.305C242.171 118.283 242.518 118.178 242.827 117.999C244.883 117.228 248.737 112.601 245.654 110.545C242.57 108.488 240.258 113.244 240.258 115.943Z" fill="#FFE75C"/>
<path d="M240.515 117.871C241.671 118.513 242.313 118.77 242.699 118.513C243.201 118.072 243.559 117.49 243.727 116.843C244.112 114.658 242.185 108.874 238.844 110.416C235.504 111.959 238.33 116.328 240.515 117.871Z" fill="#FFE75C"/>
<path d="M242.313 134.578L247.067 134.064C248.179 133.905 249.232 133.469 250.13 132.795C251.029 132.121 251.742 131.231 252.206 130.208L254.262 125.324C254.713 124.281 254.88 123.136 254.744 122.007C254.609 120.878 254.176 119.805 253.491 118.898L250.664 115.428C249.986 114.497 249.061 113.776 247.994 113.344C246.927 112.913 245.76 112.788 244.626 112.986L240.001 113.628C238.956 113.833 237.972 114.276 237.125 114.922C236.278 115.568 235.592 116.401 235.119 117.356L233.063 121.854C232.618 122.87 232.443 123.984 232.555 125.088C232.668 126.191 233.064 127.247 233.705 128.152L236.275 131.879C236.952 132.824 237.868 133.572 238.929 134.047C239.99 134.521 241.158 134.704 242.313 134.578Z" fill="#66BCFF"/>
<path d="M33.7929 132.135C33.765 133.47 34.1708 134.778 34.9492 135.863C34.4068 136.494 33.7373 137.003 32.9846 137.357C32.2318 137.712 31.4127 137.903 30.5809 137.919C29.7583 138.043 28.9186 137.987 28.1193 137.757C27.32 137.526 26.5799 137.126 25.9494 136.583C25.319 136.04 24.8131 135.367 24.4663 134.611C24.1195 133.854 23.9399 133.032 23.9399 132.2C23.9399 131.367 24.1195 130.545 24.4663 129.789C24.8131 129.032 25.319 128.36 25.9494 127.817C26.5799 127.274 27.32 126.873 28.1193 126.643C28.9186 126.412 29.7583 126.357 30.5809 126.48C32.2336 126.524 33.8027 127.217 34.9492 128.408C34.2017 129.508 33.799 130.806 33.7929 132.135Z" fill="#57F287"/>
<path d="M44.0712 132.135C44.0433 133.47 44.4491 134.778 45.2275 135.863C44.6851 136.494 44.0156 137.003 43.2629 137.357C42.5101 137.712 41.691 137.903 40.8592 137.919C40.0366 138.043 39.197 137.987 38.3976 137.757C37.5983 137.526 36.8582 137.126 36.2277 136.583C35.5973 136.04 35.0914 135.367 34.7446 134.611C34.3978 133.854 34.2183 133.032 34.2183 132.2C34.2183 131.367 34.3978 130.545 34.7446 129.789C35.0914 129.032 35.5973 128.36 36.2277 127.817C36.8582 127.274 37.5983 126.873 38.3976 126.643C39.197 126.412 40.0366 126.357 40.8592 126.48C42.5119 126.524 44.081 127.217 45.2275 128.408C44.48 129.508 44.0774 130.806 44.0712 132.135Z" fill="#FFAED7"/>
<path d="M51.1375 137.921C54.3305 137.921 56.919 135.331 56.919 132.137C56.919 128.943 54.3305 126.354 51.1375 126.354C47.9444 126.354 45.356 128.943 45.356 132.137C45.356 135.331 47.9444 137.921 51.1375 137.921Z" fill="#3442D8"/>
<path d="M291.777 4.63867H278.801C276.814 4.63867 275.204 6.23261 275.204 8.19884C275.204 10.1651 276.814 11.759 278.801 11.759H291.777C293.764 11.759 295.375 10.1651 295.375 8.19884C295.375 6.23261 293.764 4.63867 291.777 4.63867Z" fill="#EE4245"/>
<defs>
<linearGradient id="paint0_linear_26218_64958" x1="202.022" y1="193.212" x2="202.138" y2="176.555" gradientUnits="userSpaceOnUse">
<stop stop-color="#8F473B"/>
<stop offset="0.12" stop-color="#A65F47"/>
<stop offset="0.26" stop-color="#B87250"/>
<stop offset="0.42" stop-color="#C58057"/>
<stop offset="0.62" stop-color="#CD885B"/>
<stop offset="1" stop-color="#CF8A5C"/>
</linearGradient>
<linearGradient id="paint1_linear_26218_64958" x1="199.98" y1="195.142" x2="206.355" y2="187.69" gradientUnits="userSpaceOnUse">
<stop stop-color="#EB459F"/>
<stop offset="1" stop-color="#FF78B9"/>
</linearGradient>
<linearGradient id="paint2_linear_26218_64958" x1="193.157" y1="192.327" x2="192" y2="186.453" gradientUnits="userSpaceOnUse">
<stop stop-color="#EB459F"/>
<stop offset="1" stop-color="#FF78B9"/>
</linearGradient>
<linearGradient id="paint3_linear_26218_64958" x1="241.363" y1="193.612" x2="251.886" y2="190.593" gradientUnits="userSpaceOnUse">
<stop stop-color="#7196FF"/>
<stop offset="1" stop-color="#4D7AF7"/>
</linearGradient>
</defs>
</svg>
